<svg width="120" height="120" viewBox="0 0 120 120" fill="none" xmlns="http://www.w3.org/2000/svg">
<g clip-path="url(#clip0_3810_49579)">
<path d="M79.8392 37.4086C79.1874 36.7568 79.1874 35.6976 79.8392 35.0458L86.9276 27.9574C87.5794 27.3056 88.6386 27.3056 89.2904 27.9574C89.9422 28.6092 89.9422 29.6684 89.2904 30.3202L82.202 37.4086C81.5502 38.0604 80.4706 38.0604 79.8392 37.4086Z" stroke="#1E2146" stroke-width="2" stroke-miterlimit="10" stroke-linecap="round" stroke-linejoin="round"/>
<path d="M78.719 34.7199L78.5764 34.5774C78.1894 34.1903 78.1894 33.5385 78.5764 33.1312L85.013 26.6946C85.4 26.3075 86.0518 26.3075 86.4592 26.6946L86.6018 26.8371C86.9888 27.2242 86.9888 27.876 86.6018 28.2833L80.1652 34.7199C79.7578 35.1273 79.106 35.1273 78.719 34.7199Z" stroke="#1E2146" stroke-width="2" stroke-miterlimit="10" stroke-linecap="round" stroke-linejoin="round"/>
<path d="M90.859 48.4283C91.5108 49.0802 92.57 49.0802 93.2218 48.4283L100.31 41.3399C100.962 40.6881 100.962 39.6289 100.31 38.9771C99.6584 38.3253 98.5992 38.3253 97.9474 38.9771L90.859 46.0655C90.2072 46.7174 90.2072 47.7765 90.859 48.4283Z" stroke="#1E2146" stroke-width="2" stroke-miterlimit="10" stroke-linecap="round" stroke-linejoin="round"/>
<path d="M93.5477 49.5485L93.6903 49.6911C94.0773 50.0781 94.7291 50.0781 95.1365 49.6911L101.573 43.2545C101.96 42.8675 101.96 42.2157 101.573 41.8083L101.431 41.6657C101.044 41.2787 100.392 41.2787 99.9843 41.6657L93.5477 48.1023C93.1403 48.5097 93.1403 49.1615 93.5477 49.5485Z" stroke="#1E2146" stroke-width="2" stroke-miterlimit="10" stroke-linecap="round" stroke-linejoin="round"/>
<path d="M97.5377 39.3683L88.8816 30.7122L82.5875 37.0062L91.2437 45.6624L97.5377 39.3683Z" stroke="#1E2146" stroke-width="2" stroke-miterlimit="10" stroke-linecap="round" stroke-linejoin="round"/>
<path d="M87.516 41.9362L86.335 40.7551L82.403 44.6871L83.584 45.8682L87.516 41.9362Z" stroke="#1E2146" stroke-miterlimit="10" stroke-linecap="round" stroke-linejoin="round"/>
<path d="M83.2776 47.1473L81.1172 44.9868L71.7697 54.3343L73.9301 56.4947L83.2776 47.1473Z" stroke="#1E2146" stroke-miterlimit="10" stroke-linecap="round" stroke-linejoin="round"/>
<path d="M81.4078 43.7026L84.5649 46.8598C84.789 47.0838 84.789 47.4301 84.5649 47.6542C84.3409 47.8782 83.9946 47.8782 83.7705 47.6542L80.6134 44.497C80.3893 44.2729 80.3893 43.9266 80.6134 43.7026C80.8374 43.4989 81.1837 43.4989 81.4078 43.7026Z" stroke="#1E2146" stroke-miterlimit="10" stroke-linecap="round" stroke-linejoin="round"/>
<path d="M103.529 64.6013C103.529 63.6236 102.734 62.8088 101.736 62.8088H91.022C90.0442 62.8088 89.2295 63.6032 89.2295 64.6013C89.2295 65.579 90.0239 66.3938 91.022 66.3938H101.736C102.734 66.3734 103.529 65.579 103.529 64.6013Z" stroke="#1E2146" stroke-miterlimit="10" stroke-linecap="round" stroke-linejoin="round"/>
<path d="M102.347 61.729V61.5254C102.347 60.9347 101.858 60.4458 101.268 60.4458H91.5312C90.9405 60.4458 90.4517 60.9347 90.4517 61.5254V61.729C90.4517 62.3197 90.9405 62.8086 91.5312 62.8086H101.268C101.858 62.8086 102.347 62.3197 102.347 61.729Z" stroke="#1E2146" stroke-miterlimit="10" stroke-linecap="round" stroke-linejoin="round"/>
<path d="M43.929 36.8993C43.9493 37.2252 43.9697 37.5715 44.1123 37.877C44.316 38.3659 44.7233 38.6918 45.2326 38.814C45.7214 38.9362 46.251 38.7122 46.5565 38.3048C46.7806 38.0196 46.8825 37.6326 46.9028 37.2863C46.9232 37.0419 46.9232 36.8178 46.9232 36.5734C46.9843 36.2271 47.0047 35.9012 47.0047 35.555C46.9843 35.1476 46.9232 34.6995 46.7602 34.3532C46.6788 34.1903 46.5769 34.0477 46.4751 33.9255L46.414 33.8236C46.1288 33.457 45.6603 33.2125 45.1918 33.294C44.7233 33.3755 44.3771 33.7218 44.153 34.1495C43.8271 34.781 43.8067 35.6365 43.8678 36.329C43.8678 36.4919 43.8882 36.6956 43.929 36.8993Z" fill="#1E2146"/>
<path d="M24.9042 38.3048C25.1283 38.0196 25.2301 37.6326 25.2505 37.2863C25.2708 37.0419 25.2709 36.8179 25.2709 36.5734C25.332 36.2271 25.3523 35.9012 25.3523 35.555C25.332 35.1476 25.2709 34.6995 25.1079 34.3532C25.0264 34.1903 24.9246 34.0477 24.8227 33.9255L24.7616 33.8236C24.4765 33.457 24.008 33.2125 23.5395 33.294C23.071 33.3755 22.7247 33.7218 22.5007 34.1495C22.1748 34.781 22.1544 35.6365 22.2155 36.329C22.2359 36.5123 22.2562 36.716 22.297 36.8993C22.3173 37.2252 22.3377 37.5715 22.4803 37.877C22.684 38.3659 23.0914 38.6918 23.6006 38.814C24.0691 38.9159 24.5987 38.6918 24.9042 38.3048Z" fill="#1E2146"/>
<path d="M74.2786 56.0055C73.9731 53.989 71.8547 53.4594 70.1641 53.989C68.2901 54.5593 66.8439 56.087 65.8051 57.7165L65.1125 58.9794C64.2163 60.8126 63.6664 63.0736 64.2367 65.0086C64.2978 65.2327 64.4404 65.3752 64.6237 65.4364L63.259 66.8214C61.8739 68.2269 60.5703 69.7138 58.9815 70.8952C57.576 71.9341 55.7428 72.7488 54.0929 71.7304C52.5652 70.7934 51.6079 68.9194 50.6098 67.4936C49.2247 65.4975 47.8193 63.5217 46.4342 61.5255C45.2324 59.8145 44.0714 58.1239 42.727 56.5351V56.4944C46.5971 55.2111 50.1006 53.2964 53.0337 50.8725C58.5945 46.2691 62.0979 39.8325 62.0979 32.683C62.0979 25.5335 58.5945 19.0969 53.0337 14.4935C47.473 9.89013 39.8143 7.05884 31.4019 7.05884C22.9895 7.05884 15.3511 9.89013 9.77001 14.4935C4.20927 19.0969 0.705811 25.5335 0.705811 32.683C0.705811 39.8325 4.20927 46.2691 9.77001 50.8725C13.029 53.5816 17.0214 55.6592 21.4414 56.9221C18.9361 59.6719 16.6547 62.6662 14.516 65.6808C11.9902 69.2657 9.72927 73.0544 8.01828 77.0874C6.36839 80.9983 5.20736 85.1739 4.92219 89.4107C4.79998 91.1828 4.61666 93.4437 6.1647 94.7066C7.40721 95.7047 9.19968 95.6436 10.5033 94.8492C12.2143 93.8104 12.7846 91.692 12.4587 89.7977C12.0717 87.5774 10.5848 85.8461 9.1182 84.2573C8.71082 83.8092 8.14049 83.8295 7.73311 84.074C9.24042 77.5152 12.5809 71.5063 16.4307 66.0474C18.5287 63.0736 20.8507 60.2626 22.9487 57.2888C22.9895 57.2888 23.0098 57.3091 23.0506 57.3091C21.1359 63.318 20.036 69.5916 19.0379 75.7838C18.5898 78.6558 17.8565 81.7315 18.2231 84.6443C18.549 87.3737 20.2193 89.431 22.7043 90.5309C24.3746 91.2642 26.2078 91.6716 28.0817 91.8753C28.0003 92.3438 28.0206 92.853 28.0002 93.3011C27.9595 94.1363 27.9188 94.9714 27.878 95.8269C27.8169 97.6397 27.7762 99.4322 27.7355 101.245C27.6947 103.058 27.6336 104.85 27.5929 106.663C27.5725 107.111 27.5725 107.559 27.5521 108.008C25.4745 106.724 22.908 106.398 20.5452 107.111C19.3231 107.478 17.7546 108.191 17.2047 109.413C16.6344 110.656 17.3676 111.857 18.5287 112.387C19.8934 113.018 21.6248 112.855 23.071 112.855C24.5986 112.835 26.4929 112.998 27.9188 112.387C29.4464 111.735 29.5076 110.167 29.5279 108.72C29.5483 106.847 29.5687 104.993 29.6094 103.119C29.6501 101.001 29.6705 98.9026 29.6909 96.7842C29.7112 95.7454 29.7112 94.7066 29.6909 93.6474C29.6909 93.1382 29.7316 92.5678 29.6705 92.0179C30.2612 92.0586 30.8519 92.079 31.4426 92.079C33.4388 92.0993 35.4553 91.9771 37.4311 91.6309C37.2478 93.0363 37.3496 94.5029 37.37 95.9083C37.4107 97.8638 37.4718 99.7988 37.6144 101.754C37.757 103.75 37.9199 105.747 38.144 107.743C38.307 109.209 38.1847 111.511 39.5291 112.489C40.7105 113.344 42.5844 113.141 43.9695 113.12C45.4361 113.079 46.9027 112.876 48.2674 112.305C49.571 111.755 50.8746 110.818 51.4857 109.494C52.0764 108.252 51.8727 106.704 50.5895 105.971C49.0618 105.115 46.7193 105.787 45.1306 106.093C44.0917 106.297 43.0529 106.561 42.0141 106.867C41.4234 107.03 40.8123 107.213 40.242 107.437C40.018 105.624 39.8143 103.791 39.6717 101.978C39.5087 100.043 39.3865 98.1082 39.2847 96.1528C39.2236 94.564 39.3254 92.853 39.0606 91.2642C39.5698 91.142 40.0791 91.0198 40.5883 90.8568C42.9511 90.1439 45.2324 88.8403 46.4546 86.5997C47.86 84.0332 47.3712 80.9575 46.8619 78.2077C45.7416 72.2396 44.601 66.2511 43.4603 60.283C44.0714 61.1996 44.7028 62.1162 45.3343 63.0124C46.8416 65.2123 48.3489 67.4121 49.8562 69.6324C50.9968 71.323 52.2393 73.1969 54.2966 73.8284C56.415 74.4802 58.513 73.584 60.224 72.3414C62.2405 70.8749 63.8904 68.8991 65.6014 67.1066C67.3328 65.3141 69.0845 63.5013 70.8159 61.7088L72.425 60.0589C73.4842 58.9997 74.523 57.6147 74.2786 56.0055ZM10.1978 89.6143C10.5644 90.8568 10.4626 92.6493 9.09783 93.2197C5.61474 94.6455 7.04056 87.496 7.30536 85.9479C7.32573 85.8257 7.3461 85.6831 7.38684 85.5609L7.40721 85.6016C8.50713 86.7831 9.72927 88.0256 10.1978 89.6143ZM26.5541 110.635C24.9042 110.839 23.1728 110.839 21.5229 110.798C20.8304 110.778 20.0156 110.839 19.3638 110.554C18.7731 110.289 19.1397 110.044 19.5675 109.739C21.8081 108.15 25.0671 108.456 27.1651 110.085L27.3281 110.187C27.2059 110.431 26.9818 110.594 26.5541 110.635ZM42.2993 108.945C43.1955 108.659 44.1325 108.415 45.0491 108.232C45.762 108.089 49.571 107.05 49.7543 108.069C49.9784 109.352 47.636 110.309 46.7397 110.554C45.375 110.92 43.9084 110.981 42.503 110.961C41.953 110.941 40.9957 111.104 40.6698 110.574C40.5272 110.33 40.5068 109.902 40.4864 109.556C41.0975 109.393 41.6882 109.128 42.2993 108.945ZM11.1551 49.1819C6.00175 44.9248 2.88529 39.0993 2.88529 32.7034C2.88529 26.3075 6.00175 20.482 11.1551 16.2249C16.2881 11.9678 23.458 9.29943 31.3815 9.29943C39.305 9.29943 46.4546 11.9678 51.5875 16.2249C56.7409 20.5024 59.8573 26.3075 59.8573 32.7034C59.8573 39.0993 56.7409 44.9248 51.5875 49.1819C46.4546 53.439 39.305 56.1074 31.3815 56.1074C28.7946 56.1074 26.2893 55.8222 23.9061 55.2926C23.7431 55.0889 23.4376 54.9871 23.1728 55.1297C18.549 53.989 14.4345 51.9114 11.1551 49.1819ZM43.8677 74.1339C44.3973 76.8634 45.212 79.6946 45.212 82.4852C45.2324 85.1128 43.9899 87.0886 41.6271 88.2089C39.2847 89.3292 36.5552 89.7162 33.9887 89.8995C31.0963 90.1032 28.1021 89.8995 25.2912 89.2273C22.9895 88.6774 20.8304 87.4756 20.3211 84.9906C19.7712 82.3426 20.4841 79.4095 20.8507 76.8022C21.7673 70.3656 23.1524 64.0309 24.1913 57.635C26.4929 58.1035 28.8965 58.3479 31.3611 58.3479C34.5794 58.3479 37.6959 57.9202 40.629 57.1665C41.7086 62.8088 42.7881 68.4713 43.8677 74.1339ZM72.0584 57.6147C71.6102 58.3683 70.9381 58.9998 70.327 59.6108C69.5122 60.446 68.6975 61.2811 67.8827 62.0958C67.2105 62.768 66.5587 63.4606 65.8866 64.1327C66.0292 62.6254 66.0903 61.22 66.7217 59.7738C67.3735 58.2868 68.4938 56.7388 69.94 55.9444C70.4696 55.6592 71.2232 55.3741 71.8343 55.5778C72.7917 55.8833 72.4454 56.9628 72.0584 57.6147Z" fill="#1E2146"/>
<path d="M119.294 67.0454H70.7141V107.885H119.294V67.0454Z" stroke="#1E2146" stroke-width="2" stroke-miterlimit="10"/>
<path d="M31.5445 45.7194C32.1963 45.8416 32.8481 45.9027 33.4999 45.923C34.1924 45.9434 34.885 45.923 35.5572 45.8619C36.2497 45.8008 37.1052 45.7397 37.5533 45.1287C37.8181 44.762 37.7163 44.2732 37.3089 44.0491C36.6978 43.7436 36.0053 43.988 35.3738 44.0898C34.7628 44.1917 34.1517 44.2324 33.5406 44.2528C32.9499 44.2732 32.3796 44.2324 31.7889 44.1917C31.1982 44.1306 30.526 43.9676 29.9353 44.0898C29.4872 44.1917 29.3039 44.7009 29.6502 45.0268C30.139 45.4749 30.8927 45.6175 31.5445 45.7194Z" fill="#1E2146"/>
<path d="M43.4807 30.585C44.1936 30.3406 44.9269 30.0962 45.6398 29.8517C45.9861 29.7295 46.3323 29.6277 46.6786 29.4851C46.9638 29.3629 47.5545 29.1388 47.3915 28.7518C47.2286 28.3444 46.6379 28.5685 46.3527 28.6703C46.0064 28.7926 45.6805 28.9351 45.3342 29.0777C44.6417 29.3833 43.9492 29.6684 43.2362 29.974C42.8492 30.1369 43.0733 30.7276 43.4807 30.585Z" fill="#1E2146"/>
<path d="M23.5396 30.9719C24.0284 31.1145 24.5173 31.2367 25.0061 31.3793C25.2098 31.4404 25.4542 31.2571 25.495 31.0534C25.5357 30.8089 25.3931 30.6256 25.1691 30.5645C24.7006 30.4219 24.2117 30.2794 23.7432 30.1368C23.5192 30.0757 23.2748 29.9942 23.0507 29.9331C22.7859 29.8516 22.4804 29.8109 22.2156 29.9127C22.0526 29.9738 21.9712 30.1775 22.073 30.3405C22.2563 30.5849 22.5415 30.7071 22.8063 30.7886C23.0507 30.8293 23.2951 30.8904 23.5396 30.9719Z" fill="#1E2146"/>
<path d="M116.463 108.7L115.24 112.428" stroke="#1E2146" stroke-width="2" stroke-miterlimit="10" stroke-linecap="round"/>
<path d="M73.0564 108.7L74.2989 112.428" stroke="#1E2146" stroke-width="2" stroke-miterlimit="10" stroke-linecap="round"/>
<path d="M14.74 113.202H117.033" stroke="#1D2149" stroke-width="2" stroke-miterlimit="10" stroke-linecap="round" stroke-linejoin="round"/>
</g>
<defs>
<clipPath id="clip0_3810_49579">
<rect width="120" height="120" fill="white"/>
</clipPath>
</defs>
</svg>
