<svg width="60" height="60" viewBox="0 0 60 60" fill="none" xmlns="http://www.w3.org/2000/svg">
<g clip-path="url(#clip0_2902_16483)">
<g clip-path="url(#clip1_2902_16483)">
<path d="M25.5021 56.2637C26.473 56.2637 27.26 56.1063 27.26 55.9121C27.26 55.7179 26.473 55.5605 25.5021 55.5605C24.5312 55.5605 23.7441 55.7179 23.7441 55.9121C23.7441 56.1063 24.5312 56.2637 25.5021 56.2637Z" fill="#5B2448"/>
</g>
<g clip-path="url(#clip2_2902_16483)">
<path d="M32.0756 49.0985C30.6564 49.1255 29.2097 49.0122 26.7503 47.0588C25.494 46.0611 24.2982 45.8712 24.113 46.7732C23.8184 48.2083 26.6062 50.0406 32.0756 49.0985Z" fill="#5B2448"/>
<path d="M32.0749 49.1231C31.7666 50.0595 31.3335 51.2272 30.8263 52.2421L28.8323 52.2275L27.3867 51.0554C27.4925 50.0408 27.602 48.2598 27.6581 47.2932L32.0749 49.1231Z" fill="#F4ADA2"/>
<path d="M32.0748 49.1231C31.2795 49.2249 30.4793 49.2831 29.6777 49.2975C28.9035 49.3113 28.1841 49.2832 27.5293 49.2308C27.5497 48.989 27.6276 47.7852 27.6336 47.6747L32.0748 49.1231Z" fill="#9B3C82"/>
<path d="M31.7493 50.0602C31.5298 50.6586 31.2175 51.4515 30.8691 52.1564C30.8551 52.1849 30.8404 52.2135 30.8263 52.2421L28.8323 52.2275L27.3867 51.0554C27.4244 50.7005 27.4642 50.2157 27.5014 49.7121L31.7493 50.0602Z" fill="#66B0F0"/>
<path d="M27.4373 50.5249C28.3362 50.5846 30.3229 50.745 31.452 50.8372C31.4832 50.7609 31.5129 50.6857 31.5411 50.6115C30.4263 50.5202 28.3787 50.354 27.4567 50.2936C27.4497 50.3725 27.4432 50.45 27.4373 50.5249ZM35.7692 55.2809C35.5378 55.5485 35.0561 55.9175 34.0578 55.99C32.2187 56.1237 26.6816 55.9533 26.6816 55.9533C26.7972 55.3533 26.8721 54.9623 26.9331 54.6166L26.9261 54.6222C27.0866 53.5203 27.3175 51.8637 27.4476 50.9861C28.1071 51.0453 28.3869 51.6435 28.9215 51.8467C29.4128 52.0262 30.3929 52.1744 31.1411 52.2737C33.1021 52.5546 34.9573 53.6038 35.7649 55.2702C35.7673 55.2753 35.7677 55.2774 35.7692 55.2809Z" fill="white"/>
<path d="M31.8368 56.0993C29.5606 56.0993 26.7213 56.013 26.6816 56.0118C26.6731 56.0116 26.6648 56.0095 26.6573 56.0058C26.6497 56.002 26.6431 55.9966 26.6378 55.99C26.6326 55.9835 26.6289 55.976 26.6268 55.9679C26.6248 55.9598 26.6244 55.9514 26.6259 55.9432C26.7429 55.3362 26.8131 54.9691 26.8718 54.639C26.8696 54.6314 26.869 54.6234 26.8701 54.6156C26.9443 54.1069 27.0339 53.4758 27.1207 52.8655C27.2239 52.1398 27.3214 51.4517 27.3916 50.9795C27.3938 50.9648 27.4015 50.9514 27.4132 50.9421C27.4249 50.9328 27.4397 50.9284 27.4546 50.9297C27.8588 50.966 28.1248 51.1935 28.382 51.4136C28.5619 51.5676 28.7329 51.713 28.9434 51.7937C29.3208 51.9316 30.043 52.0705 31.1501 52.2175C32.1578 52.3617 33.1153 52.7028 33.9178 53.2044C34.7729 53.7384 35.4303 54.4452 35.8189 55.2472C35.8215 55.2528 35.8227 55.2561 35.8238 55.2592C35.8281 55.2694 35.8296 55.2805 35.8279 55.2915C35.8263 55.3024 35.8216 55.3127 35.8145 55.3212C35.3554 55.8519 34.6087 56.0106 34.0631 56.0502C33.5472 56.0858 32.7356 56.0993 31.8368 56.0993ZM26.7539 55.8969C27.3968 55.9158 32.3508 56.0553 34.0554 55.9315C34.972 55.865 35.4546 55.5417 35.7017 55.2709C35.3211 54.4983 34.6838 53.8194 33.8565 53.3018C33.0671 52.8088 32.1252 52.4733 31.1347 52.3317C30.0196 52.1835 29.2895 52.0428 28.9034 51.9017C28.6711 51.8134 28.4854 51.6545 28.3059 51.5007C28.0645 51.2939 27.8357 51.0982 27.499 51.0507C27.4288 51.5203 27.3352 52.1814 27.2365 52.88C27.1516 53.4776 27.0638 54.0952 26.9906 54.5985C26.9935 54.6076 26.9941 54.6172 26.9925 54.6266C26.9342 54.9537 26.8659 55.3102 26.7532 55.8969H26.7539Z" fill="#5B2448"/>
<path d="M35.5737 54.9066C33.9737 56.0099 32.1222 55.3886 31.2107 54.9937C30.4248 54.6528 30.1579 55.073 29.515 54.8584C28.5185 54.3595 28.0864 53.7684 26.9258 54.6222C27.0865 53.5203 27.3172 51.8635 27.4473 50.9861C28.1068 51.0453 28.3866 51.6435 28.9212 51.8464C29.4125 52.026 30.3925 52.1742 31.1407 52.2737C33.0898 52.586 34.5693 53.3957 35.5737 54.9066Z" fill="#5B2448"/>
<path d="M27.1814 53.4887C27.1526 53.4887 27.1346 53.4863 27.1322 53.4861C27.1155 53.4821 27.1008 53.4722 27.091 53.4582C27.0811 53.4442 27.0767 53.427 27.0786 53.4099C27.0805 53.3929 27.0885 53.3771 27.1013 53.3656C27.114 53.3541 27.1305 53.3476 27.1477 53.3475C27.1519 53.3475 27.5737 53.3882 28.1069 53.0209C28.2239 52.9399 28.3217 52.8669 28.407 52.8027C28.7379 52.5534 28.9201 52.4162 29.5792 52.339C29.5888 52.3364 29.5989 52.336 29.6088 52.3376C29.6186 52.3393 29.628 52.343 29.6363 52.3486C29.6446 52.3542 29.6516 52.3614 29.6568 52.37C29.6621 52.3785 29.6655 52.388 29.6667 52.3979C29.668 52.4078 29.6672 52.4179 29.6642 52.4274C29.6613 52.437 29.6564 52.4458 29.6498 52.4533C29.6432 52.4608 29.635 52.4668 29.6259 52.4709C29.6168 52.475 29.6069 52.4771 29.5969 52.4771H29.5953C28.9739 52.5499 28.8125 52.6714 28.4908 52.9137C28.4042 52.979 28.3062 53.0528 28.1867 53.1356C27.7092 53.4641 27.3161 53.4908 27.1814 53.4887Z" fill="white"/>
<path d="M33.4493 55.5862C33.3442 55.5845 33.2378 55.579 33.1302 55.5698C32.5219 55.5176 31.8687 55.3416 31.1884 55.0471C30.7563 54.8598 30.4736 54.8954 30.2004 54.93C29.9915 54.9562 29.7753 54.9836 29.5111 54.9019C29.2625 54.8251 29.1052 54.7053 28.9536 54.5892C28.7644 54.4443 28.5856 54.3082 28.2324 54.2478C27.6266 54.1458 26.9886 54.599 26.9823 54.603C26.9699 54.6104 26.9551 54.6129 26.9409 54.61C26.9267 54.6071 26.9141 54.599 26.9056 54.5872C26.8971 54.5755 26.8933 54.561 26.8949 54.5465C26.8966 54.5321 26.9035 54.5189 26.9145 54.5093C26.9421 54.4894 27.5988 54.0233 28.2515 54.1348C28.6334 54.1994 28.832 54.3513 29.0236 54.4983C29.174 54.6133 29.3158 54.7219 29.5448 54.7926C29.7851 54.8668 29.9795 54.8422 30.1854 54.816C30.4608 54.7814 30.7729 54.742 31.2342 54.942C31.9024 55.2315 32.5444 55.4045 33.1393 55.4556C34.0468 55.5335 34.8549 55.3334 35.5409 54.8603C35.5473 54.8561 35.5544 54.8533 35.5619 54.8519C35.5694 54.8506 35.5771 54.8507 35.5846 54.8523C35.592 54.8539 35.5991 54.857 35.6054 54.8613C35.6116 54.8656 35.617 54.8712 35.6211 54.8776C35.6252 54.884 35.6281 54.8911 35.6294 54.8986C35.6308 54.9062 35.6307 54.9139 35.6291 54.9213C35.6275 54.9288 35.6244 54.9358 35.6201 54.9421C35.6157 54.9484 35.6102 54.9537 35.6038 54.9579C34.9784 55.3874 34.2546 55.5988 33.4493 55.5862Z" fill="#5B2448"/>
<path d="M28.0938 55.6525C27.8917 55.6492 27.7019 55.6002 27.5583 55.5139C27.4034 55.4202 27.3187 55.2954 27.3203 55.1601C27.322 55.0248 27.4088 54.9012 27.5655 54.8116C27.7127 54.7275 27.9062 54.6823 28.1106 54.6847H28.1172C28.3193 54.6879 28.5091 54.7369 28.6527 54.823C28.8076 54.9167 28.892 55.0417 28.8906 55.1768C28.8892 55.3121 28.8022 55.4359 28.6452 55.5256C28.4983 55.6096 28.3048 55.6546 28.1003 55.6525H28.0938ZM28.1155 54.8008H28.1095C27.9253 54.7987 27.7527 54.8385 27.6233 54.9122C27.5038 54.9806 27.4361 55.0691 27.4361 55.1613C27.4361 55.2535 27.4995 55.3434 27.6177 55.4144C27.744 55.4902 27.9134 55.5333 28.0952 55.5363H28.1013C28.2854 55.5382 28.4581 55.4986 28.5874 55.4247C28.707 55.3563 28.7746 55.2678 28.7746 55.1756C28.7746 55.0833 28.711 54.9935 28.5931 54.9225C28.4655 54.8469 28.2962 54.8036 28.1144 54.8008H28.1155Z" fill="#5B2448"/>
<path d="M30.5951 53.8152C30.5489 53.8144 30.5049 53.7953 30.4728 53.7621C30.4407 53.7288 30.4231 53.6842 30.4239 53.638C30.4243 53.615 30.4292 53.5924 30.4384 53.5713C30.4561 53.531 30.8829 52.5806 32.004 52.2062C32.0257 52.1985 32.0487 52.1952 32.0717 52.1965C32.0947 52.1977 32.1172 52.2035 32.138 52.2136C32.1587 52.2236 32.1773 52.2376 32.1925 52.2549C32.2078 52.2721 32.2195 52.2923 32.2269 52.3141C32.2344 52.3359 32.2374 52.3589 32.2359 52.3819C32.2344 52.4049 32.2283 52.4274 32.218 52.448C32.2078 52.4687 32.1935 52.4871 32.1761 52.5021C32.1586 52.5172 32.1384 52.5287 32.1165 52.5359H32.1144C31.1449 52.8598 30.7612 53.7024 30.7575 53.7108C30.7436 53.7422 30.7208 53.7688 30.6919 53.7874C30.6631 53.806 30.6294 53.8156 30.5951 53.8152ZM31.4175 54.0929C31.3946 54.0925 31.372 54.0876 31.3511 54.0785C31.3301 54.0693 31.3111 54.0562 31.2953 54.0397C31.2794 54.0232 31.2669 54.0038 31.2585 53.9825C31.2501 53.9613 31.246 53.9385 31.2464 53.9156C31.2466 53.8914 31.2519 53.8674 31.2621 53.8454C31.2806 53.8047 31.7328 52.8416 32.8837 52.5241C32.9058 52.517 32.9292 52.5143 32.9524 52.5164C32.9756 52.5184 32.9981 52.5251 33.0187 52.536C33.0393 52.5469 33.0575 52.5618 33.0722 52.5799C33.0869 52.5979 33.0978 52.6188 33.1043 52.6412C33.1108 52.6635 33.1128 52.687 33.1101 52.7101C33.1074 52.7333 33.1001 52.7556 33.0886 52.7759C33.0771 52.7962 33.0616 52.8139 33.0431 52.8281C33.0247 52.8423 33.0035 52.8526 32.981 52.8584L32.9763 52.8599C31.9867 53.133 31.5826 53.9821 31.5787 53.9908C31.5645 54.0216 31.5418 54.0476 31.5132 54.0657C31.4846 54.0839 31.4513 54.0933 31.4175 54.0929ZM32.3619 54.3036C32.3327 54.3032 32.304 54.2954 32.2786 54.2809C32.2532 54.2665 32.2318 54.2459 32.2165 54.2209C32.2011 54.196 32.1923 54.1676 32.1909 54.1384C32.1895 54.1092 32.1954 54.0801 32.2082 54.0538C32.2253 54.0184 32.6413 53.1836 33.6915 52.9067C33.7361 52.8949 33.7836 52.9014 33.8235 52.9246C33.8634 52.9479 33.8924 52.9861 33.9042 53.0307C33.9159 53.0754 33.9095 53.1229 33.8862 53.1628C33.863 53.2027 33.8248 53.2318 33.7802 53.2435C32.8897 53.4776 32.5248 54.1984 32.5213 54.2057C32.5067 54.2355 32.484 54.2604 32.4558 54.2778C32.4276 54.2951 32.395 54.304 32.3619 54.3036Z" fill="#FFCF2D"/>
<path d="M24.1133 46.7732C25.0643 44.6298 28.7662 49.957 32.0752 49.1231C33.9092 43.2455 35.5745 32.2851 33.654 23.4517C32.7773 19.42 25.6527 24.3303 26.6702 28.3138C26.9699 30.5268 26.9016 32.1531 26.7495 33.4797C26.1323 37.4716 26.0507 40.0999 25.1551 42.9515C24.8502 43.6805 24.3028 45.6022 24.1133 46.7732Z" fill="#21A0AA"/>
<path d="M19.9248 46.5335C19.0271 45.0193 18.2153 43.6875 17.6397 41.3231C17.1119 39.1541 15.8568 39.0991 15.2894 39.5851C14.6091 40.1666 14.3492 42.8674 19.9248 46.5335Z" fill="#5B2448"/>
<path d="M20.1699 46.4284C18.8754 46.9902 16.7333 47.7585 15.3848 48.1841L14.4204 46.3483C14.4204 46.3483 14.2964 44.8046 14.5386 44.3751C15.6831 43.7133 17.1481 42.757 18.021 42.0764C18.021 42.0769 19.771 44.8224 20.1699 46.4284Z" fill="#F4ADA2"/>
<path d="M17.6855 47.3975C16.8508 47.7019 16.0088 47.9901 15.3862 48.1848L14.4219 46.3488L14.54 44.3755C14.9869 44.115 15.3961 43.8654 15.7645 43.6327L17.6855 47.3975Z" fill="#66B0F0"/>
<path d="M15.0156 44.0944L16.8905 47.6813C16.9715 47.6529 17.0543 47.6242 17.1355 47.5949L15.236 43.9607C15.1635 44.0049 15.0903 44.0499 15.0156 44.0944Z" fill="white"/>
<path d="M19.926 46.5337C18.9591 45.9359 18.0602 45.2345 17.2451 44.442C16.8635 44.0705 16.4983 43.7147 16.1953 43.3567C16.4601 43.184 17.4254 42.5207 17.618 42.381L19.926 46.5337Z" fill="#9B3C82"/>
<path d="M15.6353 53.5917C15.2844 53.5381 14.7168 53.3264 14.1244 52.5199C13.0325 51.0341 10.2305 46.2561 10.2305 46.2561C10.8001 46.0346 11.171 45.8902 11.4964 45.7577L11.4877 45.7549C12.5064 45.3045 14.032 44.6183 14.8443 44.2618C15.1452 44.8517 14.7874 45.4068 14.9 45.9674C15.0092 46.4785 15.4056 47.3875 15.7188 48.0743C16.5257 49.8987 16.6249 51.9979 15.6416 53.5832C15.6393 53.5867 15.6376 53.5884 15.6353 53.5917Z" fill="white"/>
<path d="M15.6347 53.6502C15.632 53.6504 15.6293 53.6504 15.6265 53.6502C14.9329 53.5441 14.4011 52.9963 14.0771 52.5553C12.9959 51.0832 10.2079 46.3336 10.1798 46.2856C10.1756 46.2783 10.173 46.2701 10.1721 46.2617C10.1713 46.2533 10.1724 46.2448 10.1752 46.2369C10.1779 46.2288 10.1823 46.2215 10.1883 46.2153C10.1942 46.2092 10.2014 46.2045 10.2093 46.2015C10.7855 45.9775 11.1339 45.8417 11.4444 45.7155C11.4499 45.7095 11.4566 45.7046 11.464 45.7012C11.9364 45.4924 12.521 45.2314 13.0865 44.979C13.7542 44.681 14.3849 44.3994 14.8206 44.2081C14.8342 44.2021 14.8497 44.2015 14.8638 44.2065C14.8779 44.2115 14.8896 44.2217 14.8964 44.2351C15.0807 44.5968 15.0295 44.9428 14.9799 45.2775C14.9453 45.5116 14.9125 45.7331 14.9565 45.9564C15.0402 46.3485 15.3074 47.0333 15.7716 48.0498C16.6503 50.0363 16.6199 52.1161 15.6909 53.6139C15.6885 53.6176 15.6859 53.6212 15.6832 53.6247C15.6776 53.6324 15.6704 53.6387 15.6619 53.6431C15.6535 53.6476 15.6442 53.65 15.6347 53.6502ZM10.3158 46.2856C10.6419 46.8402 13.1592 51.1081 14.1713 52.4853C14.7155 53.226 15.2461 53.4627 15.6069 53.5275C16.5011 52.0641 16.5235 50.0368 15.6656 48.0963C15.1977 47.0728 14.9284 46.3799 14.8428 45.9787C14.7939 45.7352 14.8297 45.4934 14.8643 45.2595C14.9111 44.9451 14.9549 44.6473 14.8159 44.3371C14.3831 44.5275 13.7757 44.7985 13.1342 45.0863C12.5804 45.3335 12.0082 45.5889 11.5412 45.7954C11.535 45.8028 11.5269 45.8085 11.5178 45.812C11.2109 45.937 10.8737 46.069 10.3158 46.2856Z" fill="#5B2448"/>
<path d="M15.849 53.2267C14.0634 52.4593 13.6044 50.5612 13.454 49.5796C13.3241 48.7329 12.8258 48.7296 12.6662 48.072C12.5584 46.9623 12.83 46.2825 11.4883 45.7544C12.2809 45.3878 14.4228 44.4593 14.8448 44.261C15.1548 44.8697 14.7653 45.4419 14.9124 46.0222C15.0219 46.4923 15.4185 47.42 15.7198 48.0732C16.1852 49.1617 16.2839 49.7962 16.3419 50.6015C16.3798 51.4962 16.2458 52.4186 15.849 53.2267Z" fill="#5B2448"/>
<path d="M14.778 46.9003C14.7677 46.9001 14.7576 46.8977 14.7484 46.8932C14.7392 46.8888 14.7311 46.8823 14.7246 46.8743C14.3321 46.3869 14.1433 46.3151 13.7671 46.172C13.666 46.1334 13.5514 46.0896 13.4161 46.0316C12.7697 45.7528 12.5669 45.3426 12.5585 45.3253C12.5529 45.309 12.5535 45.2913 12.5601 45.2754C12.5668 45.2596 12.579 45.2467 12.5945 45.2393C12.61 45.2318 12.6276 45.2303 12.6441 45.2351C12.6607 45.2398 12.6749 45.2504 12.6841 45.2649C12.6869 45.2707 12.878 45.6479 13.4713 45.9037C13.6028 45.9604 13.7161 46.0035 13.8157 46.0416C14.2029 46.1891 14.4161 46.2704 14.8323 46.787C14.8403 46.7974 14.8453 46.8098 14.8466 46.8228C14.848 46.8359 14.8457 46.8491 14.8399 46.8609C14.8342 46.8727 14.8252 46.8826 14.8141 46.8896C14.803 46.8966 14.7902 46.9003 14.777 46.9003H14.778Z" fill="white"/>
<path d="M15.8485 53.2855C15.8397 53.2853 15.8311 53.2831 15.8233 53.2791C15.0337 52.939 14.416 52.3439 13.9869 51.5107C13.7074 50.9678 13.509 50.321 13.3967 49.589C13.3265 49.1236 13.1449 48.9033 12.9704 48.69C12.8368 48.5262 12.6988 48.3586 12.6272 48.0917C12.5598 47.8402 12.5781 47.6434 12.5956 47.453C12.6174 47.2159 12.6382 46.9919 12.5006 46.6608C12.2667 46.0941 11.5339 45.8031 11.5267 45.8003C11.5194 45.7977 11.5127 45.7936 11.507 45.7884C11.5013 45.7831 11.4967 45.7768 11.4935 45.7697C11.4903 45.7626 11.4885 45.755 11.4883 45.7473C11.4881 45.7395 11.4894 45.7318 11.4922 45.7246C11.4951 45.7173 11.4993 45.7108 11.5047 45.7052C11.5101 45.6996 11.5165 45.6952 11.5237 45.6922C11.5308 45.6892 11.5385 45.6876 11.5462 45.6876C11.554 45.6876 11.5616 45.6891 11.5688 45.6921C11.6008 45.7045 12.3539 46.0044 12.608 46.6164C12.7563 46.9741 12.7334 47.2229 12.7112 47.4638C12.6939 47.6523 12.6773 47.8302 12.7393 48.0615C12.8043 48.3045 12.9285 48.4559 13.0602 48.6165C13.236 48.8312 13.4346 49.0744 13.5115 49.5714C13.6217 50.2913 13.8157 50.9257 14.0901 51.4576C14.507 52.2673 15.1069 52.8449 15.8724 53.1738C15.8846 53.1792 15.8947 53.1886 15.9008 53.2005C15.9069 53.2124 15.9087 53.226 15.906 53.2391C15.9032 53.2522 15.8961 53.264 15.8857 53.2724C15.8753 53.2808 15.8624 53.2855 15.849 53.2855H15.8485Z" fill="#5B2448"/>
<path d="M11.8803 47.7588C11.6679 47.7555 11.4157 47.5813 11.2398 47.2948C11.1329 47.1206 11.072 46.9314 11.0685 46.7622C11.0648 46.5817 11.1263 46.4433 11.2416 46.3724C11.357 46.3015 11.5081 46.3097 11.6674 46.3958C11.8167 46.4757 11.9578 46.6154 12.0652 46.7896C12.1726 46.9638 12.2327 47.1529 12.2362 47.3224C12.2399 47.5029 12.1786 47.6412 12.0633 47.7122C12.0081 47.745 11.9445 47.7612 11.8803 47.7588ZM11.4218 46.441C11.3798 46.4394 11.3383 46.4501 11.3022 46.4717C11.2236 46.5199 11.1818 46.6222 11.1853 46.7601C11.1885 46.909 11.2431 47.0775 11.3394 47.2344C11.5292 47.5434 11.8331 47.7164 12.0029 47.6122C12.0818 47.5638 12.1234 47.4615 12.1199 47.3236C12.1169 47.1747 12.0621 47.0061 11.9657 46.8493C11.8693 46.6924 11.7442 46.5684 11.6127 46.4981C11.5543 46.4643 11.4887 46.4447 11.4213 46.441H11.4218Z" fill="#5B2448"/>
<path d="M16.2342 49.2322C16.1918 49.2316 16.1511 49.2154 16.1198 49.1868C15.3639 48.4988 14.4412 48.5746 14.4319 48.5756C14.4089 48.5781 14.3857 48.5761 14.3635 48.5696C14.3413 48.5632 14.3206 48.5523 14.3027 48.5378C14.2848 48.5232 14.2699 48.5052 14.259 48.4848C14.248 48.4645 14.2413 48.4421 14.2391 48.4191C14.2369 48.3961 14.2393 48.3729 14.2461 48.3508C14.253 48.3287 14.2642 48.3082 14.279 48.2905C14.2939 48.2728 14.3121 48.2582 14.3326 48.2477C14.3532 48.2371 14.3756 48.2307 14.3986 48.2289C14.4424 48.2246 15.4807 48.1352 16.3543 48.9293C16.3804 48.9531 16.3987 48.9843 16.4066 49.0188C16.4146 49.0533 16.4119 49.0894 16.3989 49.1223C16.3858 49.1551 16.3631 49.1833 16.3337 49.2029C16.3043 49.2226 16.2696 49.2328 16.2342 49.2322ZM16.3779 50.1494C16.3322 50.1487 16.2887 50.13 16.2567 50.0975C15.5314 49.3624 14.597 49.4286 14.5877 49.4293C14.5647 49.4316 14.5414 49.4292 14.5193 49.4224C14.4973 49.4156 14.4767 49.4044 14.459 49.3896C14.4413 49.3748 14.4267 49.3565 14.4161 49.336C14.4054 49.3154 14.399 49.293 14.3972 49.2699C14.3953 49.2469 14.3981 49.2237 14.4053 49.2017C14.4125 49.1797 14.424 49.1594 14.4391 49.1419C14.4543 49.1244 14.4728 49.1101 14.4935 49.0999C14.5142 49.0896 14.5368 49.0836 14.5598 49.0822C14.6045 49.0786 15.6657 49.0035 16.5045 49.8528C16.5288 49.8774 16.5452 49.9087 16.5517 49.9427C16.5581 49.9767 16.5543 50.0118 16.5408 50.0437C16.5272 50.0755 16.5044 50.1025 16.4754 50.1214C16.4464 50.1402 16.4125 50.15 16.3779 50.1494ZM16.4366 51.0395C16.4137 51.0391 16.391 51.0343 16.37 51.0251C16.3489 51.0159 16.3299 51.0027 16.314 50.9861C15.6751 50.3234 14.8679 50.3564 14.8598 50.3568C14.8145 50.358 14.7706 50.3415 14.7373 50.3108C14.7041 50.2801 14.684 50.2377 14.6815 50.1924C14.679 50.1472 14.6942 50.1028 14.7238 50.0686C14.7535 50.0344 14.7953 50.0131 14.8403 50.0092C14.8796 50.0069 15.8112 49.9624 16.5648 50.7445C16.5887 50.7693 16.6047 50.8006 16.6108 50.8345C16.6168 50.8683 16.6128 50.9032 16.5991 50.9348C16.5853 50.9664 16.5626 50.9931 16.5337 51.0118C16.5048 51.0304 16.471 51.04 16.4366 51.0395Z" fill="#FFCF2D"/>
<path d="M15.5645 39.4177C17.6059 39.0516 17.0501 41.6885 17.5131 43.3506C17.7498 44.2018 18.4021 45.3609 19.8898 46.5606C21.0806 46.0505 22.8737 45.1207 24.6311 43.4618C29.0447 39.2962 30.5834 34.4489 30.922 33.3678C31.4039 31.8298 32.8916 25.3597 29.4338 22.7263C28.1809 21.7732 26.6991 21.6049 25.6835 21.6091C22.1377 25.745 23.9075 32.1638 22.2443 34.9763C21.2886 36.5912 18.6709 38.272 15.5645 39.4177Z" fill="#21A0AA"/>
<path d="M23.5038 33.2908C23.4966 33.2882 23.4889 33.287 23.4812 33.2874C23.4735 33.2878 23.466 33.2897 23.459 33.2929C23.4521 33.2962 23.4459 33.3009 23.4407 33.3066C23.4355 33.3122 23.4315 33.3189 23.4289 33.3262C23.2495 33.829 22.9451 34.4145 22.0421 35.283C21.8738 35.5148 21.6887 35.7339 21.4883 35.9385C22.9128 34.7268 23.3178 33.9851 23.5391 33.3648C23.5442 33.3503 23.5433 33.3344 23.5367 33.3205C23.53 33.3067 23.5182 33.296 23.5038 33.2908ZM31.0842 28.6422C31.0688 28.6422 31.054 28.6482 31.0431 28.659C31.0321 28.6698 31.0259 28.6845 31.0257 28.6998C31.0058 29.9904 30.8439 31.3368 30.5447 32.7013C30.248 34.0492 29.8316 35.368 29.3005 36.6417C28.2381 39.1904 26.8063 41.3706 25.1515 42.9625C25.1218 43.0341 25.0898 43.1168 25.0561 43.209C25.0622 43.2063 25.0678 43.2027 25.0727 43.1982C26.8068 41.5843 28.306 39.333 29.4084 36.6881C29.9423 35.4078 30.3608 34.0824 30.6588 32.7276C30.9599 31.3552 31.1225 30.0012 31.1427 28.7029C31.1429 28.695 31.1416 28.6872 31.1388 28.6798C31.136 28.6725 31.1318 28.6658 31.1263 28.6601C31.1208 28.6545 31.1143 28.65 31.1071 28.6469C31.0998 28.6438 31.092 28.6422 31.0842 28.6422Z" fill="#6CE0DC"/>
<path d="M24.8786 29.7011L24.4058 29.6276C24.4058 29.6276 24.2816 28.5198 24.17 27.8072C24.0334 26.9354 24.491 26.4728 24.491 26.4728L25.4518 28.8333L24.8786 29.7011ZM33.6218 19.4821C36.0032 17.7897 37.7335 16.1384 38.7517 17.156C38.9363 17.3405 38.8869 17.6554 38.8766 17.72C38.6132 19.366 34.176 19.4362 33.6218 19.4821Z" fill="#5B2448"/>
<path d="M39.3475 20.6678C40.2346 23.0601 39.1205 25.4154 37.4974 25.3548C34.0938 25.2281 28.5294 16.0302 31.3135 13.5485C33.2761 11.7991 38.6697 18.8399 39.3475 20.6678Z" fill="#F4ADA2"/>
<path d="M37.498 25.3548C35.695 25.2574 36.3678 21.968 37.7168 20.1947C39.0129 18.4914 42.8229 17.1162 43.5388 16.527C43.9365 16.214 46.4969 15.821 46.3294 17.2078C45.9253 20.5491 41.4198 25.5664 37.498 25.3548Z" fill="#F4ADA2"/>
<path d="M32.3223 20.7446C33.843 19.771 36.2995 18.2064 37.6274 17.9183C37.4838 17.7331 36.9359 17.0053 36.7405 16.8072C36.1675 17.0235 32.8784 20.26 32.3223 20.7446Z" fill="#9B3C82"/>
<path d="M38.7678 17.1708C37.1519 15.1636 33.2297 11.598 30.8917 12.5648C27.7172 13.921 31.0426 19.2751 32.3236 20.7446C32.6349 20.3167 37.9628 16.4432 38.7678 17.1708Z" fill="#F94F46"/>
<path d="M38.9107 24.332C38.7883 24.332 38.6323 24.3086 38.4465 24.2587C38.2729 24.2119 38.1029 24.1578 37.9225 24.0995C37.1434 23.8469 36.2614 23.5611 34.907 24.0555C34.8925 24.0608 34.8764 24.0601 34.8623 24.0535C34.8482 24.047 34.8374 24.0351 34.8321 24.0205C34.8267 24.0059 34.8274 23.9898 34.834 23.9757C34.8406 23.9617 34.8524 23.9508 34.867 23.9455C36.2584 23.437 37.1617 23.7299 37.9585 23.9881C38.1373 24.0461 38.3059 24.1007 38.4763 24.1456C38.9292 24.2648 39.0845 24.207 39.1028 24.1594C39.1316 24.0866 38.9732 23.8656 38.4512 23.559C38.386 23.5293 38.3234 23.4942 38.2641 23.4541C38.2518 23.4454 38.2433 23.4324 38.2404 23.4177C38.2375 23.4029 38.2403 23.3876 38.2483 23.375C38.2564 23.3623 38.2689 23.3532 38.2835 23.3495C38.2981 23.3458 38.3135 23.3479 38.3265 23.3553C38.393 23.391 38.4561 23.4265 38.5158 23.4618C38.7354 23.5625 38.9622 23.6467 39.1943 23.7137C39.709 23.8633 39.9085 23.8331 39.945 23.7919C39.9684 23.7659 39.9403 23.6781 39.7866 23.5154C39.7776 23.506 39.772 23.4939 39.7706 23.4809C39.7693 23.4679 39.7724 23.4549 39.7793 23.4439C39.7863 23.4328 39.7967 23.4245 39.809 23.4201C39.8212 23.4157 39.8346 23.4155 39.847 23.4197C40.0356 23.4803 40.2213 23.4688 40.2613 23.3939C40.2775 23.364 40.3271 23.1914 39.7384 22.7251L39.719 22.7094C39.5358 22.5643 39.155 22.262 38.7472 22.1061C38.7326 22.1009 38.7206 22.0901 38.714 22.0761C38.7073 22.062 38.7065 22.0459 38.7117 22.0313C38.7169 22.0167 38.7277 22.0048 38.7418 21.9981C38.7558 21.9915 38.7719 21.9906 38.7865 21.9959C39.0951 22.0984 39.3927 22.1581 39.6247 22.1639C39.8568 22.1698 39.9677 22.1202 39.9906 22.0717C40.0208 22.0083 39.9314 21.8547 39.5803 21.6314C39.3431 21.4841 39.0422 21.3671 38.8237 21.2816L38.7678 21.2598C37.233 20.669 35.2336 20.602 34.4452 20.6008C34.4297 20.6008 34.4148 20.5947 34.4038 20.5837C34.3929 20.5727 34.3867 20.5578 34.3867 20.5423C34.3867 20.5268 34.3929 20.5119 34.4038 20.5009C34.4148 20.49 34.4297 20.4838 34.4452 20.4838C35.2407 20.4838 37.2564 20.5526 38.8099 21.1505L38.8658 21.1725C39.0892 21.2596 39.3952 21.379 39.6423 21.5323C40.0166 21.7702 40.1689 21.9685 40.0962 22.122C40.0213 22.2796 39.7005 22.3192 39.2698 22.2419C39.4508 22.357 39.6249 22.4825 39.7913 22.6179L39.811 22.6333C40.2721 22.9988 40.4583 23.2731 40.3643 23.4492C40.3175 23.5362 40.1872 23.5971 39.9864 23.5714C40.054 23.6666 40.1072 23.7849 40.0332 23.8694C39.902 24.0178 39.3971 23.912 38.953 23.7612C39.1636 23.9368 39.2546 24.089 39.2104 24.2025C39.1776 24.2887 39.0742 24.332 38.9107 24.332Z" fill="#9B3C82"/>
<path d="M34.2754 19.0525C34.8708 21.493 35.1316 28.2169 35.1316 28.2169C31.0222 30.0316 27.5782 30.0686 24.8783 29.7009C24.8128 28.984 24.6678 28.1581 24.4235 27.0145C24.3103 27.5612 23.8571 28.9782 23.6281 29.5021C22.5009 29.2757 21.0742 28.9168 21.0742 28.9168C22.273 26.4759 22.5481 21.2882 22.5481 21.2882C22.2597 17.0563 23.2734 14.1012 26.5736 13.3854L30.2792 13.0953C32.6082 13.6274 33.8325 15.7704 34.2754 19.0525Z" fill="#F94F46"/>
<path d="M28.6633 15.835C28.634 15.8349 28.6047 15.8324 28.5758 15.8275C28.1701 15.7601 27.7057 15.3417 27.1955 14.5842C26.9583 14.2289 26.7439 13.8588 26.5538 13.4762C26.55 13.4692 26.5478 13.4616 26.5471 13.4537C26.5464 13.4459 26.5473 13.438 26.5498 13.4305C26.5522 13.423 26.5562 13.4161 26.5613 13.4101C26.5665 13.4042 26.5729 13.3994 26.58 13.3959C26.5871 13.3925 26.5948 13.3906 26.6026 13.3902C26.6105 13.3898 26.6184 13.391 26.6258 13.3938C26.6332 13.3965 26.6399 13.4008 26.6456 13.4062C26.6513 13.4116 26.6559 13.4181 26.659 13.4254C26.6693 13.4467 27.6969 15.5637 28.595 15.7128C28.6498 15.7225 28.706 15.7201 28.7597 15.7058C28.8134 15.6916 28.8634 15.6657 28.9062 15.6302C29.3458 15.2872 29.4473 14.1015 29.4482 14.0895C29.4495 14.074 29.4569 14.0596 29.4688 14.0496C29.4806 14.0395 29.496 14.0345 29.5115 14.0358C29.527 14.0371 29.5414 14.0445 29.5515 14.0563C29.5616 14.0682 29.5665 14.0836 29.5652 14.0991C29.5442 14.3225 29.5077 14.5442 29.4562 14.7626C29.343 15.2404 29.1825 15.5634 28.9787 15.7224C28.8895 15.7949 28.7782 15.8346 28.6633 15.835Z" fill="#FCB6B1"/>
<path d="M29.8819 17.811C29.8742 17.8116 29.8665 17.8107 29.8592 17.8083C29.8518 17.8059 29.8451 17.8021 29.8392 17.7971C29.8334 17.792 29.8286 17.7859 29.8251 17.779C29.8216 17.7722 29.8195 17.7647 29.8189 17.757C29.8184 17.7493 29.8193 17.7416 29.8217 17.7342C29.8241 17.7269 29.8279 17.7201 29.8329 17.7143C29.838 17.7084 29.8441 17.7036 29.8509 17.7002C29.8578 17.6967 29.8653 17.6946 29.873 17.694C29.8788 17.694 30.4551 17.6004 30.4059 17.2515C30.2405 16.07 29.4601 14.1342 29.4523 14.1146C29.4491 14.1074 29.4474 14.0997 29.4473 14.0918C29.4471 14.084 29.4486 14.0762 29.4515 14.0689C29.4544 14.0616 29.4588 14.055 29.4643 14.0494C29.4699 14.0439 29.4765 14.0395 29.4837 14.0365C29.491 14.0336 29.4988 14.0321 29.5067 14.0322C29.5145 14.0323 29.5222 14.034 29.5294 14.0372C29.5366 14.0404 29.5431 14.045 29.5484 14.0507C29.5538 14.0564 29.558 14.0632 29.5607 14.0706C29.5686 14.09 30.3545 16.0389 30.5217 17.2349C30.5494 17.4306 30.445 17.5929 30.2204 17.7031C30.1159 17.7534 30.0049 17.7888 29.8905 17.8082L29.8819 17.811Z" fill="#FCB6B1"/>
<path d="M29.5688 16.1496C29.6284 16.1496 29.6766 16.1013 29.6766 16.0417C29.6766 15.9821 29.6284 15.9338 29.5688 15.9338C29.5092 15.9338 29.4609 15.9821 29.4609 16.0417C29.4609 16.1013 29.5092 16.1496 29.5688 16.1496Z" fill="#FCB6B1"/>
<path d="M29.8286 17.0554C29.8881 17.0554 29.9364 17.007 29.9364 16.9474C29.9364 16.8878 29.8881 16.8395 29.8286 16.8395C29.769 16.8395 29.7207 16.8878 29.7207 16.9474C29.7207 17.007 29.769 17.0554 29.8286 17.0554Z" fill="#FCB6B1"/>
<path d="M32.6094 14.5186C32.5966 14.5273 32.5877 14.5408 32.5848 14.556C32.5818 14.5712 32.5851 14.587 32.5937 14.5999C32.9 15.0512 33.9273 16.7138 34.3185 19.2136L34.4251 19.1405C34.0227 16.6471 32.998 14.9873 32.6906 14.5341C32.6819 14.5213 32.6684 14.5125 32.6532 14.5096C32.638 14.5067 32.6222 14.5099 32.6094 14.5186ZM30.9226 15.2853H30.9507C31.1166 15.279 31.1928 15.1961 31.2274 15.1278C31.3386 14.9091 31.2179 14.4608 30.8686 13.7953C30.6454 13.3701 30.3962 12.9862 30.3358 12.8947C30.3052 12.9181 30.275 12.9431 30.2458 12.9682C30.571 13.4598 31.3093 14.7099 31.1243 15.0739C31.0939 15.1336 31.0358 15.1643 30.9469 15.1676H30.9235C30.2961 15.1676 29.6576 14.2162 29.5687 14.0788L29.459 14.1242C29.4901 14.1766 30.1859 15.2853 30.9226 15.2853Z" fill="#FCB6B1"/>
<path d="M29.9133 4.99468C29.7548 4.96045 29.5905 4.96431 29.4338 5.00594C29.2771 5.04757 29.1325 5.12578 29.0119 5.23417C28.4466 4.31391 27.1685 4.8294 27.1837 5.63588C26.0886 5.17166 25.2286 6.48614 25.8191 7.22778C26.036 7.49957 26.4292 8.08365 26.4243 8.64058C26.9236 8.72884 28.0386 9.60906 28.0386 9.60906C28.0386 9.60906 29.4969 7.17417 30.2011 6.74763C31.0803 6.21505 30.5986 5.15878 29.9133 4.99468Z" fill="#5B2448"/>
<path d="M28.6584 5.88917H28.6619C28.6768 5.88921 28.6911 5.88356 28.702 5.87338C28.7128 5.8632 28.7194 5.84926 28.7204 5.83439C28.7367 5.56284 28.8769 5.36385 29.0116 5.23299C28.9899 5.19787 28.967 5.16486 28.9433 5.13373C28.7887 5.27864 28.623 5.50642 28.6036 5.82714C28.6027 5.84263 28.6079 5.85787 28.6182 5.8695C28.6284 5.88113 28.6429 5.88821 28.6584 5.88917Z" fill="#9B3C82"/>
<path d="M31.7549 9.573C31.8543 9.84152 31.789 10.1686 31.5462 10.412C30.9145 11.046 29.8617 11.0947 29.8617 11.0947C29.8617 11.0947 30.0489 12.1949 30.2945 13.0543C30.2945 13.0543 30.0042 15.4028 26.5747 13.3863C26.5747 13.3863 26.923 11.6645 27.1748 10.5068C26.625 10.5853 25.648 10.261 25.5757 9.50605C25.5343 9.0753 25.8751 8.61787 26.3344 8.62068C26.7805 8.62325 27.0065 8.82575 27.4412 9.0938C27.8446 9.34265 27.8813 9.12868 27.973 8.66445C28.0496 8.29434 28.195 7.94192 28.4016 7.62551C28.7584 7.09948 29.6154 6.84806 30.201 6.74693C30.3223 7.17921 30.4722 7.60293 30.6497 8.01529C30.9578 8.74124 31.523 8.94631 31.7549 9.573Z" fill="#F4ADA2"/>
<path d="M28.4359 8.04502C28.3564 7.76808 28.4827 7.45556 28.7195 7.29075C28.8664 7.1641 29.4166 7.12313 29.2933 7.41365C29.2393 7.54147 29.0648 7.62856 28.96 7.74537C28.8828 7.8231 28.791 7.94015 28.715 8.02864C28.6535 8.11525 28.4775 8.18338 28.4359 8.04502ZM28.762 8.35661C28.879 8.29575 29.1619 8.15622 29.3996 7.93781C29.4075 7.93052 29.4168 7.92487 29.4269 7.92119C29.437 7.91752 29.4477 7.91588 29.4585 7.91638C29.4692 7.91688 29.4798 7.91951 29.4895 7.92411C29.4992 7.92871 29.5079 7.9352 29.5151 7.94319C29.5935 8.02981 29.6953 8.19204 29.5151 8.31986C29.2929 8.47718 28.8729 8.51065 28.7567 8.42731C28.7509 8.42313 28.7463 8.41755 28.7434 8.4111C28.7404 8.40465 28.7391 8.39755 28.7396 8.39046C28.7402 8.38338 28.7425 8.37655 28.7464 8.37062C28.7504 8.3647 28.7557 8.35988 28.762 8.35661ZM30.3864 7.63488C30.2652 7.68615 30.1697 7.70277 29.932 7.73905C29.9213 7.74054 29.9109 7.74416 29.9015 7.74968C29.8922 7.7552 29.884 7.76253 29.8774 7.77124C29.8709 7.77994 29.8662 7.78986 29.8635 7.8004C29.8608 7.81095 29.8603 7.82193 29.8619 7.83269C29.8787 7.94834 29.9653 8.04549 30.1501 8.01482C30.3557 7.98065 30.4395 7.79805 30.4442 7.67631C30.4446 7.66923 30.4432 7.66216 30.4401 7.65576C30.437 7.64936 30.4324 7.64384 30.4266 7.63971C30.4209 7.63558 30.4142 7.63297 30.4071 7.63212C30.4001 7.63128 30.393 7.63223 30.3864 7.63488Z" fill="#5B2448"/>
<path d="M27.6021 10.4001C27.5982 10.3934 27.5931 10.3876 27.587 10.3829C27.5809 10.3782 27.5739 10.3748 27.5665 10.3729C27.559 10.3709 27.5513 10.3705 27.5436 10.3715C27.536 10.3726 27.5287 10.3751 27.5221 10.379C27.4126 10.4413 27.2937 10.4849 27.17 10.5082H27.1753C27.1665 10.549 27.1575 10.5903 27.1484 10.6323C27.3006 10.6079 27.447 10.5562 27.5808 10.4797C27.5941 10.4719 27.6038 10.4592 27.6078 10.4443C27.6118 10.4294 27.6097 10.4135 27.6021 10.4001Z" fill="#9B3C82"/>
<path d="M29.7686 6.91969C29.6905 7.02738 29.6345 7.20272 29.8112 7.217C30.0025 7.23245 30.1549 7.18961 30.339 7.20015C30.2749 7.00608 30.2332 6.85812 30.2005 6.74763C30.0578 6.77619 29.8669 6.78462 29.7686 6.91969ZM29.977 11.8623H30.011C29.9225 11.4226 29.8626 11.0947 29.8626 11.0947C29.8626 11.0947 29.1685 11.0792 28.7415 10.8325C28.6323 10.9479 28.8573 11.8457 29.977 11.8623Z" fill="#5B2448"/>
<path opacity="0.52" d="M28.7668 9.91105C29.0683 9.91105 29.3128 9.66642 29.3128 9.36465C29.3128 9.06289 29.0683 8.81826 28.7668 8.81826C28.4652 8.81826 28.2207 9.06289 28.2207 9.36465C28.2207 9.66642 28.4652 9.91105 28.7668 9.91105Z" fill="#E57281"/>
<path d="M30.5823 9.21553C30.5612 9.26167 30.5304 9.30271 30.492 9.33586C30.4547 9.36834 30.4125 9.39487 30.3671 9.41452C30.2755 9.45534 30.1743 9.46923 30.0751 9.45455C30.0256 9.44572 29.9775 9.42996 29.9324 9.40773C29.8875 9.38527 29.8463 9.35606 29.8103 9.32111C29.7367 9.25232 29.6907 9.15915 29.6807 9.05892C29.68 9.04652 29.6837 9.03428 29.6911 9.02435C29.6986 9.01442 29.7093 9.00744 29.7214 9.00464C29.7334 9.00184 29.7461 9.0034 29.7572 9.00905C29.7682 9.0147 29.7769 9.02407 29.7817 9.03551V9.03808C29.8087 9.10517 29.8528 9.16396 29.9097 9.20851C29.9656 9.25193 30.0313 9.28088 30.1011 9.29279C30.1718 9.30292 30.2438 9.29659 30.3116 9.27429C30.3808 9.25394 30.4431 9.21509 30.4918 9.16192L30.4937 9.15982C30.5019 9.15038 30.5132 9.14421 30.5256 9.14241C30.538 9.14061 30.5506 9.14331 30.5612 9.15001C30.5718 9.15671 30.5796 9.16698 30.5832 9.17896C30.5869 9.19093 30.5862 9.20382 30.5812 9.2153L30.5823 9.21553ZM27.2323 9.79751C27.2226 9.79754 27.2129 9.79511 27.2044 9.79045C27.1958 9.78578 27.1885 9.77903 27.1832 9.77082C26.7721 9.13664 26.2069 9.33375 26.183 9.34241C26.1686 9.34741 26.1527 9.34654 26.1389 9.33998C26.1251 9.33343 26.1144 9.32171 26.1091 9.30735C26.1038 9.29298 26.1043 9.27712 26.1106 9.26315C26.1168 9.24918 26.1283 9.23822 26.1426 9.23262C26.1491 9.23005 26.818 8.99243 27.2815 9.70715C27.2872 9.71598 27.2904 9.72621 27.2908 9.73673C27.2912 9.74726 27.2888 9.7577 27.2838 9.76695C27.2787 9.77621 27.2713 9.78393 27.2622 9.78931C27.2532 9.79468 27.2429 9.79752 27.2323 9.79751Z" fill="#9B3C82"/>
<path d="M30.274 8.64455C30.2651 8.64457 30.2563 8.64204 30.2488 8.63728C30.2413 8.63251 30.2353 8.62569 30.2315 8.61763C30.2277 8.60957 30.2263 8.6006 30.2275 8.59177C30.2286 8.58294 30.2322 8.57461 30.2379 8.56777C30.3184 8.47132 30.3535 8.40132 30.3453 8.35427C30.3364 8.30113 30.27 8.25829 30.1619 8.19367C29.8643 8.01623 29.8706 7.82637 29.8709 7.81911C29.8714 7.80669 29.8768 7.79499 29.886 7.78659C29.8951 7.77818 29.9072 7.77375 29.9196 7.77428C29.932 7.77481 29.9437 7.78025 29.9521 7.7894C29.9605 7.79855 29.965 7.81067 29.9644 7.82309C29.9644 7.82754 29.9677 7.9694 30.2099 8.11385C30.3231 8.1815 30.4204 8.23979 30.4377 8.33905C30.4511 8.41701 30.4115 8.5062 30.31 8.6284C30.3055 8.63356 30.3 8.63768 30.2938 8.64047C30.2875 8.64326 30.2808 8.64465 30.274 8.64455ZM26.8526 20.6729C24.3065 23.1287 22.2931 24.5801 21.4597 24.0527C21.0987 23.8235 21.0573 23.4325 21.0992 23.1212C21.3079 21.5665 23.5873 21.007 26.8526 20.6729Z" fill="#5B2448"/>
<path d="M25.523 26.7711C22.5922 26.4721 21.7574 22.487 22.1685 18.0018C22.3463 16.0604 24.2385 13.1999 25.7805 13.7475C27.3225 14.2951 27.6021 18.6072 27.902 19.7784C28.1199 20.6271 29.0639 22.7515 29.1701 24.4193C29.2339 25.4196 28.2628 27.0506 25.523 26.7711Z" fill="#F4ADA2"/>
<path d="M22.2586 22.5631C23.8729 21.0962 27.1717 19.9512 27.8911 19.734C26.0974 19.9636 23.864 20.3141 22.0703 20.5437C22.0703 20.9284 22.151 21.9439 22.2586 22.5631Z" fill="#9B3C82"/>
<path d="M26.5751 13.3863C27.4321 14.0322 27.8911 17.2323 27.9679 19.7084C26.0834 20.3909 20.9941 21.1156 21.1153 23.5529C20.9328 23.2186 20.4331 19.0113 21.3598 15.923C22.3441 12.6425 24.8446 12.0823 26.5751 13.3863Z" fill="#F94F46"/>
<path d="M35.7559 23.7404C33.7137 24.1011 29.8327 27.1946 25.5232 26.7711C24.341 26.654 23.3182 24.9657 23.5196 23.8928C23.6974 22.9458 24.506 22.1883 24.9234 21.9542C26.0931 21.2971 27.6333 20.8619 28.5305 20.7694C29.7913 20.6395 34.4813 20.6018 34.9305 20.6055C35.8982 20.6097 36.6857 23.5763 35.7559 23.7404Z" fill="#F4ADA2"/>
<path d="M39.7453 22.7134C39.4861 22.4961 39.1068 22.2747 38.7477 22.063H38.7496C38.8315 22.0708 39.0537 22.122 39.1225 22.1309C39.6894 22.2077 40.5176 22.2159 39.5979 21.6309C39.5745 21.6157 39.0228 21.353 38.8024 21.2669C37.5838 20.7987 36.2591 20.6058 34.9277 20.6037C33.7198 20.6015 34.7941 23.9551 35.7538 23.7406C36.7946 23.5065 37.5721 23.9232 38.4838 24.1634C39.3955 24.4036 39.287 24.0119 38.2718 23.4283C38.3474 23.4571 38.6656 23.5786 38.7865 23.6121C39.4264 23.8204 40.3697 24.0613 39.8077 23.4384C39.8077 23.4384 39.8936 23.4524 39.983 23.4618C40.2387 23.4826 40.5985 23.4239 39.745 22.7148L39.7453 22.7134Z" fill="#F4ADA2"/>
<path d="M37.7 21.5923C37.6862 21.5893 37.6718 21.5918 37.6598 21.5993C37.6478 21.6067 37.6391 21.6185 37.6356 21.6322C37.6321 21.6459 37.634 21.6605 37.641 21.6728C37.6479 21.6851 37.6594 21.6942 37.6729 21.6983C37.6806 21.7007 38.2653 21.8463 38.7524 22.0642C38.8758 22.0936 39.0008 22.1163 39.1267 22.1323C38.6134 21.82 37.7377 21.6012 37.7 21.5923ZM39.9647 23.4187C39.3642 22.9196 38.2665 22.4004 37.4614 22.2389C37.4545 22.2374 37.4473 22.2373 37.4403 22.2386C37.4333 22.24 37.4267 22.2427 37.4208 22.2467C37.4149 22.2507 37.4098 22.2558 37.406 22.2618C37.4021 22.2678 37.3995 22.2744 37.3982 22.2815C37.3967 22.2885 37.3965 22.2958 37.3977 22.3029C37.399 22.31 37.4017 22.3168 37.4055 22.3229C37.4094 22.3289 37.4145 22.3342 37.4204 22.3383C37.4264 22.3424 37.4331 22.3453 37.4401 22.3468C38.178 22.4952 39.2109 22.9763 39.8077 23.4382C39.8757 23.4522 39.9449 23.4601 40.0143 23.4616C39.9966 23.4487 39.98 23.4344 39.9647 23.4187ZM37.2642 22.9648C37.26 22.9787 37.2612 22.9937 37.2676 23.0067C37.2739 23.0197 37.285 23.0299 37.2986 23.035C37.3063 23.0371 37.8353 23.2064 38.2798 23.433C38.3675 23.4653 38.5975 23.5524 38.7905 23.6137C38.4143 23.2783 37.3763 22.9437 37.3339 22.9292C37.3269 22.9268 37.3195 22.9259 37.3122 22.9264C37.3048 22.927 37.2976 22.929 37.2911 22.9324C37.2845 22.9358 37.2787 22.9405 37.274 22.9462C37.2693 22.9518 37.2658 22.9584 37.2637 22.9655L37.2642 22.9648Z" fill="#9B3C82"/>
<path d="M44.5232 15.5569C44.5106 15.5527 44.4374 15.5206 44.4121 15.5068C44.3971 15.4984 44.2268 15.3846 44.1739 15.3429C44.0626 15.2554 43.94 15.1467 43.8132 15.0245L43.794 15.006C43.6239 14.8422 43.4468 14.6532 43.2793 14.4604C43.1155 14.2731 42.9625 14.083 42.832 13.9041L42.81 13.8739C42.8022 13.8634 42.7948 13.8526 42.7866 13.8419L42.7826 13.8365L42.78 13.833C42.7138 13.7393 42.6551 13.6499 42.606 13.5673C42.6043 13.5642 42.6024 13.5616 42.601 13.5588C42.5943 13.5476 42.5879 13.5366 42.5816 13.5258C42.463 13.3179 42.4106 13.158 42.4646 13.0897C42.5472 12.9853 42.8858 13.0869 43.2428 13.2823C43.284 13.3058 43.3254 13.3292 43.3668 13.3526C43.4056 13.3761 43.4441 13.4006 43.4824 13.4259L43.5259 13.4549C43.6214 13.5197 43.713 13.59 43.8003 13.6656C43.8291 13.6906 43.8569 13.7161 43.8843 13.7424C43.9077 13.7658 43.9311 13.7878 43.9545 13.8112C43.9871 13.8446 44.0183 13.8788 44.0481 13.9137C44.2209 14.1126 44.3666 14.3336 44.4813 14.5708C44.516 14.6411 44.5461 14.7113 44.5728 14.7799C44.7247 15.1685 44.7471 15.4899 44.6456 15.5543C44.617 15.574 44.5752 15.5733 44.5232 15.5569Z" fill="#F4ADA2"/>
<path d="M46.3285 17.2078C46.4708 16.1817 46.3363 15.2746 46.019 14.3698C45.7497 13.6021 44.4204 13.909 44.1076 14.3969C43.7948 14.8848 43.6753 15.9771 43.5071 16.1344C43.2916 16.336 43.0775 16.8089 43.4369 17.3714C43.9174 18.1269 46.1833 18.2547 46.3285 17.2078Z" fill="#F4ADA2"/>
<path d="M44.9681 13.9559C44.9681 13.9559 44.615 13.4703 44.5622 13.4202C43.9026 12.7996 43.4874 12.1011 43.6294 11.9374C43.8112 11.7282 44.6745 12.353 44.9524 12.6222C45.5808 13.2074 45.7539 13.6288 46.0199 14.3698" fill="#F4ADA2"/>
<path d="M44.4831 15.1339C44.3851 15.0496 44.296 14.5252 44.1949 14.326C44.1053 14.1497 43.8837 13.8906 43.7118 13.6881C43.2539 13.1796 43.0626 12.7893 43.0623 12.7889C42.9652 12.6079 42.9266 12.4698 42.9755 12.4078C43.103 12.2465 43.8428 12.5768 44.3112 12.9848C44.8137 13.42 45.0804 14.0549 45.1534 14.3016C45.6073 15.7627 44.5007 15.1493 44.4831 15.1339ZM43.8964 16.3856C43.7066 16.2345 43.5268 16.0711 43.3583 15.8966C43.2364 15.7727 43.1133 15.6391 42.9942 15.5042C42.9629 15.4682 42.9315 15.4319 42.9007 15.3956C42.9007 15.3956 42.8995 15.3956 42.899 15.3937C42.8925 15.3862 42.0486 14.2586 42.163 14.1137C42.2355 14.0216 42.5076 14.0902 42.815 14.2408C42.9103 14.2876 43.009 14.3424 43.1061 14.4028C43.1295 14.418 43.1543 14.4334 43.1781 14.4496C43.2178 14.4757 43.2567 14.5026 43.2951 14.5304C43.3653 14.5814 43.4355 14.6352 43.498 14.6905C43.6056 14.7846 43.7053 14.8874 43.796 14.9979C43.8068 15.0107 43.8173 15.0238 43.8278 15.0369C43.9661 15.211 44.0846 15.3999 44.1811 15.6002C44.1851 15.6077 44.4607 16.5059 44.3435 16.5799C44.2679 16.627 44.1032 16.545 43.8964 16.3856Z" fill="#F4ADA2"/>
<path d="M45.1096 13.9879C45.1214 13.9954 45.1354 13.9987 45.1494 13.9972C45.1633 13.9957 45.1764 13.9896 45.1864 13.9798C45.1965 13.9701 45.2029 13.9572 45.2048 13.9433C45.2066 13.9294 45.2037 13.9153 45.1966 13.9032C44.7717 13.1932 44.0048 12.5922 43.7264 12.3878C43.7862 12.4965 43.8528 12.6013 43.9257 12.7015L43.9234 12.6999C44.2704 12.9832 44.7801 13.4504 45.0894 13.9673C45.0945 13.9757 45.1013 13.9827 45.1096 13.9879ZM44.739 14.6816C44.7506 14.6891 44.7644 14.6926 44.7782 14.6914C44.792 14.6902 44.805 14.6844 44.8152 14.675C44.8253 14.6655 44.832 14.653 44.8343 14.6393C44.8365 14.6256 44.8341 14.6116 44.8274 14.5994C44.4809 13.9596 43.7044 13.4118 43.2543 13.1103C43.328 13.217 43.4089 13.3243 43.4883 13.4249C43.9124 13.7293 44.4554 14.1759 44.717 14.6589C44.7222 14.6682 44.7298 14.676 44.739 14.6816ZM44.1485 15.5679C44.1595 15.5751 44.1726 15.5785 44.1858 15.5778C44.1989 15.5771 44.2115 15.5722 44.2217 15.5638C44.2319 15.5554 44.2392 15.5441 44.2425 15.5313C44.2459 15.5185 44.245 15.505 44.2402 15.4927C44.0039 14.8841 43.4726 14.4791 43.0585 14.1982C43.2496 14.4299 43.4043 14.5996 43.4433 14.643C43.7187 14.8771 43.9814 15.1699 44.1239 15.5386C44.1288 15.5507 44.1374 15.561 44.1485 15.5679ZM43.4878 17.3351C43.0302 16.6939 43.5299 16.2002 43.5512 16.1796C43.5572 16.1739 43.562 16.167 43.5653 16.1595C43.5687 16.1519 43.5704 16.1437 43.5706 16.1354C43.5707 16.1271 43.5692 16.1189 43.5661 16.1112C43.563 16.1035 43.5584 16.0965 43.5526 16.0906L43.2463 15.7786C43.2346 15.7678 43.2191 15.7619 43.2031 15.7622C43.1872 15.7625 43.1719 15.7689 43.1605 15.78C43.1491 15.7912 43.1424 15.8063 43.1418 15.8223C43.1411 15.8383 43.1467 15.8539 43.1572 15.8659L43.422 16.1358C43.3381 16.2353 43.2724 16.3489 43.2279 16.4713C43.15 16.6883 43.1144 17.0268 43.3862 17.4077C43.3909 17.4142 43.3968 17.4198 43.4036 17.4241C43.4158 17.4317 43.4303 17.4349 43.4446 17.4331C43.4589 17.4313 43.4721 17.4246 43.482 17.4141C43.492 17.4036 43.498 17.39 43.499 17.3756C43.5 17.3612 43.4961 17.3469 43.4878 17.3351ZM28.2412 20.8092L28.2019 20.698C28.0795 20.7245 27.7503 20.7998 27.3746 20.919C26.7343 21.122 26.2701 21.3488 25.9943 21.593C25.9827 21.6033 25.9756 21.6178 25.9747 21.6333C25.9738 21.6488 25.9791 21.664 25.9894 21.6756C25.9997 21.6872 26.0141 21.6943 26.0296 21.6952C26.0451 21.6961 26.0603 21.6908 26.0719 21.6805C26.3307 21.4506 26.7928 21.2261 27.4081 21.0309C27.7971 20.9078 28.135 20.8319 28.2412 20.8092Z" fill="#9B3C82"/>
<path d="M27.991 19.3299C27.9597 18.632 27.9073 17.4639 27.7197 16.31C27.5217 15.0927 27.216 14.1563 26.8098 13.5202C26.8023 13.516 26.7948 13.512 26.7864 13.5087C26.7864 13.5087 26.6879 13.453 26.5742 13.387C27.6717 14.8422 27.8128 17.9838 27.8734 19.3355C27.8802 19.4898 27.8862 19.6242 27.8926 19.7335C27.9321 19.7204 27.9702 19.7073 28.0074 19.6944C28.0027 19.5914 27.9974 19.4692 27.991 19.3299Z" fill="#FCB6B1"/>
<path d="M38.5457 19.2182L38.5403 19.2217C38.3258 19.4012 38.1226 19.594 37.9321 19.7988C37.9214 19.8101 37.9156 19.8251 37.916 19.8406C37.9165 19.8562 37.923 19.8709 37.9343 19.8816C37.9455 19.8922 37.9606 19.898 37.9761 19.8976C37.9916 19.8972 38.0063 19.8906 38.017 19.8793C38.2027 19.68 38.4007 19.4924 38.6096 19.3175C38.5887 19.2844 38.5674 19.2513 38.5457 19.2182Z" fill="#9B3C82"/>
</g>
<g clip-path="url(#clip3_2902_16483)">
<path d="M40.4228 16.4262C38.0934 16.1545 36.3719 14.1294 36.48 11.7874L36.7773 5.33576L46.5277 6.47314L45.3321 12.82C44.8959 15.1237 42.7543 16.7005 40.4228 16.4262Z" fill="#FFCF2D"/>
<path d="M42.1558 22.3677L37.3691 21.8093L39.4711 19.8036L39.9105 16.0366L41.0089 16.1647L40.5695 19.9318L42.1558 22.3677ZM36.7547 21.7377L42.7678 22.4391C42.954 22.4608 43.0876 22.6296 43.0659 22.8156L43.0201 23.2086C42.9984 23.3946 42.8295 23.5281 42.6433 23.5064L36.6302 22.805C36.444 22.7833 36.3104 22.6145 36.3321 22.4284L36.378 22.0355C36.402 21.8497 36.5685 21.7159 36.7547 21.7377ZM44.1629 13.3107C43.7138 13.2583 43.3528 13.0771 43.1146 12.7736C42.7607 12.3293 42.7251 11.684 43.0082 10.9558C43.2839 10.2502 43.8328 9.54821 44.5552 8.97723C45.2775 8.40626 46.0898 8.03434 46.8384 7.92603C47.6107 7.81578 48.2307 8.00123 48.582 8.44761C48.9332 8.89398 48.9714 9.53717 48.6883 10.2654C48.4126 10.971 47.8614 11.6727 47.1414 12.244C46.4214 12.8152 45.609 13.1871 44.8584 13.2928C44.63 13.3298 44.3959 13.3355 44.1629 13.3107ZM47.5106 8.14822C47.2986 8.12585 47.0856 8.13164 46.8743 8.16356C46.1644 8.26459 45.3941 8.6202 44.7055 9.16447C44.0167 9.71107 43.4907 10.378 43.2315 11.0431C42.9794 11.6878 43.0033 12.2515 43.3037 12.6283C43.6041 13.0051 44.1451 13.1601 44.8309 13.0634C45.5409 12.9623 46.3112 12.6067 46.9998 12.0625C47.6883 11.5182 48.2146 10.8489 48.4738 10.1838C48.7259 9.53917 48.702 8.97543 48.4016 8.59862C48.2022 8.34674 47.8946 8.19301 47.5106 8.14822ZM37.5005 12.5335C37.2681 12.5041 37.0415 12.4446 36.8251 12.3581C36.119 12.0825 35.4167 11.5315 34.8449 10.8119C34.2731 10.0924 33.9008 9.28057 33.7949 8.53049C33.6844 7.75866 33.8699 7.13921 34.3145 6.78567C34.759 6.43213 35.4048 6.39668 36.1336 6.67968C36.8397 6.95532 37.5421 7.50628 38.1138 8.22586C38.6854 8.94776 39.058 9.75723 39.1639 10.5073C39.2743 11.2791 39.0889 11.8986 38.642 12.2519C38.3403 12.4924 37.9473 12.5857 37.5005 12.5335ZM35.4309 6.73912C35.0446 6.69406 34.7125 6.77082 34.4604 6.97004C34.0813 7.26758 33.9284 7.81069 34.0253 8.49609C34.1265 9.20555 34.4825 9.97538 35.0273 10.6635C35.5721 11.3517 36.242 11.8776 36.9076 12.1368C37.5528 12.3888 38.1169 12.365 38.4939 12.0649C38.871 11.7648 39.026 11.2242 38.9291 10.5388C38.8278 9.82938 38.4718 9.05955 37.927 8.37141C37.382 7.68559 36.7142 7.16223 36.0465 6.90051C35.8506 6.82108 35.6423 6.76615 35.4309 6.73912Z" fill="#FFCF2D"/>
<path d="M38.1825 15.5051C38.8091 15.9977 39.575 16.3274 40.4217 16.4286C42.7511 16.7003 44.8949 15.1261 45.3287 12.8221L46.523 6.48683L46.5246 6.47288C46.5246 6.47288 45.2658 12.6945 42.9148 14.65C41.2773 16.0098 39.2259 15.7611 38.1825 15.5051Z" fill="#FFBD11"/>
<path d="M41.4388 8.92478L41.7765 9.8716C41.7943 9.92082 41.835 9.9562 41.8828 9.97121L42.855 10.2307C42.9397 10.2524 42.9887 10.3383 42.967 10.4229C42.9583 10.4573 42.9385 10.4856 42.9102 10.5059L42.1144 11.1201C42.0731 11.1507 42.0506 11.2022 42.0542 11.2522L42.1093 12.2556C42.1135 12.3409 42.0482 12.4158 41.9628 12.42C41.9271 12.4229 41.893 12.4118 41.8646 12.392L41.0346 11.8238C40.9931 11.7954 40.9372 11.7889 40.8903 11.807L39.9518 12.1689C39.8704 12.1995 39.7805 12.1607 39.7499 12.0794C39.7372 12.0472 39.7366 12.0118 39.7453 11.9775L40.0276 11.0134C40.0429 10.9633 40.0325 10.9103 39.9994 10.8711L39.3663 10.0901C39.3129 10.0226 39.322 9.92468 39.3898 9.86895C39.416 9.84609 39.4502 9.83594 39.4836 9.83276L40.4895 9.80396C40.5415 9.80295 40.5871 9.77528 40.6158 9.73149L41.1624 8.88782C41.2086 8.81543 41.3078 8.79401 41.38 8.84249C41.4057 8.86435 41.426 8.89265 41.4388 8.92478ZM37.3724 21.8049L42.1545 22.3628L42.0703 22.2351L37.4837 21.7001L37.3724 21.8049Z" fill="#FFBD11"/>
</g>
<g clip-path="url(#clip4_2902_16483)">
<path d="M44.5319 15.5644C44.5191 15.5602 44.4464 15.5282 44.4212 15.5142C44.4063 15.506 44.2365 15.3927 44.1839 15.351C44.0729 15.2637 43.9507 15.1555 43.8244 15.0338L43.8053 15.0154C43.6358 14.8521 43.4593 14.6639 43.2924 14.4717C43.1292 14.2852 42.977 14.0958 42.8469 13.9176L42.825 13.8875C42.8173 13.8768 42.8096 13.8663 42.8017 13.8556L42.797 13.8502L42.7944 13.8467C42.7285 13.7534 42.67 13.6643 42.621 13.582C42.6194 13.579 42.6175 13.5762 42.6161 13.5736C42.6093 13.5624 42.6031 13.5503 42.5968 13.5407C42.4786 13.3336 42.4263 13.1743 42.4802 13.1062C42.5625 13.0022 42.8998 13.1034 43.2556 13.2982C43.2966 13.3215 43.3379 13.3448 43.3791 13.3681C43.4178 13.3915 43.4563 13.4148 43.4943 13.4411C43.5087 13.4505 43.5232 13.4603 43.5374 13.4701C43.6327 13.5345 43.724 13.6046 43.8109 13.68C43.8396 13.7048 43.8676 13.7303 43.8948 13.7565C43.9181 13.7798 43.9414 13.8017 43.9636 13.825C43.996 13.8583 44.0271 13.8923 44.0568 13.9272C44.2291 14.1253 44.3742 14.3454 44.4886 14.5818C44.5231 14.6518 44.5531 14.7217 44.5797 14.7901C44.731 15.1772 44.7531 15.4974 44.652 15.5616C44.6252 15.5814 44.5837 15.5807 44.5319 15.5644Z" fill="#F4ADA2"/>
<path d="M46.3303 17.209C46.4721 16.1868 46.3383 15.2831 46.0221 14.3817C45.7538 13.617 44.429 13.9223 44.1173 14.4088C43.8056 14.8952 43.6867 15.983 43.5198 16.1397C43.3051 16.3405 43.0918 16.8116 43.4499 17.372C43.9278 18.1246 46.1858 18.2519 46.3303 17.209Z" fill="#F4ADA2"/>
<path d="M44.9749 13.9689C44.9749 13.9689 44.6232 13.4857 44.5698 13.4358C43.9133 12.8175 43.4995 12.1216 43.641 11.9586C43.8221 11.7501 44.6824 12.3725 44.9593 12.6407C45.5855 13.2238 45.758 13.6436 46.0231 14.3817" fill="#F4ADA2"/>
<path d="M44.49 15.1429C44.3926 15.059 44.3035 14.5366 44.203 14.3379C44.1137 14.1625 43.8925 13.9043 43.7216 13.7026C43.2654 13.196 43.0747 12.8072 43.0743 12.8068C42.9775 12.6265 42.939 12.4889 42.9878 12.4271C43.1148 12.2664 43.8522 12.5953 44.3189 13.0018C44.8194 13.4353 45.0854 14.0678 45.1581 14.3136C45.6102 15.7693 44.5077 15.1583 44.49 15.1429ZM43.9056 16.3897C43.7164 16.2392 43.5373 16.0766 43.3694 15.9027C43.2479 15.7794 43.1253 15.6462 43.0066 15.5119C42.9754 15.476 42.9442 15.4398 42.9134 15.4037C42.9128 15.4031 42.9123 15.4025 42.912 15.4018C42.9055 15.3943 42.0646 14.2709 42.1786 14.1266C42.2509 14.0349 42.522 14.1032 42.8281 14.253C42.9274 14.3019 43.0242 14.3559 43.1181 14.4146C43.1414 14.4297 43.1663 14.4451 43.1901 14.4612C43.2294 14.487 43.2683 14.5139 43.3067 14.5417C43.3766 14.5925 43.4466 14.6462 43.5088 14.7012C43.6157 14.7949 43.7148 14.8971 43.8051 15.007C43.8161 15.0198 43.8265 15.0328 43.8368 15.0459C43.9747 15.2193 44.0929 15.4075 44.189 15.607C44.1928 15.6145 44.4688 16.5093 44.3508 16.583C44.2758 16.6304 44.1117 16.5488 43.9056 16.3897Z" fill="#F4ADA2"/>
<path d="M45.1141 14.0013C45.1259 14.0089 45.1399 14.0122 45.1539 14.0108C45.1679 14.0094 45.1809 14.0033 45.191 13.9936C45.2011 13.9838 45.2075 13.9709 45.2094 13.957C45.2112 13.9431 45.2083 13.9289 45.2011 13.9169C44.7784 13.2095 44.0135 12.6109 43.7361 12.4063C43.7957 12.5146 43.862 12.619 43.9347 12.7189L43.9322 12.7172C44.2779 12.9994 44.7861 13.4649 45.0943 13.9799C45.0992 13.9884 45.1059 13.9958 45.1141 14.0013ZM44.7451 14.6919C44.7567 14.6992 44.7704 14.7025 44.7841 14.7013C44.7978 14.7 44.8107 14.6942 44.8208 14.6848C44.8309 14.6755 44.8375 14.663 44.8398 14.6494C44.842 14.6358 44.8397 14.6219 44.8332 14.6098C44.4879 13.9726 43.7142 13.4269 43.2654 13.1265C43.3391 13.2329 43.4195 13.3397 43.4986 13.4397C43.9212 13.7429 44.4623 14.1881 44.7229 14.6693C44.7282 14.6786 44.7358 14.6865 44.7451 14.6919ZM44.1567 15.5753C44.1677 15.5823 44.1807 15.5856 44.1937 15.5848C44.2068 15.584 44.2192 15.5791 44.2293 15.5708C44.2394 15.5626 44.2467 15.5513 44.2501 15.5387C44.2534 15.526 44.2527 15.5127 44.2481 15.5004C44.0126 14.8941 43.4832 14.4906 43.0703 14.2108C43.261 14.4416 43.4151 14.6105 43.454 14.6539C43.7284 14.8871 43.9902 15.1788 44.132 15.5462C44.1369 15.5582 44.1455 15.5685 44.1567 15.5753ZM43.4986 17.3359C43.0426 16.6975 43.5403 16.2052 43.5617 16.1845C43.5677 16.1788 43.5724 16.1719 43.5757 16.1644C43.579 16.1568 43.5807 16.1487 43.5809 16.1405C43.581 16.1322 43.5795 16.124 43.5764 16.1164C43.5734 16.1087 43.5689 16.1017 43.5631 16.0958L43.2577 15.785C43.252 15.7792 43.2452 15.7745 43.2377 15.7713C43.2302 15.7681 43.2222 15.7665 43.214 15.7664C43.2059 15.7663 43.1978 15.7678 43.1902 15.7709C43.1827 15.7739 43.1758 15.7784 43.17 15.7842C43.1642 15.7899 43.1595 15.7967 43.1563 15.8042C43.1531 15.8117 43.1515 15.8197 43.1514 15.8279C43.1513 15.836 43.1528 15.8441 43.1559 15.8517C43.1589 15.8593 43.1634 15.8661 43.1692 15.872L43.4331 16.1409C43.3495 16.2401 43.284 16.3533 43.2398 16.4753C43.1622 16.6913 43.1267 17.0287 43.3976 17.4082C43.4023 17.4146 43.4081 17.4202 43.4149 17.4245C43.4271 17.4321 43.4415 17.4353 43.4558 17.4335C43.47 17.4317 43.4832 17.425 43.4931 17.4145C43.503 17.4041 43.5089 17.3906 43.51 17.3762C43.511 17.3619 43.5071 17.3476 43.4988 17.3359H43.4986Z" fill="#9B3C82"/>
</g>
<g clip-path="url(#clip5_2902_16483)">
<path d="M39.7528 22.723C39.4931 22.5056 39.1125 22.2842 38.7524 22.0722H38.7545C38.8366 22.08 39.0581 22.1313 39.1285 22.1402C39.6969 22.217 40.5273 22.2252 39.605 21.6398C39.5815 21.6246 39.0283 21.3617 38.8073 21.2755C37.5861 20.8068 36.2575 20.6147 34.9235 20.6126C33.7119 20.6105 34.7895 23.9662 35.7516 23.7516C36.7947 23.5174 37.5746 23.9334 38.4896 24.1733C39.4046 24.4132 39.2953 24.0217 38.2785 23.4377C38.3542 23.4665 38.6733 23.5881 38.7946 23.6216C39.4365 23.8301 40.3823 24.0711 39.8187 23.4478C39.8187 23.4478 39.9048 23.4618 39.9944 23.4712C40.2511 23.4921 40.6117 23.4333 39.7558 22.7237L39.7528 22.723Z" fill="#F4ADA2"/>
<path d="M37.7025 21.6011C37.6954 21.599 37.688 21.5983 37.6807 21.5992C37.6733 21.6 37.6662 21.6023 37.6598 21.6059C37.6533 21.6096 37.6477 21.6145 37.6432 21.6203C37.6387 21.6262 37.6354 21.6329 37.6336 21.64C37.6318 21.6472 37.6314 21.6547 37.6325 21.662C37.6336 21.6693 37.6362 21.6763 37.6401 21.6825C37.644 21.6888 37.6491 21.6942 37.6552 21.6985C37.6612 21.7027 37.6681 21.7057 37.6753 21.7073C37.6831 21.7096 38.2694 21.8553 38.7578 22.0734C38.8812 22.1028 39.006 22.1255 39.1318 22.1416C38.6182 21.8291 37.7403 21.61 37.7025 21.6011ZM39.9734 23.4288C39.3711 22.9294 38.2703 22.4098 37.4644 22.2482C37.4574 22.2467 37.4502 22.2466 37.4432 22.2479C37.4362 22.2493 37.4295 22.252 37.4236 22.256C37.4176 22.26 37.4125 22.2651 37.4086 22.2711C37.4047 22.2771 37.4021 22.2838 37.4008 22.2908C37.3992 22.2979 37.3991 22.3052 37.4003 22.3123C37.4016 22.3194 37.4043 22.3262 37.4082 22.3323C37.4122 22.3384 37.4173 22.3436 37.4232 22.3477C37.4292 22.3518 37.436 22.3547 37.443 22.3561C38.183 22.5047 39.2186 22.9861 39.8171 23.4483C39.8853 23.4623 39.9547 23.4702 40.0243 23.4717C40.0062 23.4588 39.9891 23.4445 39.9734 23.4288ZM37.2661 22.9746C37.2619 22.9885 37.2631 23.0035 37.2695 23.0165C37.2759 23.0295 37.287 23.0397 37.3006 23.0449C37.3086 23.047 37.8403 23.2163 38.2846 23.4431C38.3726 23.4754 38.6032 23.5626 38.797 23.6239C38.4207 23.2876 37.3785 22.9528 37.3363 22.9383C37.3293 22.9359 37.3219 22.935 37.3145 22.9356C37.3071 22.9361 37.3 22.9382 37.2934 22.9415C37.2868 22.9449 37.281 22.9496 37.2763 22.9553C37.2716 22.961 37.268 22.9675 37.2659 22.9746H37.2661Z" fill="#9B3C82"/>
</g>
<g clip-path="url(#clip6_2902_16483)">
<path d="M40.3474 41.6307C40.3 41.6234 40.2536 41.6109 40.2089 41.5935C39.859 41.4576 39.5917 40.982 39.6553 40.2945C39.4665 40.4749 39.2527 40.5841 39.0514 40.4615C38.6834 40.2359 38.6955 39.3143 38.9733 38.7675C38.9864 38.7416 39.0093 38.722 39.0368 38.713C39.0643 38.704 39.0943 38.7064 39.12 38.7196C39.1458 38.7328 39.1653 38.7557 39.1743 38.7834C39.1832 38.811 39.1809 38.8411 39.1677 38.867C39.0412 39.1342 38.9793 39.4277 38.987 39.7235C38.993 39.9957 39.0627 40.212 39.1645 40.2743C39.2853 40.3487 39.5027 40.1914 39.7459 39.8541C39.7607 39.8333 39.7823 39.8183 39.8069 39.8117C39.8316 39.8052 39.8577 39.8076 39.8808 39.8185C39.9038 39.8294 39.9224 39.8481 39.9331 39.8713C39.9439 39.8945 39.9461 39.9208 39.9396 39.9455C39.7914 40.5214 39.8631 41.223 40.2882 41.3893C40.597 41.5106 40.9695 41.2449 41.2597 40.6969C41.2738 40.6722 41.297 40.6539 41.3242 40.646C41.3515 40.6381 41.3808 40.6412 41.4058 40.6546C41.4309 40.668 41.4497 40.6907 41.4584 40.7179C41.467 40.745 41.4648 40.7745 41.4522 40.8C41.2738 41.1365 41.0701 41.3763 40.8483 41.513C40.7006 41.611 40.523 41.6527 40.3474 41.6307Z" fill="#FFCF2D"/>
</g>
<g clip-path="url(#clip7_2902_16483)">
<path d="M12.224 26.2195C12.2599 26.2269 12.2965 26.2304 12.3332 26.2298C12.6201 26.2262 12.9376 25.9585 13.0738 25.4517C13.1616 25.6305 13.2861 25.7652 13.4629 25.7315C13.7866 25.6687 14.0216 25.0088 13.9669 24.5453C13.9643 24.5233 13.9531 24.5033 13.9358 24.4896C13.9184 24.4758 13.8963 24.4695 13.8743 24.4721C13.8523 24.4746 13.8322 24.4858 13.8185 24.5031C13.8048 24.5204 13.7985 24.5425 13.8011 24.5644C13.8212 24.7885 13.788 25.0141 13.7043 25.2228C13.628 25.4151 13.5208 25.5507 13.4312 25.568C13.3249 25.5889 13.2105 25.4189 13.1253 25.1138C13.1202 25.095 13.1087 25.0786 13.0927 25.0674C13.0768 25.0562 13.0574 25.0509 13.0379 25.0525C13.0185 25.0542 13.0003 25.0625 12.9864 25.0762C12.9726 25.0899 12.964 25.108 12.9622 25.1274C12.9162 25.5771 12.6792 26.058 12.3303 26.0632C12.0766 26.0674 11.8797 25.779 11.8164 25.3112C11.8128 25.2899 11.801 25.2707 11.7836 25.2578C11.7661 25.2449 11.7443 25.2393 11.7228 25.2422C11.7013 25.2451 11.6817 25.2563 11.6683 25.2733C11.655 25.2903 11.6487 25.3119 11.651 25.3335C11.69 25.6207 11.7728 25.8458 11.8958 26.0023C11.9758 26.1114 12.0922 26.1884 12.224 26.2195Z" fill="#21A0AA"/>
</g>
<g clip-path="url(#clip8_2902_16483)">
<path d="M46.5703 26.73C46.6016 26.73 46.6331 26.729 46.6649 26.7272C47.0929 26.7021 47.5779 26.4548 47.793 26.1519C47.9015 25.999 47.9356 25.8407 47.8913 25.6942C47.8885 25.6847 47.8838 25.6758 47.8775 25.668C47.8712 25.6603 47.8633 25.6538 47.8545 25.649C47.8456 25.6443 47.8359 25.6413 47.8258 25.6402C47.8158 25.6392 47.8057 25.6401 47.796 25.643C47.7863 25.6458 47.7773 25.6505 47.7695 25.6568C47.7617 25.6631 47.7552 25.6709 47.7504 25.6796C47.7457 25.6884 47.7427 25.698 47.7417 25.7079C47.7407 25.7178 47.7418 25.7278 47.7447 25.7374C47.7756 25.8395 47.7497 25.9499 47.6676 26.0654C47.4799 26.3298 47.0354 26.5544 46.6558 26.5766C46.1933 26.6037 45.8812 26.4199 45.8222 26.2332C45.8207 26.2284 45.8194 26.2236 45.8182 26.2188C45.9401 26.214 46.0609 26.1943 46.1778 26.16C46.4678 26.0754 46.6545 25.938 46.6768 25.792C46.6825 25.7592 46.6782 25.7254 46.6644 25.6949C46.6506 25.6645 46.628 25.6387 46.5994 25.6209C46.4698 25.5357 46.2261 25.5803 45.9634 25.7373C45.8077 25.8304 45.7087 25.944 45.6733 26.0651C45.4138 26.0463 45.1979 25.9492 45.087 25.8277C45.0552 25.7955 45.033 25.7554 45.0229 25.7116C45.0128 25.6678 45.015 25.6221 45.0295 25.5796C45.0795 25.4373 45.2577 25.3302 45.5183 25.2859C45.5282 25.2842 45.5377 25.2806 45.5461 25.2754C45.5546 25.2701 45.562 25.2632 45.5678 25.2551C45.5736 25.247 45.5777 25.2378 45.5799 25.2282C45.5821 25.2185 45.5824 25.2085 45.5807 25.1988C45.579 25.189 45.5754 25.1796 45.57 25.1713C45.5646 25.1629 45.5576 25.1556 45.5494 25.1499C45.5412 25.1442 45.532 25.1401 45.5222 25.138C45.5124 25.1358 45.5022 25.1355 45.4923 25.1372C45.0581 25.211 44.9254 25.415 44.8849 25.5301C44.8616 25.5982 44.8576 25.6713 44.8731 25.7415C44.8887 25.8117 44.9233 25.8764 44.9733 25.9286C45.1094 26.0776 45.361 26.1944 45.6622 26.2162C45.6652 26.2371 45.6699 26.2578 45.6763 26.278C45.7613 26.5474 46.1296 26.7299 46.5703 26.73ZM46.4331 25.7289C46.4614 25.7271 46.4896 25.7332 46.5145 25.7465C46.5188 25.7484 46.5223 25.7518 46.5243 25.756C46.5263 25.7602 46.5268 25.7649 46.5256 25.7694C46.5171 25.8249 46.4059 25.9362 46.1344 26.0153C46.0373 26.0437 45.9373 26.0609 45.8362 26.0665C45.8703 25.9959 45.94 25.9278 46.0427 25.8664C46.2158 25.7629 46.3496 25.7289 46.4331 25.7289Z" fill="#66B0F0"/>
</g>
<g clip-path="url(#clip9_2902_16483)">
<path d="M16.3571 30.0102C16.3762 29.9873 16.3962 29.9648 16.417 29.9426C16.6972 29.6448 17.1753 29.4414 17.529 29.4697C17.7075 29.484 17.8445 29.5561 17.9248 29.6783C17.9301 29.6862 17.9338 29.6951 17.9356 29.7045C17.9374 29.7139 17.9374 29.7235 17.9354 29.733C17.9335 29.7424 17.9298 29.7513 17.9244 29.7593C17.919 29.7673 17.9121 29.7741 17.9041 29.7795C17.8961 29.7848 17.8872 29.7885 17.8778 29.7904C17.8684 29.7923 17.8587 29.7922 17.8494 29.7904C17.84 29.7885 17.8311 29.7847 17.8233 29.7794C17.8154 29.774 17.8087 29.7671 17.8035 29.7591C17.7475 29.6739 17.6507 29.6252 17.5158 29.6145C17.207 29.5898 16.7704 29.7774 16.5219 30.0417C16.2191 30.3635 16.163 30.7046 16.2638 30.8622C16.2664 30.8662 16.2691 30.8701 16.2719 30.874C16.35 30.7877 16.4384 30.7114 16.5351 30.6468C16.7745 30.4864 16.9895 30.4341 17.1102 30.5072C17.1378 30.5232 17.1599 30.5471 17.1738 30.5758C17.1877 30.6046 17.1927 30.6369 17.1883 30.6687C17.1715 30.8158 16.9897 30.9668 16.7139 31.0628C16.5504 31.1197 16.4065 31.1225 16.296 31.0742C16.1511 31.2757 16.0902 31.4932 16.1115 31.6489C16.1156 31.6918 16.1315 31.7327 16.1574 31.7669C16.1833 31.8012 16.2182 31.8275 16.2583 31.843C16.3932 31.8936 16.5808 31.8289 16.7727 31.6653C16.78 31.6591 16.7884 31.6544 16.7975 31.6514C16.8065 31.6484 16.8161 31.6473 16.8256 31.648C16.8351 31.6487 16.8443 31.6513 16.8527 31.6556C16.8612 31.6599 16.8687 31.6659 16.8748 31.6731C16.8809 31.6803 16.8855 31.6887 16.8884 31.6978C16.8913 31.7068 16.8923 31.7164 16.8915 31.7259C16.8906 31.7354 16.888 31.7447 16.8836 31.7532C16.8792 31.7617 16.8732 31.7693 16.8659 31.7755C16.5461 32.0481 16.3153 32.0201 16.2061 31.9792C16.142 31.9545 16.0859 31.9127 16.0439 31.8582C16.002 31.8038 15.9757 31.7388 15.9679 31.6702C15.9419 31.4793 16.0101 31.2235 16.1784 30.9897C16.1649 30.9747 16.1526 30.9586 16.1417 30.9415C15.9961 30.7141 16.0876 30.3327 16.3571 30.0102ZM17.0074 30.7243C17.026 30.7046 17.0388 30.6803 17.0443 30.6539C17.0455 30.6496 17.0452 30.645 17.0433 30.6409C17.0415 30.6368 17.0383 30.6336 17.0342 30.6317C16.9883 30.604 16.8387 30.6171 16.6146 30.7673C16.5344 30.8209 16.4606 30.8836 16.3946 30.9541C16.4673 30.9725 16.5599 30.9632 16.6677 30.9257C16.8495 30.8625 16.9563 30.7854 17.0074 30.7243Z" fill="#F94F46"/>
</g>
<g clip-path="url(#clip10_2902_16483)">
<path d="M17.9952 12.2017C17.9669 12.2185 17.9378 12.2346 17.908 12.25C17.5066 12.4572 16.9333 12.4928 16.5748 12.3325C16.3938 12.2516 16.2774 12.1258 16.2385 11.9686C16.2358 11.9583 16.2353 11.9477 16.2368 11.9372C16.2384 11.9268 16.242 11.9167 16.2474 11.9076C16.2529 11.8985 16.2601 11.8905 16.2686 11.8842C16.2772 11.8778 16.2869 11.8732 16.2972 11.8706C16.3075 11.868 16.3182 11.8674 16.3287 11.869C16.3391 11.8705 16.3492 11.8741 16.3583 11.8795C16.3673 11.8849 16.3752 11.8921 16.3814 11.9006C16.3877 11.9091 16.3922 11.9188 16.3946 11.929C16.4218 12.0387 16.5049 12.1252 16.6416 12.1863C16.9547 12.3262 17.4789 12.2918 17.8349 12.1079C18.2688 11.884 18.4524 11.5488 18.4051 11.3471C18.4038 11.342 18.4024 11.3369 18.401 11.3319C18.2879 11.393 18.1677 11.44 18.0432 11.4716C17.7346 11.5505 17.4912 11.5256 17.3921 11.4048C17.3692 11.3779 17.3549 11.3448 17.3509 11.3096C17.347 11.2745 17.3536 11.2389 17.3699 11.2073C17.4414 11.06 17.6864 10.9697 18.0092 10.9714C18.2006 10.9725 18.3517 11.0228 18.4492 11.114C18.6743 10.9573 18.8175 10.7529 18.8525 10.5826C18.8639 10.5362 18.8623 10.4877 18.8479 10.4424C18.8334 10.3971 18.8067 10.3567 18.7706 10.3257C18.6484 10.2231 18.4291 10.2213 18.1689 10.321C18.159 10.3248 18.1485 10.3267 18.1379 10.3264C18.1274 10.3262 18.117 10.3238 18.1074 10.3196C18.0978 10.3153 18.0891 10.3092 18.0819 10.3016C18.0746 10.294 18.069 10.285 18.0653 10.2752C18.0615 10.2654 18.0598 10.2549 18.0601 10.2444C18.0605 10.2339 18.0629 10.2236 18.0672 10.2139C18.0716 10.2043 18.0778 10.1956 18.0855 10.1884C18.0932 10.1811 18.1022 10.1754 18.1121 10.1716C18.5456 10.0054 18.7761 10.1199 18.8749 10.203C18.9328 10.2525 18.9759 10.3168 18.9997 10.3891C19.0235 10.4614 19.0271 10.539 19.01 10.6134C18.9671 10.8223 18.8022 11.0639 18.5409 11.2456C18.5495 11.2663 18.5564 11.2877 18.5615 11.3095C18.6299 11.6006 18.3947 11.9648 17.9952 12.2017ZM17.5789 11.2162C17.5524 11.2298 17.5301 11.2505 17.5146 11.276C17.5118 11.2801 17.5105 11.285 17.5109 11.2899C17.5113 11.2948 17.5135 11.2994 17.517 11.3029C17.5547 11.3488 17.7156 11.3904 18.0044 11.3165C18.1077 11.2902 18.2077 11.2521 18.3023 11.2029C18.2333 11.1569 18.1333 11.1323 18.0071 11.1316C17.7943 11.1304 17.6546 11.1713 17.5789 11.2162Z" fill="#FFCF2D"/>
</g>
</g>
<defs>
<clipPath id="clip0_2902_16483">
<rect width="60" height="52.25" fill="white" transform="translate(0 4)"/>
</clipPath>
<clipPath id="clip1_2902_16483">
<rect width="3.51589" height="0.703178" fill="white" transform="translate(23.7441 55.5605)"/>
</clipPath>
<clipPath id="clip2_2902_16483">
<rect width="36.2136" height="51.3554" fill="white" transform="translate(10.1719 4.74419)"/>
</clipPath>
<clipPath id="clip3_2902_16483">
<rect width="15.1886" height="17.3685" fill="white" transform="translate(34.1074 5.02441) rotate(6.65345)"/>
</clipPath>
<clipPath id="clip4_2902_16483">
<rect width="4.21907" height="6.04733" fill="white" transform="translate(42.168 11.9166)"/>
</clipPath>
<clipPath id="clip5_2902_16483">
<rect width="5.90669" height="3.63308" fill="white" transform="translate(34.3848 20.6126)"/>
</clipPath>
<clipPath id="clip6_2902_16483">
<rect width="2.69551" height="2.92991" fill="white" transform="translate(38.7695 38.7077)"/>
</clipPath>
<clipPath id="clip7_2902_16483">
<rect width="2.06265" height="2.22673" fill="white" transform="matrix(-0.937514 -0.347948 -0.347948 0.937514 14.1289 24.5569)"/>
</clipPath>
<clipPath id="clip8_2902_16483">
<rect width="3.0471" height="1.59387" fill="white" transform="matrix(-1 0 0 1 47.9102 25.1363)"/>
</clipPath>
<clipPath id="clip9_2902_16483">
<rect width="2.90647" height="1.52355" fill="white" transform="translate(18.3457 30.0063) rotate(129.89)"/>
</clipPath>
<clipPath id="clip10_2902_16483">
<rect width="3.21118" height="1.68763" fill="white" transform="translate(15.9199 11.4707) rotate(-30.6699)"/>
</clipPath>
</defs>
</svg>
