<svg width="16" height="16" viewBox="0 0 16 16" fill="none" xmlns="http://www.w3.org/2000/svg">
<g clip-path="url(#clip0_1495_4506)">
<path d="M6.00004 8.00001L7.33337 9.33334L10.3334 6.33334M11.9342 3.33235C12.0714 3.66437 12.3349 3.92828 12.6667 4.06606L13.8302 4.548C14.1622 4.68553 14.426 4.94934 14.5636 5.28138C14.7011 5.61343 14.7011 5.98651 14.5636 6.31855L14.082 7.48121C13.9444 7.8134 13.9442 8.18686 14.0824 8.51889L14.5632 9.68121C14.6313 9.84566 14.6664 10.0219 14.6665 10.2C14.6665 10.378 14.6315 10.5543 14.5633 10.7188C14.4952 10.8833 14.3953 11.0327 14.2694 11.1586C14.1435 11.2844 13.9941 11.3843 13.8296 11.4523L12.6669 11.9339C12.3349 12.0712 12.071 12.3347 11.9333 12.6665L11.4513 13.83C11.3138 14.1621 11.05 14.4259 10.718 14.5634C10.3859 14.7009 10.0129 14.701 9.68085 14.5634L8.51823 14.0818C8.18619 13.9446 7.81326 13.9449 7.48142 14.0826L6.31797 14.5638C5.98612 14.7011 5.61338 14.7009 5.28162 14.5635C4.94986 14.4261 4.68621 14.1626 4.54858 13.8309L4.06652 12.6671C3.92924 12.3351 3.66574 12.0711 3.33394 11.9334L2.17048 11.4514C1.8386 11.3139 1.57488 11.0503 1.4373 10.7185C1.29971 10.3866 1.29953 10.0137 1.43678 9.68171L1.91835 8.51904C2.05554 8.18699 2.05526 7.81404 1.91757 7.4822L1.43669 6.31787C1.36851 6.15341 1.3334 5.97713 1.33337 5.7991C1.33335 5.62107 1.3684 5.44478 1.43652 5.2803C1.50465 5.11582 1.60452 4.96638 1.73042 4.84051C1.85632 4.71465 2.00579 4.61482 2.17028 4.54675L3.33291 4.06515C3.66462 3.92799 3.92836 3.66481 4.06624 3.33338L4.54816 2.16988C4.68569 1.83784 4.94949 1.57403 5.28152 1.4365C5.61355 1.29896 5.98662 1.29896 6.31865 1.4365L7.48127 1.91809C7.81331 2.05529 8.18624 2.055 8.51808 1.91731L9.68202 1.43724C10.014 1.29978 10.387 1.29981 10.719 1.43732C11.0509 1.57483 11.3147 1.83856 11.4522 2.17052L11.9343 3.33436L11.9342 3.33235Z" stroke="#667085" stroke-linecap="round" stroke-linejoin="round"/>
</g>
<defs>
<clipPath id="clip0_1495_4506">
<rect width="16" height="16" fill="white"/>
</clipPath>
</defs>
</svg>
