<svg width="16" height="16" viewBox="0 0 16 16" fill="none" xmlns="http://www.w3.org/2000/svg">
<path opacity="0.28" d="M8.00008 14.1001C11.369 14.1001 14.1001 11.3691 14.1001 8.00015C14.1001 4.63121 11.369 1.90015 8.00008 1.90015C4.63115 1.90015 1.90009 4.63121 1.90009 8.00015C1.90009 11.3691 4.63115 14.1001 8.00008 14.1001Z" fill="#17B26A"/>
<path d="M5.66669 8.34165L7.22748 9.90078C7.97817 8.58814 9.01706 7.46305 10.2658 6.61032L10.3334 6.56421M14.1001 8.00015C14.1001 11.3691 11.369 14.1001 8.00008 14.1001C4.63115 14.1001 1.90009 11.3691 1.90009 8.00015C1.90009 4.63121 4.63115 1.90015 8.00008 1.90015C11.369 1.90015 14.1001 4.63121 14.1001 8.00015Z" stroke="#17B26A" stroke-linecap="round" stroke-linejoin="round"/>
</svg>
