<svg width="60" height="53" viewBox="0 0 60 53" fill="none" xmlns="http://www.w3.org/2000/svg">
<g clip-path="url(#clip0_2902_38165)">
<path d="M18.9046 65.5593C18.9046 65.5593 23.6478 38.7538 27.8436 59.5874C27.8436 59.5874 26.8144 41.0541 32.4213 43.9843C38.0281 46.9145 38.7892 73.7255 38.7892 73.7255C38.7892 73.7255 28.3528 68.6532 24.4732 72.4613C24.4732 72.4613 21.6889 70.429 17.8789 70.2092L18.9046 65.5593Z" fill="#3FB1B5"/>
</g>
<g clip-path="url(#clip1_2902_38165)">
<path d="M34.0938 46.5058C34.0938 46.5058 38.5107 21.5789 42.4178 40.9524C42.4178 40.9524 41.4595 23.7181 46.6806 26.4429C51.9017 29.1677 52.6104 54.0996 52.6104 54.0996C52.6104 54.0996 42.892 49.3828 39.2793 52.9241C39.2793 52.9241 36.6866 51.0342 33.1387 50.8298L34.0938 46.5058Z" fill="#3FB1B5"/>
</g>
<g clip-path="url(#clip2_2902_38165)">
<path d="M33.5 44.5433C34.8845 44.3159 36.0417 43.9025 37.5916 43.0551C39.1414 42.2076 41.0425 40.8021 41.7451 41.7529C42.9994 43.4499 38.9554 45.9074 33.5 44.5433Z" fill="#5B2448"/>
<path d="M38.1287 42.929C38.1287 42.929 38.0626 43.4251 37.9655 44.103C37.9303 44.3407 37.8931 44.5991 37.8518 44.8657C37.8477 44.8905 37.8456 44.9133 37.8415 44.936C37.6968 45.8868 37.5232 46.9327 37.3848 47.4804C37.3786 47.5073 37.3703 47.5341 37.3641 47.5569C37.0748 48.6317 33.7892 47.3708 33.7272 46.6474C33.6817 46.1059 33.6342 45.6574 33.597 45.3163C33.5908 45.2646 33.5846 45.215 33.5805 45.1675C33.5329 44.7582 33.502 44.5391 33.502 44.5391L38.1287 42.929Z" fill="#F4ADA2"/>
<path d="M38.1287 42.929C38.1287 42.929 38.0626 43.4251 37.9655 44.103C37.0356 44.4709 35.1344 44.8099 33.502 44.5412L38.1287 42.929Z" fill="#9B3C82"/>
<path d="M13.1203 49.9049C13.1864 47.8711 13.6472 46.9885 14.0957 45.8248C14.3023 45.2874 16.0092 42.805 14.9222 41.9389C13.8064 41.0501 11.0373 43.8198 13.1203 49.9049Z" fill="#5B2448"/>
<path d="M14.0952 45.8248L13.1198 49.9049C13.1198 49.9049 12.4606 49.6052 11.6547 49.227C10.6463 48.7516 9.41053 48.1522 8.94972 47.8504C7.99915 47.2303 9.93954 44.8616 11.0368 45.184C11.6154 45.3535 12.1548 45.4817 12.6135 45.5767C12.7127 45.5974 12.8078 45.616 12.8987 45.6346C12.9751 45.6491 13.0495 45.6636 13.1198 45.676C13.7211 45.7855 14.0952 45.8248 14.0952 45.8248Z" fill="#F4ADA2"/>
<path d="M13.1195 49.9049C12.8178 49.1836 12.5161 47.6954 12.8984 45.6346C12.9748 45.6491 13.0492 45.6636 13.1195 45.676C13.7208 45.7855 14.0949 45.8248 14.0949 45.8248C14.0949 45.8248 14.1672 49.8656 13.1195 49.9049Z" fill="#9B3C82"/>
<path d="M12.6135 45.5767L11.6547 49.227C10.6463 48.7516 9.41053 48.1522 8.94972 47.8504C7.99915 47.2303 9.93954 44.8616 11.0368 45.184C11.6154 45.3535 12.1548 45.4817 12.6135 45.5767Z" fill="#66B0F0"/>
<path d="M11.7072 45.368L10.7422 48.7908C10.8042 48.8218 10.8682 48.8508 10.9302 48.8818L11.9056 45.4176C11.8415 45.4011 11.7733 45.3845 11.7072 45.368Z" fill="white"/>
<path d="M37.8514 44.8678C37.8473 44.8926 37.8452 44.9153 37.8411 44.9381C37.6964 45.8889 37.5229 46.9347 37.3844 47.4825C37.3782 47.5093 37.3699 47.5362 37.3637 47.5589C37.0744 48.6338 33.7888 47.3729 33.7268 46.6495C33.6813 46.108 33.6338 45.6594 33.5966 45.3184C33.5904 45.2667 33.5842 45.2171 33.5801 45.1696L37.8514 44.8678Z" fill="#66B0F0"/>
<path d="M33.6686 46.0273L37.7023 45.8103C37.7126 45.7421 37.725 45.6718 37.7354 45.6015L33.6479 45.8206C33.6562 45.8868 33.6624 45.955 33.6686 46.0273ZM4.53796 51.3869C4.30239 51.0335 4.16393 50.2108 4.58755 48.9707L6.654 42.9476C8.63778 43.9625 10.043 44.7066 11.0349 45.182C10.6422 45.8847 10.1339 45.7731 9.76193 46.3167C9.33004 46.9471 9.47882 47.1683 8.39394 48.6606C8.37741 48.6854 8.36088 48.7102 8.34435 48.733C8.34021 48.7392 8.33608 48.7474 8.32988 48.7536C8.04678 49.1691 7.72441 49.5535 7.36692 49.907C5.98034 51.2588 4.67641 51.3745 4.54623 51.3828H4.53796C4.54003 51.3869 4.53796 51.3869 4.53796 51.3869Z" fill="white"/>
<path d="M4.53854 51.4386C4.522 51.4386 4.50547 51.4303 4.49514 51.4159C4.24097 51.0335 4.11905 50.186 4.5406 48.9541L6.60704 42.9311C6.61531 42.9042 6.64631 42.8897 6.67317 42.898C6.67524 42.898 6.6773 42.9 6.67937 42.9C7.3551 43.2246 8.02049 43.5801 8.66522 43.9232C9.51659 44.3779 10.3204 44.8078 11.0706 45.1241C11.0974 45.1344 11.1098 45.1654 11.0974 45.1923C11.085 45.2192 11.0561 45.2316 11.0292 45.2192C10.275 44.9008 9.46907 44.4709 8.61563 44.0141C7.98949 43.6793 7.3427 43.3341 6.68764 43.0179L4.63772 48.9872C4.23684 50.155 4.33602 50.9591 4.5654 51.3332C4.78651 51.3146 6.0801 51.1554 7.39643 49.8718C7.75185 49.5225 8.07215 49.1381 8.35319 48.7268L8.36765 48.7061C8.37385 48.6978 8.37799 48.6896 8.38418 48.6813C8.39452 48.6648 8.40692 48.6482 8.41725 48.6317C8.64249 48.3196 8.93799 47.8607 9.03718 47.6333C9.04958 47.6065 9.07851 47.5961 9.10537 47.6065C9.13224 47.6189 9.14257 47.6478 9.13224 47.6747C9.02478 47.9186 8.72721 48.3816 8.49991 48.6916C8.48957 48.7061 8.47924 48.7226 8.46891 48.7371C8.46271 48.7454 8.45651 48.7536 8.45238 48.7619L8.43791 48.7826C8.15274 49.2001 7.82831 49.5887 7.46875 49.9421C6.08837 51.2877 4.72452 51.4221 4.55713 51.4345H4.5406C4.5406 51.4386 4.5406 51.4386 4.53854 51.4386Z" fill="#5B2448"/>
<path d="M9.05712 46.5255C9.02819 46.5255 9.00545 46.5027 9.00545 46.4738C9.00545 46.4697 9.00546 46.4676 9.00752 46.4635C9.12944 45.8744 9.06538 45.6904 8.94139 45.3225C8.90833 45.2254 8.87114 45.1138 8.83187 44.9794C8.64383 44.3387 8.76368 44.0948 8.76781 44.0844C8.78021 44.0596 8.81121 44.0493 8.83807 44.0617C8.86287 44.0741 8.8732 44.1051 8.8608 44.1299C8.85874 44.134 8.75955 44.3593 8.93106 44.9484C8.97032 45.0807 9.00752 45.1902 9.04058 45.2874C9.16664 45.6594 9.2369 45.8641 9.11084 46.4821C9.10258 46.5089 9.08191 46.5255 9.05712 46.5255ZM4.93663 51.3745C4.9139 51.3745 4.89324 51.3601 4.88704 51.3373C4.65559 50.5477 4.71759 49.7313 5.07095 48.9087C5.30032 48.3733 5.65575 47.8339 6.12897 47.3088C6.41827 46.9864 6.45753 46.7384 6.49679 46.4965C6.52986 46.2919 6.56499 46.0811 6.74683 45.8372C6.89148 45.645 7.05267 45.5416 7.20972 45.4403C7.41636 45.308 7.61267 45.182 7.77592 44.8575C8.13342 44.1423 7.80692 43.5863 7.80485 43.5801C7.79039 43.5553 7.79865 43.5243 7.82138 43.5098C7.84618 43.4953 7.87718 43.5036 7.89164 43.5263C7.90611 43.5511 8.25327 44.1361 7.86685 44.9029C7.6912 45.2522 7.47422 45.3928 7.26551 45.5271C7.11053 45.6264 6.96381 45.7214 6.82949 45.8992C6.66211 46.1224 6.63111 46.3126 6.59805 46.5131C6.55672 46.7673 6.51333 47.0319 6.20543 47.3771C5.74048 47.8959 5.39125 48.425 5.16601 48.95C4.82298 49.7499 4.76098 50.5436 4.98623 51.3084C4.99449 51.3353 4.97796 51.3642 4.9511 51.3725C4.94696 51.3725 4.94283 51.3745 4.93663 51.3745Z" fill="#5B2448"/>
<path d="M6.79841 45.1943C6.76534 45.1943 6.73228 45.1881 6.69922 45.1778C6.5773 45.1365 6.49257 45.0207 6.45951 44.8533C6.42645 44.6962 6.44505 44.5061 6.50704 44.3221C6.56903 44.1381 6.67235 43.979 6.79428 43.8736C6.92446 43.762 7.06291 43.7227 7.18277 43.7661C7.30262 43.8095 7.38941 43.9232 7.42247 44.0906C7.45554 44.2477 7.43694 44.4358 7.37495 44.6218C7.31295 44.8078 7.20963 44.9649 7.08771 45.0703C6.99265 45.153 6.89346 45.1943 6.79841 45.1943ZM7.08564 43.855C7.01538 43.855 6.93893 43.888 6.86247 43.9542C6.75295 44.0472 6.66202 44.1898 6.60623 44.3572C6.55043 44.5247 6.5339 44.6921 6.56077 44.8326C6.58763 44.9629 6.64962 45.0517 6.73435 45.0807C6.81907 45.1096 6.92239 45.0786 7.02365 44.9918C7.13317 44.8988 7.22409 44.7562 7.27989 44.5887C7.33568 44.4213 7.35221 44.2539 7.32535 44.1133C7.29849 43.9831 7.23649 43.8942 7.15177 43.8653C7.12904 43.8591 7.10837 43.855 7.08564 43.855Z" fill="#5B2448"/>
<path d="M8.2568 49.1153H8.25473C8.17001 49.1133 8.10182 49.043 8.10182 48.9583C8.12248 47.9207 7.52115 47.3605 7.51495 47.3543C7.45089 47.2964 7.44675 47.1993 7.50255 47.1352C7.56041 47.0711 7.65753 47.067 7.72159 47.1228L7.72366 47.1249C7.75259 47.1518 8.43451 47.7884 8.41178 48.9645C8.40972 49.0471 8.34152 49.1153 8.2568 49.1153ZM7.65753 49.7974H7.641C7.55628 49.7892 7.49428 49.7127 7.50255 49.628C7.6038 48.642 6.9818 47.9889 6.97561 47.9827C6.91568 47.9207 6.91775 47.8235 6.97767 47.7636C7.03967 47.7036 7.13679 47.7057 7.19671 47.7656C7.22564 47.7966 7.92617 48.5304 7.81045 49.659C7.80425 49.7375 7.73812 49.7974 7.65753 49.7974ZM7.0376 50.3803H7.019C6.93428 50.37 6.87228 50.2935 6.88262 50.2088C6.9818 49.3303 6.46313 48.7516 6.45693 48.7454C6.40113 48.6813 6.40527 48.5841 6.46933 48.5263C6.53132 48.4705 6.62638 48.4746 6.68424 48.5345C6.70903 48.5614 7.30624 49.2187 7.19052 50.2439C7.18225 50.3224 7.11612 50.3803 7.0376 50.3803Z" fill="#FFCF2D"/>
<path d="M42.283 50.6656C42.0206 51.0087 41.2725 51.4138 39.9397 51.4138H33.4531C33.5833 50.2687 33.8519 48.6358 33.728 46.6516C34.4016 46.79 34.4657 47.2799 35.1125 47.4577C35.8626 47.6644 36.5859 47.3088 38.3837 47.8566C38.4126 47.8648 38.4415 47.8731 38.4704 47.8793L38.4952 47.8855C38.9891 48.0199 39.4665 48.2038 39.9252 48.4312C41.6858 49.3179 42.2293 50.5312 42.281 50.6552C42.283 50.6573 42.283 50.6614 42.283 50.6614V50.6656Z" fill="white"/>
<path d="M39.9386 51.4655H33.4521C33.4231 51.4655 33.4004 51.4427 33.4004 51.4138V51.4076L33.4066 51.3642C33.6132 49.599 33.8095 47.9331 33.667 46.6681C33.6628 46.6391 33.6835 46.6143 33.7124 46.6102C33.7414 46.6061 33.7662 46.6267 33.7703 46.6557C33.9149 47.9289 33.7186 49.5969 33.512 51.3621H39.9407C41.2012 51.3621 41.941 51.0025 42.2262 50.6573C42.1352 50.4527 41.5546 49.2621 39.8808 48.4188C39.4261 48.1935 38.9509 48.0116 38.4611 47.8772L38.4384 47.871C38.428 47.869 38.4198 47.8669 38.4094 47.8628C38.3888 47.8586 38.3702 47.8524 38.3495 47.8462C37.9528 47.7243 37.4279 47.623 37.1882 47.6023C37.1592 47.6003 37.1386 47.5755 37.1407 47.5465C37.1427 47.5176 37.1675 47.4969 37.1964 47.499C37.4424 47.5197 37.9776 47.6251 38.3784 47.747C38.397 47.7532 38.4156 47.7574 38.4342 47.7615C38.4446 47.7636 38.4549 47.7677 38.4652 47.7698L38.49 47.776C38.986 47.9124 39.4675 48.0963 39.9283 48.3258C41.6827 49.2084 42.2634 50.4754 42.3295 50.6325C42.3295 50.6325 42.3295 50.6345 42.3316 50.6345C42.3336 50.6387 42.3336 50.6407 42.3357 50.6428L42.3378 50.6469C42.344 50.6635 42.3419 50.6821 42.3316 50.6966C42.0402 51.0686 41.2632 51.4655 39.9386 51.4655Z" fill="#5B2448"/>
<path d="M33.7456 49.012C33.725 49.012 33.7126 49.012 33.7105 49.0099C33.6816 49.0079 33.6609 48.9831 33.663 48.9541C33.665 48.9252 33.6898 48.9045 33.7188 48.9066C33.725 48.9066 34.1093 48.9335 34.6301 48.5676C34.7437 48.487 34.8367 48.4147 34.9194 48.3526C35.2355 48.1087 35.4112 47.9744 36.0476 47.8917C36.0766 47.8876 36.1014 47.9083 36.1055 47.9372C36.1096 47.9661 36.089 47.9909 36.0621 47.9951C35.4546 48.0736 35.2975 48.1935 34.9855 48.4353C34.9028 48.4994 34.8078 48.5717 34.6921 48.6544C34.2209 48.9831 33.8572 49.012 33.7456 49.012ZM40.0503 50.9818C39.9408 50.9818 39.8313 50.9777 39.7197 50.9694C39.1287 50.9239 38.4922 50.7606 37.8269 50.4816C37.4198 50.31 37.1677 50.3534 36.9218 50.3948C36.713 50.4299 36.4981 50.4671 36.2026 50.372C35.9691 50.2976 35.8162 50.1757 35.6674 50.0579C35.4711 49.9029 35.2851 49.7561 34.9173 49.7065C34.1093 49.5969 33.6816 50.0951 33.6774 50.1013C33.6588 50.1219 33.6258 50.124 33.6051 50.1054C33.5844 50.0868 33.5824 50.0558 33.5989 50.0351C33.6175 50.0124 34.0659 49.4874 34.9318 49.6052C35.3265 49.659 35.5331 49.8202 35.7315 49.9773C35.8782 50.093 36.0187 50.2046 36.2336 50.2728C36.5043 50.3596 36.6986 50.3266 36.9032 50.2914C37.1615 50.248 37.4301 50.2026 37.864 50.3844C38.517 50.6594 39.1432 50.8206 39.7238 50.864C40.6083 50.9301 41.3935 50.7276 42.0569 50.2584C42.0796 50.2418 42.1127 50.248 42.1292 50.2708C42.1457 50.2935 42.1395 50.3266 42.1168 50.3431C41.5196 50.7689 40.8253 50.9818 40.0503 50.9818Z" fill="#5B2448"/>
<path d="M34.8267 51.1017C34.4011 51.1017 34.0684 50.8971 34.0684 50.6366C34.0684 50.3762 34.4011 50.1716 34.8267 50.1716C35.2524 50.1716 35.5851 50.3762 35.5851 50.6366C35.5851 50.8971 35.2524 51.1017 34.8267 51.1017ZM34.8267 50.2728C34.4713 50.2728 34.1717 50.4382 34.1717 50.6345C34.1717 50.8309 34.4713 50.9963 34.8267 50.9963C35.1822 50.9963 35.4818 50.8309 35.4818 50.6345C35.4818 50.4382 35.1822 50.2728 34.8267 50.2728Z" fill="#5B2448"/>
<path d="M37.2663 49.227C37.1816 49.227 37.1113 49.1567 37.1113 49.0719C37.1113 49.0513 37.1155 49.0306 37.1237 49.0099C37.1403 48.9727 37.5267 48.1108 38.6674 47.745C38.748 47.7181 38.8368 47.7615 38.8637 47.8442C38.8905 47.9248 38.8471 48.0137 38.7645 48.0405H38.7624C37.7623 48.3609 37.413 49.1278 37.4089 49.134C37.3841 49.1918 37.3283 49.227 37.2663 49.227ZM38.0536 49.5308C37.9689 49.5308 37.8986 49.4605 37.8986 49.3758C37.8986 49.351 37.9048 49.3282 37.9152 49.3055C37.9358 49.2662 38.4091 48.3547 39.5332 48.0922C39.6159 48.0736 39.7006 48.1253 39.7192 48.208C39.7378 48.2906 39.6861 48.3754 39.6035 48.394C38.624 48.6214 38.1941 49.4378 38.19 49.4461C38.1652 49.4977 38.1115 49.5308 38.0536 49.5308ZM38.9629 49.7747C38.8781 49.7747 38.8079 49.7044 38.8079 49.6197C38.8079 49.5949 38.8141 49.568 38.8265 49.5473C38.8451 49.5143 39.279 48.7247 40.304 48.4994C40.3866 48.4808 40.4714 48.5325 40.49 48.6151C40.5086 48.6978 40.4569 48.7826 40.3742 48.8012H40.3701C39.4836 48.9955 39.1034 49.6858 39.0992 49.6941C39.0724 49.7416 39.0207 49.7747 38.9629 49.7747Z" fill="#FFCF2D"/>
<path d="M22.9664 20.0438C22.1543 20.7941 20.5011 21.3935 18.8893 20.9388C16.8828 20.3724 15.2317 20.7941 14.5498 22.675C14.1551 23.7643 13.624 24.4588 12.7313 24.99C10.9955 26.0235 11.2021 28.5038 13.1446 29.9506C14.3431 29.3719 22.9519 24.4009 22.9519 24.4009L24.2497 20.4138L22.9664 20.0438ZM26.8658 32.9891C25.254 34.1672 23.1441 35.2048 20.6045 35.5293C18.1454 35.8414 16.0583 35.2834 15.6863 36.1101C15.2317 37.1229 20.9558 38.5078 26.8658 32.9891Z" fill="#5B2448"/>
<path d="M18.1746 35.6451C17.753 38.1771 18.249 41.2775 19.9641 45.5561C19.9641 45.5561 17.3811 44.2746 14.922 41.9389C16.1619 43.1998 13.7937 45.3039 13.3102 47.871C13.0415 49.2972 13.1201 49.9049 13.1201 49.9049C13.1201 49.9049 21.7578 53.5655 24.2499 50.5333C26.742 47.5011 26.1221 40.306 26.1221 40.306C26.1221 40.306 30.3583 39.2932 32.6107 37.8918C32.6314 39.2519 33.1893 42.249 33.4993 44.5433C33.4993 44.5433 35.6339 44.5805 37.6322 43.2411C39.5747 41.9389 41.0832 40.9261 41.7444 41.7529C41.7444 41.7529 39.616 38.9832 37.8595 35.4901C36.5597 32.9064 35.0905 30.9221 26.866 32.9891C18.5362 35.0829 18.1746 35.6451 18.1746 35.6451Z" fill="#F94F46"/>
<path d="M21.7202 46.3622C21.7368 46.3622 21.7533 46.3518 21.7595 46.3353C21.7678 46.3146 21.7574 46.2898 21.7347 46.2816C21.7244 46.2774 20.7098 45.8992 19.9121 45.4238L19.9617 45.5478C20.7511 46.0025 21.6975 46.356 21.7078 46.358C21.7099 46.3622 21.7161 46.3622 21.7202 46.3622ZM32.7137 36.1163C32.7158 36.0915 32.7013 36.0709 32.6786 36.0688C32.6559 36.0667 32.6352 36.0812 32.6331 36.1039C32.5567 36.7137 32.5215 37.3296 32.5277 37.9435C32.5546 37.927 32.5835 37.9105 32.6104 37.8939C32.6042 37.2986 32.6393 36.7054 32.7137 36.1163ZM25.7333 35.8476C25.7291 35.8249 25.7085 35.8104 25.6857 35.8146C25.663 35.8187 25.6486 35.8394 25.6527 35.8621C25.9482 37.5177 26.0102 38.4809 26.1197 40.2316L26.1238 40.304C26.1321 40.3019 26.161 40.2957 26.2044 40.2833L26.2003 40.2254C26.0928 38.4727 26.0308 37.5074 25.7333 35.8476Z" fill="#FCB6B1"/>
<path d="M28.623 31.0048C29.7596 30.0333 30.2307 28.6712 30.5448 27.8217C31.1648 26.1475 31.8674 25.362 32.6113 25.362C33.6734 25.362 32.5493 29.8886 28.623 31.0048Z" fill="#5B2448"/>
<path d="M18.7235 29.5393C18.7193 29.5393 18.7152 29.5393 18.7131 29.5373C17.4175 29.188 15.6073 28.541 14.3488 27.4331C13.9397 27.0735 13.6338 26.7056 13.4375 26.3376C13.2619 26.009 13.1875 25.699 13.2205 25.4427C13.266 25.0954 13.5098 24.8887 13.8715 24.8887C14.603 24.8887 14.9956 25.6948 15.3738 26.4761C15.5928 26.9288 15.8201 27.3959 16.1115 27.7142C17.3121 29.0226 18.7214 29.4567 18.7359 29.4629C18.7586 29.4691 18.771 29.4918 18.7627 29.5145C18.7565 29.5269 18.7421 29.5393 18.7235 29.5393ZM13.8694 24.9693C13.5491 24.9693 13.3404 25.145 13.3011 25.453C13.2185 26.0813 13.8157 26.8564 14.4025 27.3711C15.4378 28.2826 16.8533 28.88 18.0395 29.2562C17.2914 28.8841 16.6178 28.3798 16.0516 27.768C15.7519 27.4414 15.5226 26.9681 15.2994 26.5113C14.913 25.7176 14.5493 24.9693 13.8694 24.9693Z" fill="#FFCF2D"/>
<path d="M39.0379 23.4191C37.4468 25.5481 37.4798 28.1049 35.4216 30.426C33.1486 32.9891 30.9375 32.2243 28.623 31.0048L31.1441 26.5195C31.3508 26.6477 31.6029 26.8234 31.8281 26.9846C31.8736 27.0177 31.919 27.0507 31.9624 27.0817C32.2145 27.2636 32.4046 27.4083 32.4046 27.4083C32.4046 27.4083 34.1611 23.6051 36.7028 21.0008C39.4698 18.167 38.8106 19.7606 38.8106 19.7606C42.0756 17.4456 40.2984 19.5126 40.2984 19.5126C42.2264 18.4026 40.7055 20.0438 40.7055 20.0438C42.2512 19.4051 40.5919 20.8726 40.5567 20.9036C41.8441 20.2712 40.3956 21.6023 39.0379 23.4191Z" fill="#F4ADA2"/>
<path d="M31.888 28.6175C31.888 28.6464 31.9108 28.6692 31.9397 28.6692C31.9645 28.6692 31.9851 28.6526 31.9893 28.6299C32.0926 28.2124 32.2311 27.8031 32.4026 27.4083C32.3984 27.4042 32.3674 27.3814 32.3178 27.3442C32.1401 27.7514 31.9955 28.1752 31.888 28.6071V28.6175ZM37.9882 22.0632C37.984 22.0694 37.984 22.0777 37.984 22.0859C37.984 22.1149 38.0068 22.1376 38.0357 22.1376C38.0564 22.1376 38.075 22.1252 38.0832 22.1087C38.2568 21.7346 38.3601 21.3749 38.4593 21.0277C38.5854 20.5895 38.7155 20.1347 38.9904 19.6511C38.9945 19.6449 38.9966 19.6366 38.9966 19.6283C38.9387 19.6697 38.8767 19.711 38.8147 19.7565C38.5895 20.1906 38.4717 20.5998 38.3581 20.9987C38.2609 21.3418 38.1597 21.6974 37.9882 22.0632ZM39.2425 20.4758C39.2301 20.4861 39.2239 20.5006 39.2239 20.5151C39.2239 20.544 39.2466 20.5667 39.2756 20.5667C39.288 20.5667 39.3004 20.5626 39.3086 20.5543C39.3169 20.5461 40.1848 19.8226 40.5753 19.37L40.5774 19.3679C40.5815 19.3638 40.5836 19.3576 40.5857 19.3534C40.503 19.3968 40.41 19.4485 40.3088 19.5064C39.8831 19.9405 39.2508 20.4696 39.2425 20.4758ZM39.5959 20.9905C39.5959 21.0194 39.6186 21.0421 39.6475 21.0421C39.6578 21.0421 39.6682 21.038 39.6785 21.0318C39.6868 21.0256 40.4514 20.4655 40.9452 19.9529C40.877 19.9756 40.7985 20.0066 40.7076 20.0438C40.2303 20.5006 39.6248 20.945 39.6186 20.9491C39.6041 20.9595 39.5959 20.9739 39.5959 20.9905ZM39.8025 21.4865C39.8025 21.5155 39.8252 21.5382 39.8542 21.5382C39.8645 21.5382 39.8748 21.5361 39.8831 21.5299C39.8893 21.5258 40.4493 21.1517 40.8605 20.7817C40.8646 20.7796 40.8667 20.7755 40.8688 20.7714C40.7903 20.7962 40.689 20.8396 40.5547 20.9057C40.1993 21.1951 39.8294 21.4411 39.8252 21.4452C39.8108 21.4535 39.8025 21.47 39.8025 21.4865ZM31.9624 27.0817C31.2268 28.0284 30.4828 30.2814 28.623 31.0048L31.1441 26.5195C31.3508 26.6477 31.6029 26.8234 31.8281 26.9846C31.8736 27.0177 31.919 27.0507 31.9624 27.0817Z" fill="#9B3C82"/>
<path d="M25.5534 23.6878C26.2435 22.9582 27.3615 23.9359 28.808 24.6179C30.2545 25.3 32.6103 25.362 32.6103 25.362C32.6103 25.362 31.453 25.2794 30.5438 27.8217C29.585 30.5046 28.622 31.0048 28.622 31.0048C27.6508 30.4674 26.0596 29.2892 26.0596 29.2892C26.3283 31.0461 26.8655 32.9891 26.8655 32.9891C25.5637 33.8778 24.2412 34.932 20.7902 35.4901C18.2981 35.8931 16.1407 35.2627 15.6861 36.1101C16.6573 33.9192 17.6079 31.3355 18.0418 30.116C18.2898 29.8473 18.7238 29.4959 18.7238 29.4959C18.7238 29.4959 16.7689 28.7105 15.7894 27.3876C14.9008 26.1888 14.8388 25.0107 13.6816 24.9073C14.3016 24.7833 15.2935 24.8246 17.6079 23.7292C20.5402 22.3422 21.9267 22.0136 22.4434 23.2331L25.5534 23.6878Z" fill="#FFCF2D"/>
<path d="M25.5446 23.7292C25.5446 23.7064 25.526 23.6878 25.5033 23.6878H25.5012C25.4785 23.6878 25.4599 23.7064 25.4599 23.7292C25.4434 25.5274 25.9042 28.3591 26.0674 29.2954C26.0819 29.3058 26.1149 29.3306 26.1645 29.3657C26.0178 28.5307 25.5281 25.5791 25.5446 23.7292ZM21.3125 26.627C21.3249 26.6084 21.3208 26.5815 21.3022 26.5691C21.2836 26.5567 21.2567 26.5609 21.2443 26.5795C20.4942 27.6646 19.5726 28.6815 18.6406 29.4587C18.6944 29.4815 18.7253 29.4939 18.7253 29.4959C19.6532 28.7188 20.5665 27.706 21.3125 26.627ZM22.2858 24.804C22.2817 24.8102 22.2796 24.8184 22.2796 24.8246C22.2796 24.8474 22.2982 24.866 22.321 24.866C22.3354 24.866 22.3499 24.8577 22.3561 24.8453C22.3602 24.837 22.7962 24.0826 22.5338 23.2455L22.4449 23.2331C22.4429 23.2269 22.4387 23.2207 22.4367 23.2166C22.728 24.0371 22.29 24.7957 22.2858 24.804Z" fill="white"/>
<path d="M27.7312 21.0525C27.5245 21.2571 26.7289 21.3356 26.3384 21.3315C26.3342 21.3336 26.328 21.3356 26.3239 21.3398C25.799 21.5816 25.6027 22.8796 25.5573 23.6858C25.549 23.818 25.5469 23.9379 25.5469 24.0371C25.0923 24.4092 23.8318 24.8846 22.4473 23.231C22.4473 23.231 23.7078 22.0735 23.9764 20.8747C23.9847 20.8251 23.8731 20.3249 23.7967 20.0149C23.7615 19.8743 23.7347 19.773 23.7285 19.773C23.6437 19.8061 23.5673 19.8371 23.4991 19.8619C23.4888 19.866 23.4805 19.8702 23.4702 19.8722L23.4495 19.8805C23.4371 19.8846 23.4268 19.8888 23.4144 19.8929C23.3896 19.9012 23.3648 19.9115 23.34 19.9198C23.3317 19.9239 23.3214 19.926 23.3131 19.9301C23.2263 19.9611 23.154 19.9859 23.0941 20.0045C23.092 20.0045 23.092 20.0066 23.0899 20.0066C23.0817 20.0087 23.0713 20.0128 23.0631 20.0149C23.0589 20.0169 23.0527 20.0169 23.0486 20.019C23.0445 20.0211 23.0424 20.0211 23.0383 20.0231H23.0341L23.0155 20.0293C23.0073 20.0314 23.0011 20.0335 22.9928 20.0376V20.0355L22.9969 19.9901L23.0093 19.8681L23.0155 19.7958L23.3586 16.3109C23.3668 16.3068 23.3772 16.3026 23.3854 16.2964C23.3937 16.2902 23.404 16.2861 23.4123 16.282C23.4144 16.282 23.4144 16.2799 23.4164 16.2799C23.6913 16.1352 23.9868 16.0401 24.2926 15.9967C24.5881 15.9575 24.8877 15.9781 25.1729 16.0587C25.208 16.0691 25.2411 16.0794 25.2762 16.0897C25.3114 16.1001 25.3444 16.1125 25.3775 16.1249C25.4105 16.1373 25.4436 16.1517 25.4767 16.1662C25.549 16.1972 25.6193 16.2324 25.6874 16.2716C25.7143 16.2861 25.7391 16.3006 25.7639 16.3171C25.8259 16.3543 25.8858 16.3956 25.9458 16.439C25.9747 16.4597 26.0036 16.4825 26.0325 16.5052C26.047 16.5155 26.0615 16.5279 26.0759 16.5403C26.1049 16.5631 26.1317 16.5879 26.1586 16.6127C26.1731 16.6251 26.1875 16.6395 26.202 16.6519L26.2206 16.6705L26.264 16.714L26.295 16.745L26.326 16.778C26.3363 16.7884 26.3466 16.7987 26.357 16.8111C26.388 16.8442 26.4169 16.8772 26.4458 16.9103C26.4562 16.9206 26.4644 16.933 26.4748 16.9434C26.4851 16.9537 26.4934 16.9661 26.5037 16.9785L26.5595 17.0467C26.576 17.0674 26.5905 17.0881 26.607 17.1067C26.6277 17.1335 26.6483 17.1625 26.669 17.1893C26.6855 17.2121 26.7041 17.2369 26.7207 17.2596C26.7703 17.3299 26.8178 17.4043 26.8633 17.4767C26.9087 17.549 26.8633 17.4787 26.8653 17.4787C26.9108 17.5531 26.9542 17.6296 26.9955 17.7061C27.01 17.7309 27.0244 17.7578 27.0389 17.7826C27.0802 17.8549 27.1216 17.9272 27.165 17.9996C27.2228 18.0926 27.2889 18.2063 27.3716 18.2807C27.4543 18.353 27.5617 18.382 27.665 18.4047C27.8903 18.4481 27.7746 18.7561 27.6464 18.8822C27.7766 19.2873 28.2374 20.5502 27.7312 21.0525Z" fill="#F4ADA2"/>
<path d="M27.0397 17.7826C25.7254 19.0289 24.25 19.5581 24.25 19.5581L26.0747 18.1029L26.8124 17.5159L26.864 17.4746C26.864 17.4746 26.864 17.4767 26.8661 17.4767C26.926 17.5779 26.9818 17.6813 27.0397 17.7826Z" fill="#9B3C82"/>
<path opacity="0.52" d="M26.2618 19.9884C26.3321 19.6906 26.1478 19.3923 25.8501 19.322C25.5525 19.2517 25.2542 19.436 25.1839 19.7338C25.1136 20.0315 25.2979 20.3299 25.5956 20.4002C25.8933 20.4705 26.1915 20.2861 26.2618 19.9884Z" fill="#E57281"/>
<path d="M25.9636 18.2972C25.7404 18.506 25.7053 18.8016 25.8189 18.8946C25.9326 18.9876 26.1971 18.8842 26.3769 18.6383C26.5629 18.384 26.629 18.1215 26.5215 18.0409C26.4099 17.9582 26.1847 18.0905 25.9636 18.2972Z" fill="#5B2448"/>
<path d="M27.4759 19.9032C27.449 19.9342 27.416 19.9611 27.3788 19.9777C27.3416 19.9942 27.3023 20.0066 27.263 20.0128C27.1824 20.0252 27.0998 20.0128 27.0233 19.9797C26.9861 19.9611 26.951 19.9384 26.9221 19.9115C26.8911 19.8826 26.8663 19.8516 26.8456 19.8164C26.8043 19.7462 26.7898 19.6614 26.8043 19.5808C26.8105 19.556 26.8353 19.5395 26.8601 19.5457C26.8787 19.5498 26.8931 19.5663 26.8973 19.5849V19.587C26.9076 19.6717 26.951 19.7503 27.0171 19.8061C27.0378 19.8247 27.0626 19.8392 27.0874 19.8516C27.139 19.8743 27.1948 19.8867 27.2527 19.8846C27.3106 19.8846 27.3664 19.8702 27.416 19.8412L27.418 19.8392C27.4407 19.8247 27.4676 19.833 27.4821 19.8536C27.4903 19.866 27.4903 19.8888 27.4759 19.9032Z" fill="#9B3C82"/>
<path d="M26.4336 18.8367C26.5142 18.7354 26.7147 18.4936 26.8428 18.2021C26.8614 18.1608 26.9089 18.1422 26.9482 18.1608C27.0536 18.2083 27.2106 18.3138 27.099 18.5019C26.9606 18.7334 26.5948 18.9318 26.4543 18.9028C26.4316 18.8987 26.4171 18.876 26.4233 18.8532C26.4274 18.847 26.4295 18.8429 26.4336 18.8367Z" fill="#5B2448"/>
<path d="M23.1758 20.1451C23.1593 20.1554 23.1365 20.1657 23.1138 20.1761C22.4897 20.4613 19.636 21.224 19.2764 20.4407C18.9892 19.8144 20.8159 18.938 21.6755 18.5659C21.7086 18.5515 21.7417 18.537 21.7706 18.5246C21.9587 18.444 22.0847 18.3944 22.1033 18.3882H22.1054L23.1758 20.1451Z" fill="#F94F46"/>
<path d="M23.176 20.1451C23.1595 20.1554 23.1368 20.1657 23.114 20.1761C22.8103 20.1223 21.899 19.7792 21.6758 18.5659C21.7088 18.5515 21.7419 18.537 21.7708 18.5246C21.9589 18.444 22.0849 18.3944 22.1035 18.3882H22.1056C22.1077 18.3882 22.5106 19.6697 23.176 20.1451Z" fill="#5B2448"/>
<path d="M26.8655 17.4787C26.8056 17.5552 26.7167 17.6565 26.6382 17.7392C26.6382 17.7412 26.6361 17.7412 26.6361 17.7412C26.5101 17.8735 26.353 18.0265 26.1774 18.1877C26.1629 18.2001 26.1485 18.2125 26.1381 18.2249C25.5616 18.7437 24.7991 19.3286 24.2515 19.5601C24.0675 19.6387 23.9105 19.7028 23.7741 19.7586L23.7245 19.7772C23.6398 19.8102 23.5633 19.8412 23.4951 19.866C23.4848 19.8702 23.4765 19.8722 23.4662 19.8764L23.4455 19.8846C23.4331 19.8888 23.4228 19.8929 23.4104 19.897C23.3856 19.9074 23.3608 19.9156 23.336 19.9239C23.3278 19.928 23.3174 19.9301 23.3092 19.9343C23.2203 19.9653 23.1459 19.9901 23.086 20.0107C23.0777 20.0128 23.0674 20.0169 23.0591 20.019C23.0509 20.0211 23.0426 20.0231 23.0343 20.0273C23.0261 20.0314 22.9827 20.0397 22.9641 20.0459C21.7035 19.1095 21.7821 17.1604 23.3567 16.313C23.3732 16.3047 23.3918 16.2944 23.4084 16.2861C23.4104 16.2861 23.4104 16.284 23.4125 16.284C23.6873 16.1393 23.9828 16.0443 24.2887 16.0009C24.9768 15.9078 25.6484 16.1476 26.1567 16.6127C26.1919 16.6457 26.227 16.6788 26.26 16.7119C26.4274 16.8814 26.5803 17.0653 26.7167 17.2596C26.7725 17.3299 26.82 17.4043 26.8655 17.4787Z" fill="#F94F46"/>
<path d="M24.2495 19.5601C24.2495 19.5601 23.6255 19.2708 23.1461 19.6469C22.6956 20.0025 23.0324 20.7652 24.0904 20.8954C24.3053 20.916 24.5203 20.9036 24.731 20.8561L24.2495 19.5601Z" fill="#F4ADA2"/>
<path d="M26.3381 21.3336C26.0819 21.3191 25.869 21.2798 25.5818 21.2116C25.4392 21.1785 25.2119 21.1041 25.1251 21.2075C25.0135 21.3377 25.2718 21.8172 25.8298 22.0673C25.9475 21.718 26.1067 21.441 26.3236 21.3418C26.3278 21.3377 26.3319 21.3356 26.3381 21.3336Z" fill="#5B2448"/>
<path d="M24.4561 20.914C24.483 20.9036 24.4954 20.8747 24.4851 20.8478C24.4747 20.821 24.4458 20.8065 24.4189 20.8168C24.4148 20.8189 24.2288 20.885 23.9726 20.8747C23.9643 20.9098 23.9561 20.945 23.9457 20.9801C23.9726 20.9822 23.9974 20.9822 24.0243 20.9822C24.171 20.9843 24.3177 20.9615 24.4561 20.914ZM24.4809 20.36C24.4685 20.36 24.4561 20.3559 24.4458 20.3456C23.9788 19.9115 23.5283 20.1141 23.5097 20.1223C23.4828 20.1327 23.4539 20.1203 23.4415 20.0955C23.4312 20.0707 23.4415 20.0417 23.4642 20.0293C23.4849 20.019 23.9933 19.7875 24.514 20.2691C24.5347 20.2877 24.5367 20.3208 24.5161 20.3414C24.5078 20.3538 24.4954 20.36 24.4809 20.36Z" fill="#9B3C82"/>
<path d="M26.8671 17.4787C26.8072 17.5552 26.7183 17.6565 26.6398 17.7392C26.6398 17.7412 26.6377 17.7412 26.6377 17.7412C26.5117 17.8735 26.3546 18.0265 26.179 18.1877C26.1645 18.2001 26.15 18.2125 26.1397 18.2249C25.9641 18.0823 25.7636 17.7474 25.7781 17.4581C25.7925 17.1687 25.9517 16.9062 26.2678 16.714C26.4352 16.8834 26.5881 17.0674 26.7245 17.2617C26.7741 17.3299 26.8216 17.4043 26.8671 17.4787Z" fill="#5B2448"/>
<path d="M27.7759 33.6505C27.9826 33.8365 28.3545 34.1052 28.9538 34.7666C30.049 35.9758 28.6066 35.2958 28.5818 35.2834C29.4869 36.4925 27.2386 35.056 27.2386 35.056C28.9745 36.8542 26.2881 35.118 23.9427 34.6653C22.1201 34.314 19.1671 35.0932 16.4002 34.4897C15.6066 34.316 14.8276 34.0308 14.0961 33.5699C11.4924 31.9349 13.286 28.634 14.4308 26.9412C14.6809 26.5733 14.8999 26.2798 15.0363 26.0979C15.2367 26.4803 15.4496 26.9226 15.7761 27.3649C15.7802 27.3711 15.7864 27.3794 15.7906 27.3856C15.9641 27.6171 16.1604 27.83 16.3733 28.0243C16.3898 28.0387 16.4064 28.0553 16.4229 28.0697C16.5613 28.1937 16.706 28.3116 16.8506 28.419C16.8692 28.4335 16.8858 28.4459 16.9044 28.4604C16.925 28.4749 16.9457 28.4914 16.9664 28.5059L17.0284 28.5493C17.0697 28.5782 17.1089 28.6071 17.1503 28.634L17.2061 28.6712C17.2288 28.6857 17.2515 28.7022 17.2722 28.7167C17.2908 28.7291 17.3115 28.7415 17.3301 28.7539C17.3507 28.7663 17.3693 28.7787 17.39 28.7911C17.4003 28.7973 17.4106 28.8056 17.423 28.8118C17.4416 28.8242 17.4623 28.8366 17.4809 28.849C17.4995 28.8614 17.5202 28.8738 17.5388 28.8841C17.5574 28.8944 17.576 28.9068 17.5966 28.9192C17.6132 28.9296 17.6297 28.9378 17.6442 28.9482C17.6669 28.9627 17.6896 28.9751 17.7123 28.9875C17.7268 28.9957 17.7433 29.004 17.7578 29.0143C17.7826 29.0288 17.8053 29.0412 17.8281 29.0536C17.8405 29.0598 17.8508 29.066 17.8632 29.0722C18.0285 29.1631 18.1794 29.2417 18.3054 29.3037L18.3364 29.3182C18.4418 29.3698 18.5307 29.4091 18.5968 29.4381C18.603 29.4422 18.6112 29.4443 18.6174 29.4463C18.6774 29.4732 18.7146 29.4877 18.7228 29.4918H18.7208L18.7187 29.4939L18.1566 30.0127L18.043 30.116H18.0657C19.9648 30.1532 23.953 31.226 26.6972 32.3628H26.7034C27.0568 32.3483 27.3771 32.2863 27.7139 32.2243C28.4992 32.0796 28.5612 32.245 27.7759 32.8444C28.5198 33.1958 28.9889 33.5017 29.2948 33.7952C30.5243 34.9733 28.5612 34.0225 27.7759 33.6505Z" fill="#F4ADA2"/>
<path d="M18.7217 29.4959V29.5001C17.6492 29.3719 15.3141 28.4625 14.4297 26.9432C14.6797 26.5753 14.8988 26.2818 15.0352 26.0999C15.2356 26.4823 15.4484 26.9246 15.7749 27.367C15.7791 27.3732 15.7853 27.3814 15.7894 27.3876C15.963 27.6191 16.1593 27.832 16.3721 28.0263C16.3887 28.0408 16.4052 28.0573 16.4217 28.0718C16.5602 28.1958 16.7048 28.3136 16.8495 28.4211C16.8681 28.4356 16.8846 28.448 16.9032 28.4625C16.9239 28.4769 16.9445 28.4935 16.9652 28.5079L17.0272 28.5513C17.0685 28.5803 17.1078 28.6092 17.1491 28.6361L17.2049 28.6733C17.2276 28.6878 17.2504 28.7043 17.271 28.7188C17.2896 28.7312 17.3103 28.7436 17.3289 28.756C17.3496 28.7684 17.3682 28.7808 17.3888 28.7932C17.3992 28.7994 17.4095 28.8076 17.4219 28.8138C17.4405 28.8262 17.4612 28.8386 17.4798 28.851C17.4984 28.8634 17.519 28.8758 17.5376 28.8862C17.5562 28.8965 17.5748 28.9089 17.5955 28.9213C17.612 28.9316 17.6285 28.9399 17.643 28.9503C17.6657 28.9647 17.6885 28.9771 17.7112 28.9895C17.7257 28.9978 17.7422 29.0061 17.7567 29.0164C17.7815 29.0309 17.8042 29.0433 17.8269 29.0557C17.8393 29.0619 17.8496 29.0681 17.862 29.0743C18.0274 29.1652 18.1782 29.2438 18.3043 29.3058L18.3353 29.3202C18.4407 29.3719 18.5295 29.4112 18.5956 29.4401C18.6018 29.4443 18.6101 29.4463 18.6163 29.4484C18.6762 29.4773 18.7134 29.4918 18.7217 29.4959ZM27.2458 34.13C27.2313 34.1548 27.2396 34.1858 27.2644 34.2003C27.7004 34.4628 28.1323 34.8555 28.5827 35.2834V35.2813C28.5889 35.2854 28.7047 35.3392 28.8452 35.3908C28.3203 34.8865 27.8244 34.4152 27.3181 34.1114C27.2912 34.0969 27.2602 34.1052 27.2458 34.13ZM26.9048 34.6716C26.8821 34.6571 26.849 34.6633 26.8345 34.686C26.818 34.7088 26.8242 34.7418 26.849 34.7584C26.8511 34.7604 27.0515 34.8906 27.2623 35.0705C27.316 35.1035 27.4607 35.1945 27.6425 35.2999C27.3677 34.9754 26.9234 34.684 26.9048 34.6716ZM27.8698 32.77C27.7107 32.6976 27.3326 32.5281 26.9234 32.3462C26.8511 32.3524 26.7767 32.3586 26.7023 32.3607C27.1404 32.5529 27.5661 32.7514 27.7748 32.8444C27.8058 32.8216 27.8409 32.7948 27.8698 32.77ZM27.3264 33.4459C27.2995 33.4355 27.2706 33.45 27.2602 33.4769C27.2499 33.5037 27.2644 33.5327 27.2912 33.543C27.2954 33.5451 27.7086 33.7042 28.2191 34.0308C28.0331 33.8654 27.8926 33.7538 27.7913 33.6629C27.5165 33.5203 27.3326 33.4479 27.3264 33.4459C27.3284 33.4479 27.3284 33.4459 27.3264 33.4459ZM18.0418 30.116C18.048 30.116 16.7792 30.1367 16.773 30.1367H16.771C16.742 30.1367 16.7193 30.1139 16.7193 30.085C16.7193 30.0561 16.742 30.0333 16.771 30.0333C16.7772 30.0333 17.4322 30.0147 18.1575 30.0127L18.0418 30.116Z" fill="#9B3C82"/>
</g>
<g clip-path="url(#clip3_2902_38165)">
<path d="M31.5809 12.8414L33.7493 15.3525C33.718 15.1782 33.693 15.0086 33.6743 14.8437C33.2513 11.1339 35.915 9.71304 38.8273 9.01323C41.5224 8.36558 42.4086 6.7403 42.6451 6.15834C42.6516 6.14209 42.653 6.12421 42.6491 6.10712C42.6451 6.09004 42.636 6.07458 42.623 6.06285C42.6099 6.05111 42.5936 6.04366 42.5762 6.04152C42.5588 6.03937 42.5412 6.04262 42.5257 6.05083C39.9403 7.4145 39.2533 6.77346 35.9019 7.07689C32.6513 7.37116 31.5697 9.84396 31.5707 12.4075C31.5707 12.5521 31.5741 12.6968 31.5809 12.8414Z" fill="#F94F46"/>
<path d="M31.5826 12.8415L33.7509 15.3525C33.7197 15.1783 33.6947 15.0087 33.676 14.8438L31.5723 12.4076C31.5724 12.5522 31.5758 12.6968 31.5826 12.8415Z" fill="#FFCF2D"/>
<path d="M60.0252 52.0758C60.0731 52.1311 60.1409 52.1653 60.2139 52.1706C60.2869 52.176 60.359 52.1522 60.4143 52.1044L66.2253 47.0864C66.2806 47.0386 66.3147 46.9708 66.32 46.8978C66.3254 46.8248 66.3015 46.7527 66.2536 46.6973C66.2058 46.6419 66.1379 46.6078 66.065 46.6024C65.992 46.5971 65.9199 46.6209 65.8646 46.6687L63.1678 48.9975L33.675 14.8438C33.6937 15.0088 33.7186 15.1784 33.75 15.3525L31.5816 12.8415C31.5748 12.6969 31.5713 12.5522 31.5713 12.4076L30.5249 11.1958C30.477 11.1404 30.4092 11.1063 30.3362 11.1009C30.2632 11.0955 30.1912 11.1194 30.1358 11.1672C30.0804 11.215 30.0464 11.2828 30.041 11.3558C30.0357 11.4288 30.0596 11.5009 30.1074 11.5563L62.7504 49.3579L60.0536 51.6867C59.9983 51.7345 59.9642 51.8023 59.9588 51.8753C59.9535 51.9483 59.9774 52.0204 60.0252 52.0758Z" fill="#FFCF2D"/>
</g>
<g clip-path="url(#clip4_2902_38165)">
<path d="M41.233 24.0644L39.0646 21.5533C39.2325 21.6096 39.3966 21.6591 39.557 21.7016C43.1657 22.6605 44.9594 20.2322 46.076 17.453C47.1094 14.8809 48.8464 14.241 49.4566 14.0918C49.4737 14.0877 49.4916 14.0889 49.5079 14.0953C49.5242 14.1017 49.5382 14.113 49.5479 14.1276C49.5576 14.1422 49.5626 14.1594 49.5622 14.177C49.5618 14.1945 49.556 14.2115 49.5456 14.2256C47.8198 16.5847 48.3539 17.3579 47.5655 20.6292C46.8009 23.8023 44.1969 24.5121 41.6608 24.1377C41.5177 24.1166 41.3751 24.0921 41.233 24.0644Z" fill="#F94F46"/>
<path d="M6.56094 -9.79148C6.51311 -9.84686 6.48922 -9.91898 6.49455 -9.99194C6.49987 -10.0649 6.53396 -10.1328 6.58931 -10.1806L12.4003 -15.1985C12.4556 -15.2463 12.5277 -15.2701 12.6007 -15.2648C12.6736 -15.2594 12.7415 -15.2253 12.7893 -15.1699C12.8372 -15.1145 12.861 -15.0424 12.8557 -14.9694C12.8504 -14.8965 12.8163 -14.8286 12.761 -14.7808L10.0642 -12.4521L39.557 21.7016C39.3964 21.6591 39.2323 21.6097 39.0646 21.5533L41.233 24.0644C41.3751 24.0922 41.5176 24.1167 41.6607 24.1377L42.7071 25.3496C42.755 25.405 42.7789 25.4771 42.7735 25.55C42.7682 25.623 42.7341 25.6909 42.6788 25.7387C42.6234 25.7865 42.5513 25.8103 42.4784 25.8049C42.4054 25.7996 42.3375 25.7654 42.2897 25.7101L9.64676 -12.0916L6.95001 -9.76287C6.89465 -9.71507 6.82256 -9.69122 6.7496 -9.69659C6.67663 -9.70195 6.60877 -9.73608 6.56094 -9.79148Z" fill="#FFCF2D"/>
</g>
<g clip-path="url(#clip5_2902_38165)">
<path d="M30.6092 8.08797C30.6242 8.10526 30.6324 8.12748 30.6321 8.15042C30.6318 8.17336 30.6231 8.19544 30.6077 8.2125C30.5923 8.22956 30.5712 8.24041 30.5484 8.24301C30.5255 8.24561 30.5026 8.23977 30.4839 8.2266L28.0321 6.48001C28.0219 6.47295 28.0132 6.46392 28.0065 6.45345C27.9998 6.44298 27.9953 6.43127 27.9931 6.41901C27.991 6.40675 27.9914 6.39418 27.9942 6.38204C27.9969 6.36989 28.0021 6.35841 28.0094 6.34826C28.0166 6.33811 28.0258 6.3295 28.0364 6.32292C28.0471 6.31634 28.0588 6.31193 28.0712 6.30994C28.0835 6.30796 28.096 6.30844 28.1081 6.31135C28.1202 6.31426 28.1316 6.31955 28.1416 6.32692L30.5934 8.07351C30.5992 8.0777 30.6045 8.08256 30.6092 8.08797ZM28.9474 11.1651C28.9597 11.179 28.9675 11.1963 28.97 11.2147C28.9724 11.2331 28.9694 11.2518 28.9612 11.2685C28.953 11.2852 28.94 11.2992 28.9239 11.3085C28.9079 11.3179 28.8894 11.3223 28.8708 11.3212L25.8599 11.1417C25.8474 11.1412 25.8352 11.1382 25.824 11.1329C25.8127 11.1276 25.8026 11.1201 25.7943 11.1108C25.7859 11.1016 25.7796 11.0907 25.7755 11.079C25.7714 11.0672 25.7697 11.0547 25.7705 11.0423C25.7713 11.0298 25.7746 11.0177 25.7801 11.0065C25.7857 10.9953 25.7934 10.9853 25.8028 10.9771C25.8123 10.9689 25.8232 10.9626 25.8351 10.9587C25.847 10.9548 25.8595 10.9533 25.8719 10.9542L28.8828 11.1338C28.8951 11.1345 28.9072 11.1376 28.9183 11.143C28.9294 11.1484 28.9392 11.1559 28.9474 11.1651ZM31.6252 2.81047C31.6306 2.81666 31.6352 2.82354 31.6389 2.83093L32.9732 5.52945C32.9843 5.55174 32.986 5.57754 32.9779 5.60116C32.9699 5.62479 32.9529 5.64431 32.9305 5.65544C32.9082 5.66656 32.8824 5.66837 32.8588 5.66048C32.8352 5.65258 32.8157 5.63562 32.8047 5.61333L31.4704 2.91479C31.4603 2.89441 31.458 2.87103 31.4639 2.84901C31.4698 2.82698 31.4834 2.8078 31.5024 2.79505C31.5213 2.7823 31.5442 2.77684 31.5668 2.77968C31.5894 2.78253 31.6102 2.79349 31.6252 2.81052L31.6252 2.81047Z" fill="#3FB1B5"/>
</g>
<g clip-path="url(#clip6_2902_38165)">
<path d="M36.8887 20.7785C39.4355 18.2372 38.8293 19.6665 38.8293 19.6665L38.8195 19.6897C38.6214 20.0698 38.5159 20.4286 38.4134 20.777C38.3229 21.0847 38.2294 21.4026 38.0727 21.732" fill="#F4ADA2"/>
</g>
<defs>
<clipPath id="clip0_2902_38165">
<rect width="20.9103" height="7.80926" fill="white" transform="translate(17.8789 43.6701)"/>
</clipPath>
<clipPath id="clip1_2902_38165">
<rect width="19.4717" height="25.3286" fill="white" transform="translate(33.1387 26.1507)"/>
</clipPath>
<clipPath id="clip2_2902_38165">
<rect width="38.0701" height="35.7581" fill="white" transform="translate(4.26367 15.9781)"/>
</clipPath>
<clipPath id="clip3_2902_38165">
<rect width="16.9029" height="19.1635" fill="white" transform="matrix(-0.756862 0.653575 0.653575 0.756862 39.6211 2.58561)"/>
</clipPath>
<clipPath id="clip4_2902_38165">
<rect width="4.40251" height="1.38716" fill="white" transform="translate(43.0684 25.7498) rotate(139.188)"/>
</clipPath>
<clipPath id="clip5_2902_38165">
<rect width="4.67527" height="9.86431" fill="white" transform="translate(27.2656 12.7754) rotate(-131.462)"/>
</clipPath>
<clipPath id="clip6_2902_38165">
<rect width="2.00369" height="2.46608" fill="white" transform="translate(36.8887 19.2662)"/>
</clipPath>
</defs>
</svg>
