<svg width="16" height="16" viewBox="0 0 16 16" fill="none" xmlns="http://www.w3.org/2000/svg">
<g clip-path="url(#clip0_1563_3474)">
<path d="M5.33329 4C5.33329 4.73638 4.73634 5.33333 3.99996 5.33333C3.26358 5.33333 2.66663 4.73638 2.66663 4C2.66663 3.26362 3.26358 2.66666 3.99996 2.66666C4.73634 2.66666 5.33329 3.26362 5.33329 4Z" fill="black" stroke="black" stroke-linecap="round" stroke-linejoin="round"/>
</g>
<g clip-path="url(#clip1_1563_3474)">
<path d="M3.99996 15.3333C5.84091 15.3333 7.33329 13.8409 7.33329 12C7.33329 10.159 5.84091 8.66666 3.99996 8.66666C2.15901 8.66666 0.666626 10.159 0.666626 12C0.666626 13.8409 2.15901 15.3333 3.99996 15.3333Z" stroke="black" stroke-linecap="round" stroke-linejoin="round"/>
</g>
<g clip-path="url(#clip2_1563_3474)">
<path d="M12 7.33333C13.8409 7.33333 15.3333 5.84095 15.3333 4C15.3333 2.15905 13.8409 0.666664 12 0.666664C10.159 0.666664 8.66663 2.15905 8.66663 4C8.66663 5.84095 10.159 7.33333 12 7.33333Z" stroke="black" stroke-linecap="round" stroke-linejoin="round"/>
</g>
<g clip-path="url(#clip3_1563_3474)">
<path d="M12 15.3333C13.8409 15.3333 15.3333 13.8409 15.3333 12C15.3333 10.159 13.8409 8.66666 12 8.66666C10.159 8.66666 8.66663 10.159 8.66663 12C8.66663 13.8409 10.159 15.3333 12 15.3333Z" stroke="black" stroke-linecap="round" stroke-linejoin="round"/>
</g>
<defs>
<clipPath id="clip0_1563_3474">
<rect width="8" height="8" fill="white"/>
</clipPath>
<clipPath id="clip1_1563_3474">
<rect width="8" height="8" fill="white" transform="translate(0 8)"/>
</clipPath>
<clipPath id="clip2_1563_3474">
<rect width="8" height="8" fill="white" transform="translate(8)"/>
</clipPath>
<clipPath id="clip3_1563_3474">
<rect width="8" height="8" fill="white" transform="translate(8 8)"/>
</clipPath>
</defs>
</svg>
