<svg width="32" height="32" viewBox="0 0 32 32" fill="none" xmlns="http://www.w3.org/2000/svg">
<path d="M28.1599 1.15201H24.1279C23.4239 1.15201 22.8479 1.72801 22.8479 2.43201C19.0719 1.60001 16.8959 0.640015 13.3119 0.640015H6.52789C5.05589 0.640015 3.83989 1.85601 3.83989 3.39201C3.83989 4.03201 4.03189 4.60801 4.41589 5.05601C3.39189 5.44001 2.68789 6.46401 2.68789 7.61601C2.68789 8.25601 2.87989 8.83201 3.26389 9.28001C2.23989 9.66401 1.53589 10.688 1.53589 11.84C1.53589 12.48 1.79189 13.12 2.17589 13.632C1.21589 14.208 0.639893 15.168 0.639893 16.192C0.639893 17.728 1.85589 18.944 3.32789 18.944H10.5599C9.15189 20.864 8.38389 23.232 8.38389 25.6V28.224C8.38389 29.952 9.72789 31.36 11.4559 31.36C12.6719 31.36 13.7599 30.592 14.2719 29.44L15.4879 26.368C16.4479 24 18.2399 22.08 20.4799 20.992L22.8479 19.84V19.968C22.8479 20.672 23.4239 21.248 24.1279 21.248H28.1599C29.9519 21.248 31.3599 19.84 31.3599 18.048V4.35201C31.3599 2.62401 29.9519 1.15201 28.1599 1.15201ZM19.9039 19.904C17.3439 21.12 15.3599 23.296 14.2719 25.92L13.0559 28.992C12.7999 29.632 12.1599 30.08 11.4559 30.08C10.4959 30.08 9.66389 29.248 9.66389 28.224V25.6C9.66389 23.488 10.3679 21.376 11.5839 19.648L12.2879 18.688C12.6079 18.24 12.2879 17.664 11.7759 17.664H3.32789C2.55989 17.664 1.91989 17.024 1.91989 16.192C1.91989 15.36 2.55989 14.72 3.32789 14.72C3.39189 14.72 7.16789 14.72 7.10389 14.72C7.48789 14.72 7.74389 14.464 7.74389 14.08C7.74389 13.696 7.48789 13.44 7.10389 13.44H4.28789C3.51989 13.44 2.87989 12.8 2.87989 11.968C2.87989 11.136 3.51989 10.496 4.28789 10.496H5.43989C5.69589 10.496 8.44789 10.496 8.31989 10.496C8.70389 10.496 8.95989 10.24 8.95989 9.85601C8.95989 9.47201 8.70389 9.21601 8.31989 9.21601C8.19189 9.21601 5.37589 9.21601 5.43989 9.21601C4.67189 9.21601 4.03189 8.57601 4.03189 7.74401C4.03189 6.91201 4.67189 6.27201 5.43989 6.27201H6.59189C7.03989 6.27201 9.53589 6.27201 9.47189 6.27201C9.85589 6.27201 10.1119 6.01601 10.1119 5.63201C10.1119 5.24801 9.85589 4.99201 9.47189 4.99201C9.27989 4.99201 6.52789 4.99201 6.59189 4.99201C5.75989 4.92801 5.11989 4.22401 5.11989 3.39201C5.11989 2.56001 5.75989 1.92001 6.52789 1.92001H13.3119C16.7039 1.92001 18.5599 2.81601 22.8479 3.77601V18.432L19.9039 19.904ZM30.0799 18.112C30.0799 19.2 29.2479 20.032 28.1599 20.032H24.1279V18.88V3.32801V2.43201H28.1599C29.2479 2.43201 30.0799 3.26401 30.0799 4.35201V18.112Z" fill="#4C60E5"/>
</svg>
