<svg width="60" height="60" viewBox="0 0 60 60" fill="none" xmlns="http://www.w3.org/2000/svg">
<g clip-path="url(#clip0_2902_40969)">
<g clip-path="url(#clip1_2902_40969)">
<path d="M7.49917 53.6371C8.40481 53.6371 9.13897 53.4445 9.13897 53.207C9.13897 52.9695 8.40481 52.7769 7.49917 52.7769C6.59354 52.7769 5.85938 52.9695 5.85938 53.207C5.85938 53.4445 6.59354 53.6371 7.49917 53.6371Z" fill="#5B2448"/>
</g>
<g clip-path="url(#clip2_2902_40969)">
<path d="M2.05906 56.3253C2.03521 56.3253 2.01187 56.3184 1.99186 56.3055C1.97186 56.2926 1.95603 56.2743 1.9463 56.2527C1.93657 56.231 1.93335 56.2071 1.93702 56.1837C1.9407 56.1603 1.95112 56.1384 1.96702 56.1208C2.92609 55.0564 4.31176 53.6978 6.53158 52.6315C7.67307 52.0832 8.95292 51.6563 10.3357 51.3628C11.9001 51.0307 13.6509 50.8573 15.5396 50.8472C18.6904 50.8305 21.5217 51.2605 23.9527 52.1253C26.3603 52.9818 28.3835 54.2669 29.966 55.9449C29.9771 55.9567 29.9858 55.9705 29.9915 55.9855C29.9972 56.0006 29.9998 56.0167 29.9993 56.0328C29.9988 56.0489 29.9951 56.0647 29.9884 56.0794C29.9817 56.0941 29.9721 56.1073 29.9603 56.1183C29.9484 56.1293 29.9345 56.1379 29.9193 56.1436C29.9042 56.1493 29.888 56.1519 29.8718 56.1514C29.8556 56.1509 29.8396 56.1472 29.8248 56.1405C29.8101 56.1339 29.7967 56.1244 29.7856 56.1126C26.6573 52.7956 21.7301 51.0592 15.5409 51.0925C7.7823 51.1337 4.30966 53.8888 2.15112 56.2844C2.13954 56.2973 2.12536 56.3076 2.10949 56.3146C2.09362 56.3217 2.07644 56.3253 2.05906 56.3253Z" fill="#5B2448"/>
<path d="M55.9526 56.0101C55.9324 56.0101 55.9125 56.0052 55.8946 55.9958C55.8768 55.9864 55.8615 55.9728 55.8502 55.9561C54.4162 53.8503 50.118 48.8972 41.1989 48.3852C36.2602 48.1017 32.3059 49.3806 29.8584 50.5034C27.2044 51.721 25.6997 53.0227 25.6848 53.0357C25.6602 53.0568 25.6281 53.0675 25.5956 53.0653C25.5631 53.0631 25.5328 53.0482 25.5113 53.024C25.4898 52.9997 25.4788 52.9679 25.4807 52.9356C25.4826 52.9033 25.4973 52.8731 25.5216 52.8515C25.5367 52.8383 27.0622 51.5172 29.7458 50.2848C31.3266 49.5596 32.9825 49.0084 34.6841 48.6413C36.8275 48.181 39.024 48.0124 41.2132 48.1402C43.4432 48.2682 45.5501 48.6834 47.4754 49.3744C49.0464 49.9342 50.5343 50.7016 51.8991 51.6559C53.5562 52.8203 54.9933 54.2598 56.0549 55.8188C56.0674 55.8372 56.0747 55.8587 56.0759 55.881C56.0771 55.9032 56.0722 55.9253 56.0617 55.945C56.0511 55.9647 56.0354 55.9811 56.0162 55.9926C55.997 56.0041 55.975 56.0102 55.9526 56.0102L55.9526 56.0101Z" fill="#5B2448"/>
</g>
<g clip-path="url(#clip3_2902_40969)">
<path d="M29.5098 47.7109C30.6399 47.5252 31.5845 47.1878 32.8496 46.4959C34.1146 45.804 35.6665 44.6565 36.24 45.4328C37.2638 46.8182 33.9628 48.8246 29.5098 47.7109Z" fill="#5B2448"/>
<path d="M33.2864 46.3929C33.2864 46.3929 33.2325 46.7979 33.1532 47.3514C33.1245 47.5455 33.0941 47.7564 33.0604 47.9741C33.057 47.9944 33.0553 48.0129 33.052 48.0315C32.9339 48.8077 32.7922 49.6616 32.6792 50.1088C32.6741 50.1307 32.6674 50.1527 32.6623 50.1712C32.4262 51.0487 29.7442 50.0194 29.6936 49.4287C29.6565 48.9866 29.6177 48.6204 29.5874 48.342C29.5823 48.2998 29.5772 48.2593 29.5739 48.2205C29.5351 47.8864 29.5098 47.7075 29.5098 47.7075L33.2864 46.3929Z" fill="#F4ADA2"/>
<path d="M33.2864 46.3929C33.2864 46.3929 33.2325 46.7979 33.1532 47.3514C32.3941 47.6518 30.8423 47.9286 29.5098 47.7092L33.2864 46.3929Z" fill="#9B3C82"/>
<path d="M12.8741 52.0882C12.9281 50.4277 13.3043 49.7072 13.6703 48.7571C13.839 48.3184 15.2322 46.2917 14.345 45.5846C13.4342 44.859 11.1739 47.1203 12.8741 52.0882Z" fill="#5B2448"/>
<path d="M13.6694 48.7571L12.8733 52.0882C12.8733 52.0882 12.3352 51.8435 11.6774 51.5347C10.8542 51.1466 9.84553 50.6572 9.46938 50.4109C8.69347 49.9046 10.2773 47.9708 11.173 48.234C11.6453 48.3724 12.0856 48.477 12.46 48.5546C12.541 48.5715 12.6186 48.5867 12.6928 48.6019C12.7552 48.6137 12.8159 48.6255 12.8733 48.6356C13.3641 48.7251 13.6694 48.7571 13.6694 48.7571Z" fill="#F4ADA2"/>
<path d="M12.874 52.0882C12.6277 51.4993 12.3815 50.2843 12.6935 48.6019C12.7559 48.6137 12.8166 48.6255 12.874 48.6356C13.3648 48.7251 13.6701 48.7571 13.6701 48.7571C13.6701 48.7571 13.7292 52.0562 12.874 52.0882Z" fill="#9B3C82"/>
<path d="M12.46 48.5546L11.6774 51.5347C10.8542 51.1466 9.84553 50.6572 9.46938 50.4109C8.69347 49.9046 10.2773 47.9708 11.173 48.234C11.6453 48.3724 12.0856 48.477 12.46 48.5546Z" fill="#66B0F0"/>
<path d="M11.7194 48.3842L10.9316 51.1787C10.9822 51.204 11.0345 51.2276 11.0851 51.2529L11.8813 48.4247C11.829 48.4112 11.7733 48.3977 11.7194 48.3842Z" fill="white"/>
<path d="M33.0608 47.9758C33.0574 47.9961 33.0557 48.0146 33.0523 48.0332C32.9343 48.8094 32.7926 49.6633 32.6796 50.1105C32.6745 50.1324 32.6677 50.1544 32.6627 50.1729C32.4265 51.0504 29.7446 50.0211 29.694 49.4304C29.6569 48.9883 29.6181 48.6221 29.5877 48.3437C29.5827 48.3015 29.5776 48.261 29.5742 48.2222L33.0608 47.9758Z" fill="#66B0F0"/>
<path d="M29.6463 48.9225L32.9389 48.7453C32.9473 48.6896 32.9574 48.6322 32.9659 48.5749L29.6294 48.7537C29.6362 48.8077 29.6412 48.8634 29.6463 48.9225ZM5.86799 53.2981C5.6757 53.0096 5.56268 52.338 5.90847 51.3255L7.59523 46.4081C9.21453 47.2367 10.3615 47.8442 11.1712 48.2323C10.8507 48.806 10.4357 48.7149 10.1321 49.1587C9.7796 49.6734 9.90104 49.854 9.01549 51.0723C9.002 51.0926 8.9885 51.1128 8.97501 51.1314C8.97163 51.1365 8.96826 51.1432 8.9632 51.1483C8.73211 51.4875 8.46898 51.8013 8.17717 52.0899C7.04535 53.1935 5.981 53.288 5.87473 53.2948H5.86799C5.86967 53.2981 5.86799 53.2981 5.86799 53.2981Z" fill="white"/>
<path d="M5.86889 53.3403C5.8554 53.3403 5.8419 53.3336 5.83347 53.3218C5.626 53.0096 5.52648 52.3177 5.87058 51.312L7.55734 46.3946C7.56409 46.3727 7.58939 46.3609 7.61132 46.3676C7.61301 46.3676 7.61469 46.3693 7.61638 46.3693C8.16795 46.6343 8.71109 46.9245 9.23736 47.2046C9.93231 47.5759 10.5885 47.9269 11.2008 48.1851C11.2227 48.1935 11.2328 48.2188 11.2227 48.2407C11.2126 48.2627 11.1889 48.2728 11.167 48.2627C10.5514 48.0028 9.89351 47.6518 9.19688 47.2789C8.68579 47.0055 8.15783 46.7237 7.62313 46.4655L5.94986 51.339C5.62263 52.2924 5.70359 52.9488 5.89082 53.2543C6.0713 53.2391 7.12722 53.1091 8.20169 52.0612C8.49181 51.776 8.75326 51.4622 8.98266 51.1263L8.99447 51.1095C8.99953 51.1027 9.0029 51.096 9.00796 51.0892C9.0164 51.0757 9.02652 51.0622 9.03495 51.0487C9.21881 50.7939 9.46002 50.4193 9.54098 50.2337C9.5511 50.2117 9.57472 50.2033 9.59664 50.2117C9.61857 50.2219 9.627 50.2455 9.61857 50.2674C9.53086 50.4665 9.28797 50.8445 9.10242 51.0977C9.09399 51.1095 9.08555 51.123 9.07712 51.1348C9.07206 51.1415 9.067 51.1483 9.06363 51.155L9.05182 51.1719C8.81904 51.5128 8.55422 51.83 8.26073 52.1186C7.13397 53.2171 6.0207 53.3268 5.88407 53.337H5.87058C5.87058 53.3403 5.87058 53.3403 5.86889 53.3403Z" fill="#5B2448"/>
<path d="M9.55872 49.3292C9.5351 49.3292 9.51655 49.3106 9.51655 49.287C9.51655 49.2836 9.51655 49.2819 9.51824 49.2785C9.61775 48.7976 9.56547 48.6474 9.46426 48.3471C9.43727 48.2677 9.40691 48.1766 9.37486 48.0669C9.22137 47.5438 9.3192 47.3447 9.32257 47.3363C9.33269 47.316 9.35799 47.3076 9.37992 47.3177C9.40016 47.3278 9.4086 47.3531 9.39848 47.3734C9.39679 47.3767 9.31582 47.5607 9.45583 48.0416C9.48787 48.1496 9.51824 48.2391 9.54522 48.3184C9.64812 48.6221 9.70547 48.7892 9.60257 49.2937C9.59583 49.3157 9.57896 49.3292 9.55872 49.3292ZM6.19531 53.288C6.17675 53.288 6.15989 53.2762 6.15483 53.2576C5.96591 52.613 6.01651 51.9465 6.30495 51.2748C6.49218 50.8378 6.7823 50.3974 7.16857 49.9687C7.40472 49.7055 7.43677 49.503 7.46882 49.3055C7.4958 49.1385 7.52448 48.9664 7.67291 48.7672C7.79099 48.6103 7.92256 48.5259 8.05075 48.4432C8.21943 48.3352 8.37967 48.2323 8.51292 47.9674C8.80473 47.3835 8.53823 46.9296 8.53654 46.9245C8.52473 46.9043 8.53148 46.8789 8.55003 46.8671C8.57027 46.8553 8.59558 46.8621 8.60738 46.8806C8.61919 46.9009 8.90257 47.3784 8.58714 48.0045C8.44377 48.2897 8.26666 48.4044 8.09629 48.5141C7.96979 48.5951 7.85003 48.6727 7.74039 48.8179C7.60376 49.0001 7.57846 49.1554 7.55147 49.319C7.51773 49.5266 7.48231 49.7426 7.23098 50.0244C6.85146 50.448 6.5664 50.88 6.38254 51.3086C6.10254 51.9617 6.05193 52.6097 6.23579 53.234C6.24254 53.256 6.22904 53.2796 6.20712 53.2863C6.20374 53.2863 6.20037 53.288 6.19531 53.288Z" fill="#5B2448"/>
<path d="M7.71364 48.2424C7.68665 48.2424 7.65967 48.2374 7.63268 48.2289C7.53316 48.1952 7.464 48.1007 7.43701 47.964C7.41002 47.8358 7.42521 47.6805 7.47581 47.5303C7.52641 47.3801 7.61075 47.2502 7.71027 47.1641C7.81653 47.073 7.92955 47.0409 8.02738 47.0764C8.12521 47.1118 8.19606 47.2046 8.22304 47.3413C8.25003 47.4696 8.23485 47.6231 8.18425 47.775C8.13365 47.9269 8.04931 48.0551 7.94979 48.1412C7.8722 48.2087 7.79123 48.2424 7.71364 48.2424ZM7.9481 47.1489C7.89075 47.1489 7.82834 47.1759 7.76593 47.2299C7.67653 47.3059 7.60232 47.4223 7.55677 47.559C7.51123 47.6957 7.49774 47.8324 7.51966 47.9471C7.54159 48.0534 7.59219 48.126 7.66135 48.1496C7.73051 48.1732 7.81485 48.1479 7.8975 48.0771C7.9869 48.0011 8.06112 47.8847 8.10666 47.748C8.1522 47.6113 8.16569 47.4746 8.14377 47.3599C8.12184 47.2536 8.07124 47.181 8.00208 47.1574C7.98352 47.1523 7.96666 47.1489 7.9481 47.1489Z" fill="#5B2448"/>
<path d="M8.90332 51.4436H8.90163C8.83247 51.4419 8.77681 51.3845 8.77681 51.3154C8.79368 50.4682 8.30283 50.0109 8.29777 50.0059C8.24548 49.9586 8.24211 49.8793 8.28765 49.827C8.33488 49.7747 8.41416 49.7713 8.46645 49.8169L8.46813 49.8186C8.49175 49.8405 9.04838 50.3602 9.02982 51.3204C9.02814 51.3879 8.97247 51.4436 8.90332 51.4436ZM8.41416 52.0005H8.40066C8.3315 51.9937 8.2809 51.9313 8.28765 51.8621C8.3703 51.0572 7.86258 50.5239 7.85752 50.5189C7.80861 50.4682 7.81029 50.3889 7.85921 50.34C7.90981 50.291 7.98909 50.2927 8.03801 50.3417C8.06162 50.367 8.63343 50.966 8.53898 51.8874C8.53392 51.9515 8.47994 52.0005 8.41416 52.0005ZM7.90813 52.4763H7.89295C7.82379 52.4679 7.77318 52.4055 7.78162 52.3363C7.86258 51.6191 7.43921 51.1466 7.43415 51.1415C7.3886 51.0892 7.39198 51.0099 7.44427 50.9627C7.49487 50.9171 7.57246 50.9205 7.61969 50.9694C7.63993 50.9914 8.12741 51.528 8.03295 52.365C8.0262 52.4291 7.97222 52.4763 7.90813 52.4763Z" fill="#FFCF2D"/>
<path d="M36.6783 52.7092C36.464 52.9893 35.8534 53.3201 34.7655 53.3201H29.4707C29.577 52.3852 29.7962 51.0521 29.695 49.4321C30.2449 49.5452 30.2972 49.9451 30.8252 50.0902C31.4375 50.259 32.0278 49.9687 33.4953 50.4159C33.5189 50.4227 33.5426 50.4294 33.5662 50.4345L33.5864 50.4395C33.9895 50.5492 34.3792 50.6994 34.7537 50.885C36.1908 51.609 36.6344 52.5995 36.6766 52.7008C36.6782 52.7025 36.6783 52.7058 36.6783 52.7058V52.7092Z" fill="white"/>
<path d="M34.7647 53.3623H29.4699C29.4463 53.3623 29.4277 53.3437 29.4277 53.3201V53.315L29.4328 53.2796C29.6015 51.8385 29.7617 50.4784 29.6453 49.4456C29.642 49.422 29.6588 49.4017 29.6824 49.3984C29.7061 49.395 29.7263 49.4119 29.7297 49.4355C29.8477 50.475 29.6875 51.8368 29.5188 53.2779H34.7663C35.7953 53.2779 36.3991 52.9843 36.6319 52.7025C36.5577 52.5354 36.0837 51.5634 34.7174 50.8749C34.3463 50.691 33.9584 50.5425 33.5586 50.4328L33.5401 50.4277C33.5316 50.426 33.5249 50.4244 33.5165 50.421C33.4996 50.4176 33.4844 50.4125 33.4675 50.4075C33.1437 50.3079 32.7152 50.2252 32.5196 50.2084C32.496 50.2067 32.4791 50.1864 32.4808 50.1628C32.4825 50.1392 32.5027 50.1223 32.5263 50.124C32.727 50.1409 33.1639 50.2269 33.4912 50.3265C33.5063 50.3315 33.5215 50.3349 33.5367 50.3383C33.5451 50.34 33.5536 50.3434 33.562 50.345L33.5822 50.3501C33.9871 50.4615 34.3801 50.6117 34.7562 50.799C36.1883 51.5195 36.6623 52.554 36.7162 52.6822C36.7162 52.6822 36.7162 52.6839 36.7179 52.6839C36.7196 52.6873 36.7196 52.689 36.7213 52.6907L36.723 52.694C36.7281 52.7075 36.7264 52.7227 36.7179 52.7345C36.4801 53.0383 35.8459 53.3623 34.7647 53.3623Z" fill="#5B2448"/>
<path d="M29.7088 51.3592C29.692 51.3592 29.6818 51.3592 29.6802 51.3575C29.6565 51.3558 29.6397 51.3356 29.6414 51.312C29.643 51.2883 29.6633 51.2715 29.6869 51.2732C29.692 51.2732 30.0057 51.2951 30.4308 50.9964C30.5235 50.9306 30.5994 50.8715 30.6669 50.8209C30.925 50.6218 31.0684 50.5121 31.5879 50.4446C31.6115 50.4412 31.6317 50.4581 31.6351 50.4817C31.6385 50.5053 31.6216 50.5256 31.5997 50.529C31.1038 50.5931 30.9756 50.691 30.7209 50.8884C30.6534 50.9407 30.5758 50.9998 30.4814 51.0673C30.0968 51.3356 29.7999 51.3592 29.7088 51.3592ZM34.8552 52.9674C34.7658 52.9674 34.6764 52.964 34.5853 52.9573C34.1029 52.9201 33.5833 52.7868 33.0402 52.559C32.7079 52.419 32.5021 52.4544 32.3014 52.4881C32.131 52.5168 31.9556 52.5472 31.7144 52.4696C31.5238 52.4088 31.399 52.3093 31.2775 52.2131C31.1173 52.0865 30.9655 51.9667 30.6652 51.9262C30.0057 51.8368 29.6565 52.2435 29.6532 52.2485C29.638 52.2654 29.611 52.2671 29.5941 52.2519C29.5773 52.2367 29.5756 52.2114 29.5891 52.1945C29.6043 52.176 29.9703 51.7473 30.677 51.8435C30.9992 51.8874 31.1679 52.019 31.3298 52.1473C31.4496 52.2418 31.5643 52.3329 31.7397 52.3886C31.9607 52.4595 32.1192 52.4325 32.2862 52.4038C32.4971 52.3683 32.7163 52.3312 33.0706 52.4797C33.6036 52.7041 34.1147 52.8358 34.5886 52.8712C35.3106 52.9252 35.9516 52.7598 36.493 52.3768C36.5116 52.3633 36.5385 52.3683 36.552 52.3869C36.5655 52.4055 36.5605 52.4325 36.5419 52.446C36.0544 52.7936 35.4877 52.9674 34.8552 52.9674Z" fill="#5B2448"/>
<path d="M30.5917 53.0653C30.2442 53.0653 29.9727 52.8982 29.9727 52.6856C29.9727 52.473 30.2442 52.3059 30.5917 52.3059C30.9392 52.3059 31.2107 52.473 31.2107 52.6856C31.2107 52.8982 30.9392 53.0653 30.5917 53.0653ZM30.5917 52.3886C30.3016 52.3886 30.057 52.5236 30.057 52.6839C30.057 52.8442 30.3016 52.9792 30.5917 52.9792C30.8818 52.9792 31.1264 52.8442 31.1264 52.6839C31.1264 52.5236 30.8818 52.3886 30.5917 52.3886Z" fill="#5B2448"/>
<path d="M32.5835 51.5347C32.5144 51.5347 32.457 51.4773 32.457 51.4082C32.457 51.3913 32.4604 51.3744 32.4672 51.3575C32.4806 51.3272 32.7961 50.6235 33.7272 50.3248C33.7929 50.3029 33.8655 50.3383 33.8874 50.4058C33.9093 50.4716 33.8739 50.5442 33.8064 50.5661H33.8048C32.9884 50.8277 32.7033 51.4537 32.6999 51.4588C32.6797 51.506 32.6341 51.5347 32.5835 51.5347ZM33.2262 51.7828C33.157 51.7828 33.0997 51.7254 33.0997 51.6562C33.0997 51.636 33.1047 51.6174 33.1132 51.5988C33.1301 51.5668 33.5163 50.8226 34.4339 50.6083C34.5014 50.5931 34.5705 50.6353 34.5857 50.7028C34.6009 50.7703 34.5587 50.8395 34.4913 50.8547C33.6917 51.0403 33.3409 51.7068 33.3375 51.7136C33.3173 51.7558 33.2734 51.7828 33.2262 51.7828ZM33.9684 51.9819C33.8992 51.9819 33.8419 51.9245 33.8419 51.8553C33.8419 51.8351 33.8469 51.8132 33.857 51.7963C33.8722 51.7693 34.2264 51.1247 35.0631 50.9407C35.1306 50.9255 35.1997 50.9677 35.2149 51.0352C35.2301 51.1027 35.1879 51.1719 35.1204 51.1871H35.1171C34.3934 51.3457 34.0831 51.9093 34.0797 51.9161C34.0578 51.9549 34.0156 51.9819 33.9684 51.9819Z" fill="#FFCF2D"/>
<path d="M20.9116 27.7091C20.2487 28.3216 18.8993 28.811 17.5836 28.4398C15.9457 27.9774 14.598 28.3216 14.0414 29.8572C13.7192 30.7466 13.2857 31.3136 12.557 31.7472C11.1401 32.591 11.3088 34.616 12.8944 35.7972C13.8727 35.3247 20.8998 31.2663 20.8998 31.2663L21.959 28.0111L20.9116 27.7091ZM24.0945 38.2778C22.7788 39.2397 21.0566 40.0868 18.9836 40.3517C16.9763 40.6065 15.2727 40.1509 14.9691 40.8259C14.598 41.6528 19.2703 42.7834 24.0945 38.2778Z" fill="#5B2448"/>
<path d="M16.9998 40.4462C16.6557 42.5134 17.0605 45.0446 18.4605 48.5377C18.4605 48.5377 16.3521 47.4915 14.3448 45.5846C15.3569 46.614 13.4238 48.3319 13.0291 50.4277C12.8099 51.5921 12.874 52.0882 12.874 52.0882C12.874 52.0882 19.9246 55.0768 21.9589 52.6012C23.9931 50.1257 23.4871 44.2515 23.4871 44.2515C23.4871 44.2515 26.945 43.4247 28.7835 42.2805C28.8004 43.3909 29.2558 45.8378 29.5088 47.7109C29.5088 47.7109 31.2513 47.7412 32.8824 46.6478C34.4679 45.5846 35.6993 44.7578 36.239 45.4328C36.239 45.4328 34.5017 43.1715 33.0679 40.3197C32.0069 38.2103 30.8076 36.5903 24.0943 38.2778C17.295 39.9872 16.9998 40.4462 16.9998 40.4462Z" fill="#F94F46"/>
<path d="M19.8939 49.1959C19.9074 49.1959 19.9209 49.1874 19.9259 49.1739C19.9327 49.1571 19.9243 49.1368 19.9057 49.1301C19.8973 49.1267 19.0691 48.8179 18.418 48.4297L18.4585 48.531C19.1028 48.9022 19.8753 49.1908 19.8838 49.1925C19.8855 49.1959 19.8905 49.1959 19.8939 49.1959ZM28.8675 40.831C28.8692 40.8107 28.8574 40.7939 28.8388 40.7922C28.8202 40.7905 28.8034 40.8023 28.8017 40.8209C28.7393 41.3187 28.7106 41.8215 28.7157 42.3227C28.7376 42.3092 28.7612 42.2957 28.7831 42.2822C28.7781 41.7962 28.8068 41.3119 28.8675 40.831ZM23.1696 40.6116C23.1662 40.593 23.1493 40.5812 23.1308 40.5846C23.1122 40.588 23.1004 40.6049 23.1038 40.6234C23.345 41.9751 23.3956 42.7615 23.485 44.1908L23.4884 44.2498C23.4951 44.2481 23.5187 44.2431 23.5542 44.233L23.5508 44.1857C23.4631 42.7547 23.4125 41.9667 23.1696 40.6116Z" fill="#FCB6B1"/>
<path d="M25.5273 36.6578C26.4551 35.8647 26.8396 34.7526 27.096 34.0591C27.6021 32.6922 28.1756 32.051 28.7828 32.051C29.6498 32.051 28.7322 35.7466 25.5273 36.6578Z" fill="#5B2448"/>
<path d="M17.4473 35.4614C17.4439 35.4614 17.4406 35.4614 17.4389 35.4597C16.3813 35.1745 14.9037 34.6463 13.8764 33.7418C13.5425 33.4482 13.2928 33.1479 13.1326 32.8475C12.9892 32.5792 12.9285 32.326 12.9555 32.1168C12.9926 31.8333 13.1916 31.6646 13.4868 31.6646C14.0839 31.6646 14.4044 32.3227 14.7131 32.9605C14.8919 33.3301 15.0774 33.7115 15.3152 33.9713C16.2953 35.0395 17.4456 35.3939 17.4574 35.399C17.476 35.404 17.4861 35.4226 17.4794 35.4411C17.4743 35.4513 17.4625 35.4614 17.4473 35.4614ZM13.4851 31.7304C13.2237 31.7304 13.0533 31.8738 13.0212 32.1252C12.9538 32.6382 13.4413 33.271 13.9203 33.6912C14.7654 34.4354 15.9208 34.9231 16.889 35.2302C16.2784 34.9265 15.7285 34.5147 15.2663 34.0152C15.0218 33.7486 14.8345 33.3622 14.6524 32.9892C14.3369 32.3412 14.0401 31.7304 13.4851 31.7304Z" fill="#FFCF2D"/>
<path d="M34.0286 30.4647C32.7298 32.2029 32.7568 34.2903 31.0768 36.1853C29.2214 38.2778 27.4165 37.6534 25.5273 36.6578L27.5852 32.996C27.7539 33.1006 27.9597 33.244 28.1435 33.3757C28.1806 33.4027 28.2177 33.4297 28.2532 33.455C28.4589 33.6035 28.6141 33.7216 28.6141 33.7216C28.6141 33.7216 30.0479 30.6166 32.1226 28.4904C34.3812 26.1768 33.8431 27.4779 33.8431 27.4779C36.5082 25.5879 35.0576 27.2754 35.0576 27.2754C36.6313 26.3692 35.3899 27.7091 35.3899 27.7091C36.6516 27.1876 35.2971 28.3858 35.2684 28.4111C36.3193 27.8947 35.1368 28.9814 34.0286 30.4647Z" fill="#F4ADA2"/>
<path d="M28.1924 34.7088C28.1924 34.7324 28.211 34.751 28.2346 34.751C28.2548 34.751 28.2717 34.7375 28.2751 34.7189C28.3594 34.378 28.4724 34.0439 28.6124 33.7216C28.6091 33.7182 28.5838 33.6997 28.5433 33.6693C28.3982 34.0017 28.2801 34.3477 28.1924 34.7003V34.7088ZM33.1718 29.3578C33.1684 29.3628 33.1684 29.3696 33.1684 29.3763C33.1684 29.3999 33.1869 29.4185 33.2106 29.4185C33.2274 29.4185 33.2426 29.4084 33.2494 29.3949C33.391 29.0894 33.4754 28.7958 33.5563 28.5123C33.6592 28.1546 33.7655 27.7833 33.9898 27.3885C33.9932 27.3834 33.9949 27.3766 33.9949 27.3699C33.9477 27.4036 33.8971 27.4374 33.8465 27.4745C33.6626 27.8289 33.5665 28.163 33.4737 28.4887C33.3944 28.7688 33.3118 29.0591 33.1718 29.3578ZM34.1956 28.0618C34.1855 28.0702 34.1804 28.082 34.1804 28.0938C34.1804 28.1174 34.199 28.136 34.2226 28.136C34.2327 28.136 34.2429 28.1326 34.2496 28.1259C34.2564 28.1191 34.9648 27.5285 35.2836 27.159L35.2853 27.1573C35.2887 27.1539 35.2903 27.1488 35.292 27.1455C35.2246 27.1809 35.1487 27.2231 35.066 27.2703C34.7185 27.6247 34.2024 28.0567 34.1956 28.0618ZM34.4841 28.4819C34.4841 28.5056 34.5026 28.5241 34.5262 28.5241C34.5347 28.5241 34.5431 28.5208 34.5515 28.5157C34.5583 28.5106 35.1824 28.0533 35.5855 27.6348C35.5299 27.6534 35.4658 27.6787 35.3915 27.7091C35.0019 28.082 34.5077 28.4448 34.5026 28.4482C34.4908 28.4566 34.4841 28.4684 34.4841 28.4819ZM34.6527 28.8869C34.6527 28.9106 34.6713 28.9291 34.6949 28.9291C34.7033 28.9291 34.7118 28.9274 34.7185 28.9224C34.7236 28.919 35.1807 28.6136 35.5164 28.3115C35.5197 28.3098 35.5214 28.3064 35.5231 28.3031C35.459 28.3233 35.3764 28.3588 35.2667 28.4128C34.9766 28.649 34.6747 28.8498 34.6713 28.8532C34.6595 28.8599 34.6527 28.8734 34.6527 28.8869ZM28.2532 33.455C27.6527 34.2278 27.0454 36.0672 25.5273 36.6578L27.5852 32.996C27.7539 33.1006 27.9597 33.244 28.1435 33.3757C28.1806 33.4027 28.2177 33.4297 28.2532 33.455Z" fill="#9B3C82"/>
<path d="M23.0225 30.6841C23.5859 30.0884 24.4984 30.8866 25.6792 31.4435C26.8599 32.0004 28.7828 32.051 28.7828 32.051C28.7828 32.051 27.8382 31.9835 27.096 34.0591C26.3134 36.2495 25.5273 36.6578 25.5273 36.6578C24.7346 36.2191 23.4358 35.2572 23.4358 35.2572C23.655 36.6916 24.0936 38.2778 24.0936 38.2778C23.0309 39.0034 21.9514 39.8641 19.1345 40.3197C17.1003 40.6487 15.3393 40.134 14.9682 40.8259C15.761 39.0372 16.5369 36.9278 16.8911 35.9322C17.0935 35.7128 17.4477 35.426 17.4477 35.426C17.4477 35.426 15.8521 34.7847 15.0525 33.7047C14.3272 32.726 14.2766 31.7641 13.332 31.6797C13.8381 31.5785 14.6477 31.6122 16.5369 30.7179C18.9304 29.5856 20.0622 29.3173 20.4839 30.3129L23.0225 30.6841Z" fill="#FFCF2D"/>
<path d="M23.0144 30.7179C23.0144 30.6993 22.9992 30.6841 22.9807 30.6841H22.979C22.9604 30.6841 22.9452 30.6993 22.9452 30.7179C22.9317 32.186 23.3079 34.4978 23.4411 35.2623C23.4529 35.2707 23.4799 35.291 23.5204 35.3196C23.4007 34.6379 23.0009 32.2282 23.0144 30.7179ZM19.5599 33.0837C19.57 33.0685 19.5666 33.0466 19.5515 33.0365C19.5363 33.0264 19.5144 33.0297 19.5042 33.0449C18.8919 33.9308 18.1396 34.7611 17.3789 35.3956C17.4228 35.4141 17.4481 35.4243 17.4481 35.426C18.2054 34.7915 18.951 33.9646 19.5599 33.0837ZM20.3544 31.5954C20.351 31.6004 20.3493 31.6072 20.3493 31.6122C20.3493 31.6308 20.3645 31.646 20.383 31.646C20.3948 31.646 20.4066 31.6392 20.4117 31.6291C20.4151 31.6224 20.771 31.0064 20.5568 30.323L20.4842 30.3129C20.4826 30.3078 20.4792 30.3027 20.4775 30.2994C20.7153 30.9693 20.3577 31.5886 20.3544 31.5954Z" fill="white"/>
<path d="M24.7994 28.5326C24.6307 28.6996 23.9813 28.7638 23.6625 28.7604C23.6591 28.7621 23.6541 28.7638 23.6507 28.7671C23.2223 28.9646 23.062 30.0243 23.0249 30.6824C23.0182 30.7904 23.0165 30.8883 23.0165 30.9693C22.6454 31.2731 21.6165 31.6612 20.4863 30.3112C20.4863 30.3112 21.5153 29.3662 21.7345 28.3874C21.7413 28.3469 21.6502 27.9386 21.5878 27.6855C21.5591 27.5707 21.5372 27.488 21.5321 27.488C21.463 27.515 21.4006 27.5403 21.3449 27.5606C21.3365 27.564 21.3297 27.5673 21.3213 27.569L21.3044 27.5758C21.2943 27.5791 21.2859 27.5825 21.2757 27.5859C21.2555 27.5926 21.2353 27.6011 21.215 27.6078C21.2083 27.6112 21.1998 27.6129 21.1931 27.6163C21.1222 27.6416 21.0632 27.6618 21.0143 27.677C21.0126 27.677 21.0126 27.6787 21.0109 27.6787C21.0042 27.6804 20.9957 27.6838 20.989 27.6855C20.9856 27.6871 20.9805 27.6871 20.9772 27.6888C20.9738 27.6905 20.9721 27.6905 20.9687 27.6922H20.9654L20.9502 27.6973C20.9434 27.699 20.9384 27.7006 20.9316 27.704V27.7023L20.935 27.6652L20.9451 27.5656L20.9502 27.5066L21.2302 24.6615C21.2369 24.6581 21.2454 24.6547 21.2521 24.6497C21.2589 24.6446 21.2673 24.6412 21.274 24.6378C21.2757 24.6378 21.2757 24.6362 21.2774 24.6362C21.5018 24.518 21.743 24.4404 21.9926 24.405C22.2338 24.3729 22.4784 24.3898 22.7112 24.4556C22.7398 24.464 22.7668 24.4725 22.7955 24.4809C22.8242 24.4894 22.8512 24.4995 22.8782 24.5096C22.9051 24.5197 22.9321 24.5315 22.9591 24.5433C23.0182 24.5687 23.0755 24.5973 23.1312 24.6294C23.1531 24.6412 23.1733 24.653 23.1936 24.6665C23.2442 24.6969 23.2931 24.7307 23.342 24.7661C23.3656 24.783 23.3893 24.8015 23.4129 24.8201C23.4247 24.8285 23.4365 24.8387 23.4483 24.8488C23.4719 24.8673 23.4938 24.8876 23.5158 24.9078C23.5276 24.918 23.5394 24.9298 23.5512 24.9399L23.5664 24.9551L23.6018 24.9905L23.6271 25.0158L23.6524 25.0428C23.6608 25.0513 23.6693 25.0597 23.6777 25.0698C23.703 25.0968 23.7266 25.1238 23.7502 25.1508C23.7587 25.1593 23.7654 25.1694 23.7738 25.1778C23.7823 25.1863 23.789 25.1964 23.7974 25.2065L23.843 25.2622C23.8565 25.2791 23.8683 25.296 23.8818 25.3112C23.8987 25.3331 23.9155 25.3567 23.9324 25.3787C23.9459 25.3972 23.9611 25.4175 23.9746 25.436C24.015 25.4934 24.0538 25.5542 24.0909 25.6132C24.1281 25.6723 24.0909 25.6149 24.0926 25.6149C24.1297 25.6757 24.1652 25.7381 24.1989 25.8005C24.2107 25.8208 24.2225 25.8427 24.2343 25.863C24.2681 25.922 24.3018 25.9811 24.3372 26.0402C24.3844 26.1161 24.4384 26.2089 24.5059 26.2697C24.5734 26.3287 24.6611 26.3523 24.7454 26.3709C24.9293 26.4063 24.8348 26.6578 24.7302 26.7607C24.8365 27.0915 25.2126 28.1225 24.7994 28.5326Z" fill="#F4ADA2"/>
<path d="M24.2361 25.863C23.1633 26.8805 21.959 27.3125 21.959 27.3125L23.4484 26.1245L24.0506 25.6453L24.0927 25.6115C24.0927 25.6115 24.0927 25.6132 24.0944 25.6132C24.1433 25.6959 24.1889 25.7803 24.2361 25.863Z" fill="#9B3C82"/>
<path opacity="0.52" d="M23.6009 27.6638C23.6583 27.4207 23.5079 27.1772 23.2649 27.1198C23.0219 27.0624 22.7784 27.2129 22.7211 27.456C22.6637 27.699 22.8142 27.9426 23.0571 28C23.3001 28.0574 23.5436 27.9069 23.6009 27.6638Z" fill="#E57281"/>
<path d="M23.3571 26.2831C23.1749 26.4536 23.1462 26.6949 23.239 26.7708C23.3318 26.8468 23.5477 26.7624 23.6944 26.5616C23.8462 26.354 23.9002 26.1397 23.8125 26.0739C23.7214 26.0064 23.5375 26.1144 23.3571 26.2831Z" fill="#5B2448"/>
<path d="M24.5917 27.5943C24.5698 27.6196 24.5428 27.6416 24.5124 27.6551C24.4821 27.6686 24.45 27.6787 24.418 27.6838C24.3522 27.6939 24.2847 27.6838 24.2223 27.6568C24.192 27.6416 24.1633 27.623 24.1397 27.6011C24.1144 27.5775 24.0941 27.5521 24.0773 27.5235C24.0435 27.4661 24.0317 27.3969 24.0435 27.3311C24.0486 27.3108 24.0688 27.2973 24.0891 27.3024C24.1042 27.3058 24.116 27.3193 24.1194 27.3345V27.3361C24.1279 27.4053 24.1633 27.4695 24.2173 27.515C24.2341 27.5302 24.2544 27.542 24.2746 27.5521C24.3168 27.5707 24.3623 27.5808 24.4095 27.5791C24.4568 27.5791 24.5023 27.5673 24.5428 27.5437L24.5445 27.542C24.563 27.5302 24.585 27.537 24.5968 27.5538C24.6035 27.564 24.6035 27.5825 24.5917 27.5943Z" fill="#9B3C82"/>
<path d="M23.742 26.7236C23.8078 26.6409 23.9714 26.4435 24.076 26.2055C24.0912 26.1718 24.13 26.1566 24.162 26.1718C24.2481 26.2106 24.3763 26.2966 24.2852 26.4502C24.1722 26.6392 23.8736 26.8012 23.7589 26.7776C23.7403 26.7742 23.7285 26.7556 23.7336 26.7371C23.737 26.732 23.7387 26.7286 23.742 26.7236Z" fill="#5B2448"/>
<path d="M21.0827 27.7918C21.0692 27.8002 21.0506 27.8086 21.0321 27.8171C20.5227 28.0499 18.1932 28.6726 17.8997 28.0331C17.6653 27.5218 19.1564 26.8063 19.8581 26.5025C19.8851 26.4907 19.9121 26.4789 19.9357 26.4688C20.0892 26.403 20.1921 26.3625 20.2072 26.3574H20.2089L21.0827 27.7918Z" fill="#F94F46"/>
<path d="M21.082 27.7918C21.0685 27.8002 21.05 27.8086 21.0314 27.8171C20.7835 27.7732 20.0396 27.4931 19.8574 26.5025C19.8844 26.4907 19.9114 26.4789 19.935 26.4688C20.0885 26.403 20.1914 26.3625 20.2066 26.3574H20.2083C20.21 26.3574 20.5389 27.4036 21.082 27.7918Z" fill="#5B2448"/>
<path d="M24.0935 25.6149C24.0446 25.6773 23.9721 25.76 23.908 25.8275C23.908 25.8292 23.9063 25.8292 23.9063 25.8292C23.8034 25.9372 23.6752 26.0621 23.5318 26.1937C23.52 26.2038 23.5082 26.214 23.4998 26.2241C23.0292 26.6476 22.4068 27.1252 21.9598 27.3142C21.8096 27.3783 21.6814 27.4306 21.5701 27.4762L21.5296 27.4914C21.4605 27.5184 21.3981 27.5437 21.3424 27.564C21.334 27.5673 21.3272 27.569 21.3188 27.5724L21.3019 27.5791C21.2918 27.5825 21.2834 27.5859 21.2733 27.5893C21.253 27.5977 21.2328 27.6045 21.2125 27.6112C21.2058 27.6146 21.1973 27.6163 21.1906 27.6196C21.1181 27.6449 21.0573 27.6652 21.0084 27.6821C21.0017 27.6838 20.9932 27.6871 20.9865 27.6888C20.9798 27.6905 20.973 27.6922 20.9663 27.6956C20.9595 27.6989 20.9241 27.7057 20.9089 27.7108C19.88 26.9463 19.9441 25.355 21.2294 24.6632C21.2429 24.6564 21.2581 24.648 21.2716 24.6412C21.2733 24.6412 21.2733 24.6395 21.2749 24.6395C21.4993 24.5214 21.7405 24.4438 21.9901 24.4083C22.5518 24.3324 23.1 24.5282 23.515 24.9078C23.5436 24.9348 23.5723 24.9618 23.5993 24.9888C23.7359 25.1272 23.8607 25.2774 23.9721 25.436C24.0176 25.4934 24.0564 25.5542 24.0935 25.6149Z" fill="#F94F46"/>
<path d="M21.9583 27.3142C21.9583 27.3142 21.4489 27.078 21.0575 27.3851C20.6898 27.6753 20.9648 28.298 21.8284 28.4043C22.0038 28.4212 22.1792 28.4111 22.3513 28.3723L21.9583 27.3142Z" fill="#F4ADA2"/>
<path d="M23.6633 28.7621C23.4541 28.7503 23.2804 28.7182 23.0459 28.6625C22.9295 28.6355 22.744 28.5748 22.6732 28.6591C22.5821 28.7654 22.7929 29.1569 23.2483 29.3611C23.3445 29.0759 23.4744 28.8498 23.6515 28.7688C23.6549 28.7654 23.6582 28.7638 23.6633 28.7621Z" fill="#5B2448"/>
<path d="M22.1284 28.4195C22.1503 28.4111 22.1604 28.3874 22.152 28.3655C22.1435 28.3436 22.1199 28.3318 22.098 28.3402C22.0946 28.3419 21.9428 28.3959 21.7337 28.3874C21.7269 28.4161 21.7202 28.4448 21.7117 28.4735C21.7337 28.4752 21.7539 28.4752 21.7758 28.4752C21.8956 28.4769 22.0153 28.4583 22.1284 28.4195ZM22.1486 27.9673C22.1385 27.9673 22.1284 27.9639 22.1199 27.9554C21.7387 27.6011 21.371 27.7664 21.3558 27.7732C21.3339 27.7816 21.3103 27.7715 21.3002 27.7513C21.2917 27.731 21.3002 27.7074 21.3187 27.6973C21.3356 27.6888 21.7505 27.4998 22.1756 27.893C22.1925 27.9082 22.1941 27.9352 22.1773 27.9521C22.1705 27.9622 22.1604 27.9673 22.1486 27.9673Z" fill="#9B3C82"/>
<path d="M24.0946 25.6149C24.0457 25.6773 23.9732 25.76 23.9091 25.8275C23.9091 25.8292 23.9074 25.8292 23.9074 25.8292C23.8045 25.9372 23.6763 26.0621 23.5329 26.1937C23.5211 26.2038 23.5093 26.214 23.5009 26.2241C23.3575 26.1076 23.1939 25.8343 23.2057 25.598C23.2175 25.3618 23.3474 25.1475 23.6054 24.9905C23.7421 25.1289 23.8669 25.2791 23.9782 25.4377C24.0187 25.4934 24.0575 25.5542 24.0946 25.6149Z" fill="#5B2448"/>
<path d="M24.8365 38.8178C25.0052 38.9697 25.3088 39.1891 25.798 39.7291C26.692 40.7162 25.5146 40.161 25.4944 40.1509C26.2332 41.1381 24.398 39.9653 24.398 39.9653C25.8149 41.4334 23.6221 40.0159 21.7076 39.6464C20.2199 39.3595 17.8095 39.9957 15.5509 39.5029C14.9032 39.3612 14.2673 39.1283 13.6701 38.752C11.5448 37.4172 13.0089 34.7223 13.9434 33.3402C14.1475 33.0398 14.3263 32.8002 14.4376 32.6517C14.6012 32.9639 14.775 33.325 15.0415 33.6862C15.0449 33.6912 15.0499 33.698 15.0533 33.703C15.195 33.892 15.3552 34.0658 15.529 34.2245C15.5425 34.2363 15.5559 34.2498 15.5694 34.2616C15.6825 34.3628 15.8005 34.459 15.9186 34.5468C15.9338 34.5586 15.9473 34.5687 15.9625 34.5805C15.9793 34.5923 15.9962 34.6058 16.0131 34.6176L16.0637 34.6531C16.0974 34.6767 16.1294 34.7003 16.1632 34.7223L16.2087 34.7526C16.2273 34.7645 16.2458 34.778 16.2627 34.7898C16.2779 34.7999 16.2947 34.81 16.3099 34.8201C16.3268 34.8303 16.342 34.8404 16.3588 34.8505C16.3673 34.8556 16.3757 34.8623 16.3858 34.8674C16.401 34.8775 16.4179 34.8876 16.4331 34.8978C16.4482 34.9079 16.4651 34.918 16.4803 34.9265C16.4955 34.9349 16.5107 34.945 16.5275 34.9551C16.541 34.9636 16.5545 34.9703 16.5663 34.9788C16.5849 34.9906 16.6034 35.0007 16.622 35.0108C16.6338 35.0176 16.6473 35.0243 16.6591 35.0328C16.6793 35.0446 16.6979 35.0547 16.7164 35.0648C16.7266 35.0699 16.735 35.075 16.7451 35.08C16.8801 35.1543 17.0032 35.2184 17.1061 35.269L17.1314 35.2808C17.2174 35.323 17.2899 35.3551 17.3439 35.3787C17.349 35.3821 17.3557 35.3838 17.3608 35.3855C17.4097 35.4074 17.4401 35.4192 17.4468 35.4226H17.4451L17.4434 35.4243L16.9846 35.8478L16.8919 35.9322H16.9104C18.4606 35.9626 21.716 36.8384 23.956 37.7665H23.9611C24.2495 37.7547 24.511 37.7041 24.7859 37.6534C25.4269 37.5353 25.4775 37.6703 24.8365 38.1597C25.4438 38.4466 25.8267 38.6963 26.0763 38.9359C27.0799 39.8978 25.4775 39.1216 24.8365 38.8178Z" fill="#F4ADA2"/>
<path d="M17.4468 35.426V35.4293C16.5713 35.3247 14.6653 34.5822 13.9434 33.3419C14.1475 33.0415 14.3263 32.8019 14.4376 32.6534C14.6012 32.9656 14.7749 33.3267 15.0414 33.6878C15.0448 33.6929 15.0499 33.6997 15.0533 33.7047C15.1949 33.8937 15.3552 34.0675 15.5289 34.2262C15.5424 34.238 15.5559 34.2515 15.5694 34.2633C15.6824 34.3645 15.8005 34.4607 15.9186 34.5485C15.9337 34.5603 15.9472 34.5704 15.9624 34.5822C15.9793 34.594 15.9962 34.6075 16.013 34.6193L16.0636 34.6548C16.0974 34.6784 16.1294 34.702 16.1631 34.724L16.2087 34.7543C16.2272 34.7662 16.2458 34.7797 16.2627 34.7915C16.2778 34.8016 16.2947 34.8117 16.3099 34.8218C16.3268 34.832 16.3419 34.8421 16.3588 34.8522C16.3672 34.8573 16.3757 34.864 16.3858 34.8691C16.401 34.8792 16.4178 34.8893 16.433 34.8995C16.4482 34.9096 16.4651 34.9197 16.4803 34.9282C16.4954 34.9366 16.5106 34.9467 16.5275 34.9568C16.541 34.9653 16.5545 34.972 16.5663 34.9805C16.5848 34.9923 16.6034 35.0024 16.6219 35.0125C16.6337 35.0193 16.6472 35.026 16.6591 35.0345C16.6793 35.0463 16.6978 35.0564 16.7164 35.0665C16.7265 35.0716 16.735 35.0767 16.7451 35.0817C16.88 35.156 17.0032 35.2201 17.106 35.2707L17.1313 35.2825C17.2174 35.3247 17.2899 35.3568 17.3439 35.3804C17.3489 35.3838 17.3557 35.3855 17.3607 35.3872C17.4097 35.4108 17.44 35.4226 17.4468 35.426ZM24.4047 39.2093C24.3929 39.2296 24.3996 39.2549 24.4199 39.2667C24.7758 39.481 25.1283 39.8016 25.496 40.1509V40.1492C25.5011 40.1526 25.5955 40.1965 25.7102 40.2387C25.2818 39.8269 24.877 39.4422 24.4637 39.1941C24.4418 39.1823 24.4165 39.1891 24.4047 39.2093ZM24.1264 39.6514C24.1078 39.6396 24.0808 39.6447 24.069 39.6632C24.0555 39.6818 24.0606 39.7088 24.0808 39.7223C24.0825 39.724 24.2461 39.8303 24.4182 39.9771C24.462 40.0041 24.5801 40.0784 24.7285 40.1644C24.5042 39.8995 24.1415 39.6616 24.1264 39.6514ZM24.9141 38.0989C24.7842 38.0399 24.4755 37.9015 24.1415 37.753C24.0825 37.7581 24.0218 37.7631 23.9611 37.7648C24.3186 37.9218 24.6661 38.0838 24.8365 38.1597C24.8618 38.1411 24.8905 38.1192 24.9141 38.0989ZM24.4705 38.6508C24.4485 38.6423 24.4249 38.6541 24.4165 38.6761C24.408 38.698 24.4199 38.7216 24.4418 38.7301C24.4452 38.7318 24.7825 38.8617 25.1991 39.1283C25.0473 38.9933 24.9326 38.9022 24.85 38.8279C24.6256 38.7115 24.4755 38.6524 24.4705 38.6508C24.4721 38.6524 24.4721 38.6508 24.4705 38.6508ZM16.8918 35.9322C16.8969 35.9322 15.8612 35.9491 15.8562 35.9491H15.8545C15.8308 35.9491 15.8123 35.9305 15.8123 35.9069C15.8123 35.8833 15.8308 35.8647 15.8545 35.8647C15.8595 35.8647 16.3942 35.8495 16.9863 35.8478L16.8918 35.9322Z" fill="#9B3C82"/>
</g>
<g clip-path="url(#clip4_2902_40969)">
<path d="M38.1811 53.1198L43.6243 33.2995L42.7936 33.2892L37.6543 53.1198H38.1811Z" fill="#5B2448"/>
<path d="M37.1152 53.4659C37.1146 53.3523 37.1365 53.2397 37.1795 53.1346C37.2225 53.0295 37.2859 52.9339 37.366 52.8534C37.4461 52.7728 37.5412 52.7089 37.6461 52.6653C37.7509 52.6217 37.8634 52.5992 37.9769 52.5992C38.0905 52.5992 38.2029 52.6217 38.3077 52.6653C38.4126 52.7089 38.5078 52.7728 38.5878 52.8534C38.6679 52.9339 38.7313 53.0295 38.7743 53.1346C38.8173 53.2397 38.8392 53.3523 38.8386 53.4659H37.1152ZM45.3456 33.1248L45.1986 52.6313L45.1978 52.7101V52.7107L45.1938 53.2649H44.667L44.6629 52.7107L44.6626 52.7101L44.6621 52.6313L44.5152 33.1352L45.3456 33.1248Z" fill="#5B2448"/>
<path d="M45.7918 53.5296H44.0684C44.0683 53.3637 44.1162 53.2013 44.2061 53.0619C44.296 52.9225 44.4243 52.8121 44.5754 52.7439C44.5791 52.7419 44.5829 52.7402 44.5868 52.7389C44.595 52.7353 44.6031 52.732 44.6112 52.7288C44.6122 52.7284 44.6132 52.728 44.6142 52.7275C44.6223 52.7244 44.6302 52.7216 44.6383 52.7186C44.6464 52.7156 44.6543 52.7128 44.6624 52.7102C44.8363 52.6534 45.0237 52.6534 45.1976 52.7102C45.2138 52.7152 45.23 52.7211 45.246 52.7276C45.247 52.7281 45.248 52.7285 45.249 52.7289C45.2572 52.7321 45.2653 52.7354 45.2731 52.7388C45.2732 52.7388 45.2733 52.7388 45.2733 52.7388C45.2734 52.7389 45.2734 52.739 45.2734 52.739C45.4274 52.8059 45.5585 52.9164 45.6506 53.0568C45.7427 53.1973 45.7918 53.3616 45.7918 53.5296ZM52.3418 53.1254H51.8149L51.6933 52.6825L51.691 52.6744L51.673 52.6087L46.3716 33.3051L47.2023 33.2947L52.1953 52.5601L52.2138 52.6315L52.2166 52.6422L52.3418 53.1254Z" fill="#5B2448"/>
<path d="M52.8818 53.4715H51.1583C51.1596 53.2437 51.2509 53.0255 51.4124 52.8649C51.5738 52.7042 51.7923 52.614 52.0201 52.614C52.2478 52.614 52.4663 52.7042 52.6278 52.8649C52.7893 53.0255 52.8806 53.2437 52.8818 53.4715ZM47.1969 32.9294H42.7832L43.7923 29.8296C43.8714 29.5866 44.0254 29.3749 44.2321 29.2247C44.4388 29.0746 44.6877 28.9937 44.9432 28.9937C45.1931 28.9937 45.4368 29.0711 45.641 29.2152C45.8452 29.3594 45.9997 29.5632 46.0835 29.7987L47.1969 32.9294Z" fill="#5B2448"/>
<path d="M48.3445 32.9129V33.6261C48.3445 33.6758 48.3248 33.7234 48.2897 33.7585C48.2545 33.7937 48.2069 33.8134 48.1572 33.8134H41.7769C41.7523 33.8134 41.7279 33.8086 41.7052 33.7991C41.6825 33.7897 41.6619 33.7759 41.6446 33.7585C41.6272 33.7411 41.6134 33.7205 41.604 33.6977C41.5946 33.675 41.5898 33.6507 41.5898 33.6261V32.9129C41.5898 32.8883 41.5946 32.8639 41.604 32.8412C41.6134 32.8185 41.6272 32.7978 41.6445 32.7804C41.6619 32.763 41.6825 32.7492 41.7052 32.7398C41.7279 32.7304 41.7523 32.7255 41.7769 32.7255H48.1573C48.2069 32.7255 48.2545 32.7453 48.2897 32.7804C48.3248 32.8156 48.3445 32.8632 48.3445 32.9129Z" fill="#9B3C82"/>
<path d="M40.4238 24.396L44.5136 22.2312L46.1541 29.4709C46.1779 29.7254 46.1206 29.9808 45.9904 30.2008C45.8602 30.4207 45.6639 30.5938 45.4294 30.6952C45.2 30.7945 44.9456 30.8203 44.701 30.7691C44.4564 30.7179 44.2336 30.5922 44.0633 30.4093L40.4238 24.396Z" fill="#5B2448"/>
<path d="M44.9308 31.3035C45.9399 31.3035 46.758 30.4851 46.758 29.4754C46.758 28.4658 45.9399 27.6474 44.9308 27.6474C43.9216 27.6474 43.1035 28.4658 43.1035 29.4754C43.1035 30.4851 43.9216 31.3035 44.9308 31.3035Z" fill="#9B3C82"/>
<path d="M44.9295 30.4503C45.4676 30.4503 45.9039 30.0138 45.9039 29.4755C45.9039 28.9371 45.4676 28.5006 44.9295 28.5006C44.3913 28.5006 43.9551 28.9371 43.9551 29.4755C43.9551 30.0138 44.3913 30.4503 44.9295 30.4503Z" fill="#5B2448"/>
<path d="M47.5119 32.0443V32.7255H42.4297V32.0443C42.4297 32.0112 42.4362 31.9785 42.4488 31.9479C42.4614 31.9174 42.48 31.8896 42.5033 31.8662C42.5267 31.8428 42.5545 31.8243 42.585 31.8117C42.6155 31.799 42.6483 31.7925 42.6813 31.7925H47.2602C47.2933 31.7925 47.326 31.799 47.3565 31.8117C47.3871 31.8243 47.4148 31.8429 47.4382 31.8663C47.4615 31.8896 47.4801 31.9174 47.4927 31.9479C47.5054 31.9785 47.5119 32.0112 47.5119 32.0443Z" fill="#9B3C82"/>
<path d="M52.7101 21.3625C53.7074 21.3625 54.5159 20.5537 54.5159 19.5559C54.5159 18.5581 53.7074 17.7493 52.7101 17.7493C51.7128 17.7493 50.9043 18.5581 50.9043 19.5559C50.9043 20.5537 51.7128 21.3625 52.7101 21.3625Z" fill="#66B0F0"/>
<path d="M33.8478 28.3928L32.0949 27.6757C31.9681 27.6238 31.8232 27.6846 31.7713 27.8116L31.6262 28.1666C31.5743 28.2935 31.6351 28.4385 31.762 28.4904L33.5148 29.2074C33.6417 29.2593 33.7866 29.1985 33.8384 29.0716L33.9836 28.7165C34.0354 28.5896 33.9746 28.4447 33.8478 28.3928Z" fill="#9B3C82"/>
<path d="M33.4908 28.321L35.6826 27.2541L36.2912 28.5054L34.0993 29.5723C34.0312 29.6055 33.9571 29.625 33.8814 29.6295C33.8057 29.6341 33.7299 29.6237 33.6582 29.5989C33.5866 29.5741 33.5205 29.5355 33.4637 29.4852C33.407 29.4349 33.3607 29.3738 33.3275 29.3056L33.2242 29.0932C33.191 29.025 33.1716 28.9509 33.1671 28.8752C33.1625 28.7994 33.1729 28.7236 33.1977 28.6519C33.2224 28.5802 33.261 28.514 33.3113 28.4573C33.3616 28.4005 33.4226 28.3542 33.4908 28.321L33.4908 28.321Z" fill="#5B2448"/>
<path d="M38.9467 25.3512L34.2524 27.6362C34.1292 27.6962 34.0779 27.8447 34.1379 27.968L34.7523 29.2314C34.8122 29.3547 34.9607 29.406 35.084 29.346L39.7782 27.061C39.9015 27.001 39.9527 26.8524 39.8928 26.7292L39.2784 25.4658C39.2184 25.3425 39.0699 25.2912 38.9467 25.3512Z" fill="#9B3C82"/>
<path d="M45.7583 21.4858L39.1665 24.6945C39.0433 24.7545 38.992 24.903 39.0519 25.0263L40.0566 27.0921C40.1165 27.2154 40.265 27.2667 40.3883 27.2067L46.9801 23.9981C47.1033 23.9381 47.1546 23.7895 47.0946 23.6662L46.09 21.6004C46.03 21.4771 45.8815 21.4258 45.7583 21.4858Z" fill="#9B3C82"/>
<path d="M51.5116 18.1526L45.9849 20.8429C45.8616 20.9029 45.8103 21.0515 45.8703 21.1747L47.2384 23.9879C47.2983 24.1112 47.4468 24.1625 47.5701 24.1025L53.0969 21.4122C53.2201 21.3523 53.2714 21.2037 53.2114 21.0804L51.8433 18.2673C51.7834 18.144 51.6349 18.0926 51.5116 18.1526Z" fill="#9B3C82"/>
<path d="M38.9688 24.6045L38.6919 24.7393C38.5687 24.7993 38.5174 24.9478 38.5773 25.0711L39.7287 27.4386C39.7886 27.5619 39.9371 27.6132 40.0604 27.5532L40.3372 27.4184C40.4605 27.3584 40.5118 27.2099 40.4518 27.0866L39.3005 24.7191C39.2405 24.5958 39.092 24.5445 38.9688 24.6045Z" fill="#5B2448"/>
<path d="M45.9238 20.7159L45.647 20.8507C45.5237 20.9107 45.4724 21.0593 45.5324 21.1826L47.023 24.2477C47.083 24.371 47.2315 24.4223 47.3547 24.3623L47.6316 24.2275C47.7549 24.1676 47.8062 24.019 47.7462 23.8957L46.2555 20.8305C46.1956 20.7073 46.0471 20.6559 45.9238 20.7159Z" fill="#5B2448"/>
<path d="M51.913 17.4255L51.3989 17.6758C51.2757 17.7357 51.2244 17.8843 51.2843 18.0076L53.0175 21.5715C53.0775 21.6948 53.226 21.7461 53.3492 21.6861L53.8633 21.4359C53.9865 21.3759 54.0378 21.2273 53.9779 21.104L52.2447 17.5402C52.1847 17.4169 52.0362 17.3656 51.913 17.4255Z" fill="#5B2448"/>
<path d="M31.9599 27.3957L31.8717 27.3596C31.7527 27.3109 31.6168 27.368 31.5681 27.487L31.2543 28.2549C31.2057 28.3739 31.2627 28.5099 31.3817 28.5586L31.4698 28.5946C31.5888 28.6433 31.7248 28.5863 31.7734 28.4672L32.0872 27.6994C32.1359 27.5803 32.0789 27.4443 31.9599 27.3957Z" fill="#5B2448"/>
<path d="M42.4297 32.6495H47.5119V32.7255H42.4297V32.6495Z" fill="#5B2448"/>
<path d="M54.1545 19.5457C54.1393 19.5457 54.1246 19.5401 54.1133 19.53C54.102 19.5199 54.0947 19.5059 54.093 19.4909C53.9812 18.5252 53.1919 18.2102 52.9242 18.1759C52.916 18.175 52.9081 18.1725 52.901 18.1685C52.8938 18.1645 52.8875 18.1591 52.8824 18.1526C52.8773 18.1461 52.8736 18.1387 52.8714 18.1308C52.8692 18.1229 52.8686 18.1146 52.8696 18.1064C52.8707 18.0983 52.8733 18.0904 52.8774 18.0833C52.8816 18.0762 52.887 18.07 52.8936 18.065C52.9001 18.06 52.9076 18.0564 52.9155 18.0543C52.9235 18.0522 52.9318 18.0518 52.9399 18.053C53.3761 18.1087 54.1082 18.5446 54.2161 19.4766C54.217 19.4847 54.2164 19.4929 54.2141 19.5007C54.2119 19.5085 54.2081 19.5159 54.2031 19.5222C54.198 19.5286 54.1917 19.5339 54.1846 19.5379C54.1775 19.5418 54.1697 19.5443 54.1616 19.5453C54.1592 19.5456 54.1568 19.5457 54.1545 19.5457ZM53.9893 20.3528C53.9782 20.3528 53.9673 20.3498 53.9578 20.3442C53.9483 20.3386 53.9404 20.3305 53.9351 20.3208C53.9297 20.3111 53.9271 20.3002 53.9274 20.2891C53.9277 20.2781 53.9309 20.2673 53.9368 20.2579C54.0139 20.1336 54.067 19.9959 54.0932 19.852C54.0955 19.8358 54.1042 19.8211 54.1173 19.8112C54.1304 19.8013 54.1469 19.797 54.1632 19.7993C54.1795 19.8016 54.1942 19.8103 54.204 19.8235C54.2139 19.8366 54.2182 19.8531 54.2159 19.8694C54.1874 20.0306 54.1283 20.1848 54.0418 20.3238C54.0362 20.3327 54.0285 20.34 54.0193 20.3451C54.0101 20.3502 53.9998 20.3528 53.9893 20.3528Z" fill="#B0DCF7"/>
<path d="M52.2141 52.6316L52.1956 52.5601C52.0204 52.527 51.8394 52.5439 51.6733 52.6087L51.6913 52.6744C51.7756 52.6444 51.8637 52.6266 51.9531 52.6214C52.0402 52.6163 52.1276 52.6197 52.2141 52.6316ZM45.1979 52.7101L45.1987 52.6313C45.0236 52.5799 44.8373 52.5799 44.6622 52.6313L44.6627 52.7101C44.6546 52.7126 44.6549 52.7132 44.663 52.7107C44.8369 52.6549 45.024 52.6549 45.1979 52.7107C45.2141 52.7156 45.2141 52.7152 45.1979 52.7101ZM37.7832 52.6264L37.8017 52.5549C37.9769 52.5219 38.1579 52.5388 38.324 52.6036L38.306 52.6693C38.2217 52.6393 38.1335 52.6214 38.0442 52.6163C37.9571 52.6112 37.8697 52.6146 37.7832 52.6264Z" fill="#9B3C82"/>
</g>
<g clip-path="url(#clip5_2902_40969)">
<path d="M31.7801 28.9607C31.7801 28.9607 33.7451 26.7225 34.0216 26.993C34.2771 27.243 33.6051 29.0325 33.0245 29.6079C32.1848 30.44 31.0813 29.9656 31.7801 28.9607Z" fill="#F4ADA2"/>
<path d="M33.0241 29.6435C33.017 29.6435 33.01 29.6414 33.0041 29.6375C32.9982 29.6335 32.9936 29.6279 32.9909 29.6213C32.9882 29.6147 32.9876 29.6075 32.9891 29.6006C32.9905 29.5937 32.994 29.5873 32.9992 29.5824C33.2825 29.3091 33.597 28.7669 33.82 28.1673C33.9374 27.8517 34.0389 27.5554 34.0668 27.3356L34.1388 27.2855C34.1135 27.5467 33.9969 27.8971 33.8872 28.192C33.6573 28.8102 33.3439 29.3491 33.0489 29.6335C33.0423 29.6399 33.0334 29.6435 33.0241 29.6435Z" fill="#9B3C82"/>
</g>
<g clip-path="url(#clip6_2902_40969)">
<path d="M6.84186 20.3082C7.90667 22.1704 10.2824 22.8156 12.151 21.7515C12.6947 21.4425 13.1559 21.0076 13.4956 20.4835C12.7835 20.5117 12.0774 20.3444 11.4545 19.9999C10.8316 19.6553 10.3158 19.1467 9.96318 18.5295C9.22008 17.2286 9.31355 15.6803 10.0736 14.5009C9.44884 14.5243 8.83892 14.6987 8.2963 15.009C6.42827 16.0758 5.77706 18.4461 6.84186 20.3082ZM13.5499 16.5277C13.9028 16.5636 14.2403 16.6899 14.5296 16.8942C14.819 17.0986 15.0504 17.3741 15.2014 17.6941C15.2132 17.3403 15.3163 16.9955 15.5006 16.6929C15.685 16.3903 15.9445 16.1402 16.254 15.9666C15.9012 15.9306 15.5638 15.8045 15.2743 15.6005C14.9848 15.3965 14.7531 15.1214 14.6013 14.8019C14.5898 15.1553 14.4869 15.4999 14.3027 15.8022C14.1185 16.1046 13.8592 16.3545 13.5499 16.5277ZM15.8732 23.1773C16.0666 23.1972 16.2517 23.2664 16.4104 23.3783C16.5692 23.4902 16.6964 23.641 16.7796 23.8162C16.7861 23.6223 16.8426 23.4332 16.9438 23.2674C17.0449 23.1015 17.1873 22.9644 17.3571 22.8694C17.1636 22.8496 16.9786 22.7804 16.8198 22.6685C16.661 22.5566 16.5339 22.4057 16.4506 22.2305C16.4442 22.4245 16.3876 22.6135 16.2865 22.7794C16.1853 22.9453 16.0429 23.0823 15.8732 23.1773ZM18.5084 18.7936L18.5128 18.6493C18.5194 18.4614 18.5743 18.2783 18.6723 18.1176C18.7703 17.9569 18.9081 17.824 19.0725 17.7318L19.1688 17.6779L19.059 17.6669C18.8716 17.6472 18.6924 17.58 18.5386 17.4716C18.3848 17.3631 18.2615 17.2172 18.1805 17.0476L18.119 16.9183L18.1141 17.0615C18.1071 17.2493 18.052 17.4322 17.954 17.5928C17.856 17.7535 17.7185 17.8865 17.5544 17.9791L17.4583 18.033L17.5679 18.044C17.7553 18.0637 17.9345 18.1309 18.0883 18.2393C18.2421 18.3477 18.3654 18.4937 18.4464 18.6632L18.5084 18.7936ZM18.9555 17.7222C18.8198 17.8141 18.705 17.9334 18.6184 18.0724C18.5319 18.2113 18.4755 18.3668 18.453 18.5288C18.3678 18.3893 18.2542 18.2692 18.1195 18.1761C17.9849 18.0831 17.8322 18.0192 17.6712 17.9886C17.8067 17.8964 17.9214 17.777 18.0079 17.638C18.0944 17.499 18.1509 17.3435 18.1736 17.1816C18.2588 17.3212 18.3724 17.4414 18.5071 17.5345C18.6418 17.6276 18.7945 17.6915 18.9555 17.7222Z" fill="#FFCF2D"/>
</g>
<g clip-path="url(#clip7_2902_40969)">
<path d="M26.5966 8.7864L26.7975 9.21775C26.8025 9.22866 26.8102 9.23818 26.8198 9.24549C26.8294 9.25279 26.8407 9.25766 26.8526 9.25968L27.3233 9.33946C27.337 9.34179 27.3498 9.34788 27.3602 9.35706C27.3706 9.36624 27.3782 9.37814 27.3822 9.39141C27.3862 9.40468 27.3864 9.4188 27.3827 9.43216C27.379 9.44552 27.3717 9.45759 27.3615 9.46701L27.0116 9.79052C27.0027 9.79871 26.996 9.80892 26.992 9.82027C26.988 9.83161 26.9868 9.84376 26.9885 9.85566L27.0578 10.3261C27.0598 10.3398 27.058 10.3538 27.0524 10.3665C27.0468 10.3792 27.0378 10.3901 27.0264 10.3979C27.0149 10.4058 27.0015 10.4103 26.9876 10.411C26.9737 10.4116 26.9599 10.4084 26.9478 10.4017L26.5306 10.1703C26.5201 10.1644 26.5083 10.1612 26.4962 10.1609C26.4841 10.1606 26.4721 10.1633 26.4613 10.1686L26.0334 10.3795C26.0209 10.3857 26.007 10.3882 25.9931 10.3869C25.9793 10.3856 25.9661 10.3804 25.955 10.372C25.944 10.3636 25.9355 10.3523 25.9306 10.3393C25.9257 10.3264 25.9245 10.3123 25.9272 10.2987L26.0193 9.83221C26.0216 9.8204 26.021 9.80821 26.0176 9.79668C26.0141 9.78515 26.0079 9.77463 25.9995 9.76602L25.6658 9.42597C25.656 9.41607 25.6493 9.40365 25.6463 9.39013C25.6433 9.37662 25.6441 9.36253 25.6488 9.34947C25.6534 9.33641 25.6616 9.3249 25.6724 9.31623C25.6833 9.30756 25.6963 9.30209 25.7101 9.30043L26.1842 9.24351C26.1962 9.24207 26.2077 9.23775 26.2176 9.23091C26.2276 9.22408 26.2357 9.21494 26.2413 9.20428L26.463 8.78316C26.4694 8.77089 26.4792 8.76067 26.4912 8.75365C26.5032 8.74663 26.5169 8.74308 26.5308 8.74342C26.5447 8.74376 26.5582 8.74796 26.5699 8.75555C26.5815 8.76315 26.5908 8.77383 26.5966 8.7864ZM27.3101 8.34645C27.3002 8.34644 27.2906 8.34373 27.2821 8.33861C27.2737 8.33348 27.2669 8.32615 27.2623 8.31741C27.2578 8.30867 27.2558 8.29886 27.2565 8.28905C27.2572 8.27925 27.2606 8.26982 27.2664 8.26182C27.2808 8.24163 28.7367 6.23146 30.8388 5.3616C30.8453 5.3588 30.8524 5.35732 30.8595 5.35724C30.8666 5.35717 30.8737 5.3585 30.8803 5.36116C30.8869 5.36382 30.8929 5.36776 30.8979 5.37275C30.903 5.37774 30.907 5.38368 30.9097 5.39022C30.9124 5.39677 30.9138 5.40379 30.9138 5.41087C30.9138 5.41796 30.9124 5.42498 30.9096 5.43151C30.9069 5.43805 30.9029 5.44397 30.8978 5.44895C30.8927 5.45392 30.8867 5.45784 30.8801 5.46048C28.8062 6.31866 27.3683 8.30401 27.354 8.32401C27.349 8.33097 27.3424 8.33663 27.3348 8.34053C27.3272 8.34443 27.3187 8.34646 27.3101 8.34645ZM27.7178 8.63419C27.707 8.63419 27.6964 8.63097 27.6875 8.62493C27.6786 8.6189 27.6717 8.61033 27.6677 8.60035C27.6638 8.59036 27.6629 8.57942 27.6653 8.56894C27.6676 8.55846 27.6731 8.54892 27.6809 8.54158C27.6932 8.53015 28.9243 7.39352 30.4133 7.11186C30.4203 7.11054 30.4274 7.11061 30.4343 7.11204C30.4412 7.11347 30.4478 7.11624 30.4536 7.1202C30.4595 7.12415 30.4645 7.12922 30.4684 7.1351C30.4722 7.14098 30.4749 7.14756 30.4762 7.15447C30.4775 7.16138 30.4775 7.16848 30.476 7.17536C30.4746 7.18225 30.4718 7.18878 30.4678 7.1946C30.4639 7.20041 30.4588 7.20539 30.4529 7.20925C30.447 7.2131 30.4404 7.21577 30.4334 7.21708C28.9748 7.49309 27.7666 8.60859 27.7545 8.61981C27.7446 8.62909 27.7314 8.63424 27.7178 8.63419ZM26.916 8.20717C26.9076 8.20718 26.8993 8.20523 26.8918 8.20148C26.8843 8.19773 26.8778 8.19228 26.8728 8.18558C26.8678 8.17888 26.8645 8.17111 26.863 8.16288C26.8616 8.15465 26.8621 8.1462 26.8645 8.1382C26.8681 8.12637 27.2305 6.94372 27.9103 6.13595C27.9148 6.13042 27.9204 6.12584 27.9266 6.12246C27.9329 6.11909 27.9398 6.117 27.9469 6.11631C27.954 6.11562 27.9612 6.11635 27.968 6.11845C27.9749 6.12055 27.9812 6.12399 27.9867 6.12855C27.9922 6.13312 27.9967 6.13873 27.9999 6.14505C28.0032 6.15137 28.0052 6.15827 28.0058 6.16536C28.0063 6.17245 28.0055 6.17958 28.0032 6.18634C28.001 6.19309 27.9974 6.19934 27.9928 6.20471C27.3274 6.99534 26.971 8.15743 26.9675 8.16905C26.9641 8.18006 26.9573 8.18972 26.9481 8.19659C26.9388 8.20345 26.9276 8.20717 26.916 8.20717Z" fill="#FFCF2D"/>
</g>
<g clip-path="url(#clip8_2902_40969)">
<path d="M16.8222 17.9914L17.084 18.2307C17.0906 18.2368 17.0986 18.2411 17.1073 18.2434C17.116 18.2457 17.1251 18.2458 17.1338 18.2438L17.4785 18.1637C17.4885 18.1614 17.499 18.1619 17.5087 18.1652C17.5185 18.1686 17.5272 18.1746 17.5337 18.1826C17.5403 18.1906 17.5444 18.2002 17.5458 18.2105C17.5472 18.2207 17.5456 18.2311 17.5414 18.2405L17.3958 18.5636C17.3921 18.5718 17.3904 18.5808 17.391 18.5897C17.3915 18.5987 17.3942 18.6074 17.3988 18.6151L17.582 18.9191C17.5874 18.9279 17.5901 18.9381 17.59 18.9484C17.5899 18.9587 17.5869 18.9688 17.5813 18.9775C17.5758 18.9862 17.5679 18.9932 17.5586 18.9976C17.5493 19.0021 17.539 19.0038 17.5287 19.0027L17.1769 18.9629C17.168 18.9619 17.1589 18.9631 17.1506 18.9664C17.1423 18.9696 17.1348 18.9749 17.129 18.9817L16.8976 19.2496C16.8908 19.2574 16.882 19.2632 16.8722 19.2662C16.8624 19.2693 16.8519 19.2695 16.8419 19.2669C16.8319 19.2642 16.8228 19.2589 16.8157 19.2514C16.8086 19.2439 16.8038 19.2345 16.8017 19.2244L16.7299 18.8768C16.728 18.868 16.7241 18.8598 16.7184 18.8529C16.7127 18.8459 16.7054 18.8405 16.6972 18.837L16.371 18.6986C16.3615 18.6946 16.3533 18.688 16.3473 18.6795C16.3414 18.6711 16.3379 18.6611 16.3373 18.6508C16.3366 18.6405 16.3389 18.6302 16.3438 18.6211C16.3487 18.6121 16.3561 18.6046 16.365 18.5995L16.6725 18.4243C16.6803 18.4199 16.6869 18.4136 16.6917 18.4061C16.6965 18.3985 16.6994 18.3899 16.7002 18.3809L16.7299 18.0275C16.7307 18.0172 16.7345 18.0073 16.7406 17.999C16.7468 17.9907 16.7552 17.9843 16.7648 17.9806C16.7744 17.9768 16.7849 17.9758 16.795 17.9777C16.8052 17.9797 16.8146 17.9844 16.8222 17.9914Z" fill="#FFCF2D"/>
</g>
<g clip-path="url(#clip9_2902_40969)">
<path d="M4.99262 8.31752L4.91849 8.5986C4.91662 8.60572 4.91647 8.61311 4.91806 8.62014C4.91965 8.62717 4.92293 8.63363 4.92762 8.63896L5.1128 8.84947C5.11819 8.8556 5.1217 8.86321 5.12294 8.87144C5.12418 8.87966 5.12309 8.88817 5.1198 8.89602C5.11651 8.90386 5.11115 8.91071 5.10432 8.9158C5.09749 8.9209 5.08947 8.92403 5.08117 8.92484L4.79594 8.95264C4.78872 8.95335 4.7817 8.9558 4.77548 8.9598C4.76926 8.9638 4.76403 8.96922 4.76025 8.97559L4.6107 9.22738C4.60634 9.23471 4.60009 9.24076 4.59265 9.24484C4.58521 9.24892 4.57688 9.25087 4.5686 9.25047C4.56032 9.25008 4.55242 9.24734 4.54579 9.24258C4.53916 9.23782 4.53407 9.23123 4.5311 9.22354L4.42896 8.9596C4.42638 8.95292 4.42219 8.94704 4.41676 8.94249C4.41133 8.93793 4.40482 8.93482 4.3978 8.93343L4.12019 8.87853C4.1121 8.87693 4.10473 8.87306 4.09889 8.86736C4.09306 8.86165 4.089 8.85435 4.08717 8.84626C4.08534 8.83817 4.08582 8.82963 4.08855 8.82159C4.09128 8.81356 4.09616 8.80636 4.10263 8.8008L4.3247 8.60989C4.33032 8.60506 4.33476 8.59898 4.33762 8.59216C4.34048 8.58535 4.34168 8.578 4.34112 8.57077L4.31909 8.28509C4.31844 8.27677 4.32013 8.26832 4.32396 8.26071C4.32779 8.2531 4.33361 8.24663 4.34077 8.24203C4.34792 8.23743 4.35612 8.23488 4.36444 8.23468C4.37275 8.23447 4.38086 8.23662 4.38783 8.24087L4.62724 8.38681C4.6333 8.39051 4.64023 8.39262 4.64742 8.39296C4.65462 8.39331 4.66187 8.39188 4.66855 8.3888L4.93251 8.26706C4.9402 8.2635 4.94864 8.26214 4.95686 8.26313C4.96508 8.26413 4.97276 8.26744 4.97901 8.2727C4.98527 8.27795 4.98986 8.28494 4.99227 8.29286C4.99467 8.30078 4.99479 8.30933 4.99262 8.31752Z" fill="#FFCF2D"/>
</g>
<g clip-path="url(#clip10_2902_40969)">
<path d="M6.96771 31.6082L7.23832 31.813C7.24518 31.8182 7.25318 31.8217 7.26166 31.8231C7.27013 31.8245 7.27881 31.8238 7.28696 31.8211L7.60877 31.7143C7.61815 31.7112 7.6282 31.7108 7.63781 31.7131C7.64741 31.7154 7.65618 31.7204 7.66313 31.7274C7.67007 31.7344 7.67491 31.7433 7.6771 31.7529C7.67929 31.7625 7.67874 31.7726 7.67552 31.7819L7.56473 32.1027C7.56193 32.1108 7.56114 32.1195 7.56243 32.1279C7.56372 32.1364 7.56706 32.1445 7.57215 32.1514L7.77341 32.4248C7.77927 32.4328 7.78279 32.4422 7.78357 32.4521C7.78435 32.462 7.78236 32.4718 7.77782 32.4806C7.77329 32.4894 7.76639 32.4967 7.7579 32.5018C7.74942 32.5068 7.73969 32.5094 7.72982 32.5092L7.39069 32.5025C7.3821 32.5023 7.37361 32.5042 7.36594 32.5081C7.35827 32.5119 7.35165 32.5176 7.34665 32.5246L7.14922 32.8003C7.14347 32.8084 7.13559 32.8146 7.12646 32.8184C7.11734 32.8222 7.10734 32.8233 7.09759 32.8217C7.08785 32.8201 7.07874 32.8158 7.07131 32.8093C7.06388 32.8027 7.05842 32.7943 7.05554 32.7848L6.95675 32.46C6.95425 32.4518 6.94979 32.4443 6.94375 32.4382C6.93772 32.4321 6.93029 32.4275 6.9221 32.4249L6.59886 32.3219C6.58944 32.3189 6.58104 32.3134 6.57462 32.3059C6.5682 32.2983 6.56401 32.2892 6.56252 32.2794C6.56103 32.2696 6.5623 32.2596 6.56619 32.2505C6.57009 32.2415 6.57644 32.2336 6.58454 32.228L6.86261 32.0339C6.86964 32.029 6.87538 32.0225 6.87932 32.0148C6.88326 32.0072 6.88529 31.9987 6.88522 31.9901L6.88279 31.6508C6.8827 31.6409 6.88539 31.6311 6.89054 31.6227C6.8957 31.6142 6.90312 31.6074 6.91197 31.603C6.92081 31.5985 6.93072 31.5967 6.94057 31.5976C6.95042 31.5985 6.95982 31.6022 6.96771 31.6082Z" fill="#FFCF2D"/>
</g>
<g clip-path="url(#clip11_2902_40969)">
<path d="M54.0928 26.4392L54.0601 26.7126C54.0593 26.7196 54.0601 26.7265 54.0626 26.7329C54.065 26.7393 54.0689 26.7449 54.074 26.7493L54.2754 26.9225C54.2812 26.9275 54.2855 26.9342 54.2878 26.9418C54.29 26.9493 54.2901 26.9575 54.2881 26.9652C54.286 26.973 54.2819 26.9802 54.2761 26.9858C54.2704 26.9915 54.2633 26.9955 54.2556 26.9974L53.9916 27.0609C53.985 27.0625 53.9787 27.0657 53.9734 27.0703C53.9681 27.0749 53.9639 27.0806 53.9612 27.0871L53.8539 27.343C53.8508 27.3504 53.8457 27.3569 53.8393 27.3617C53.8328 27.3665 53.8253 27.3695 53.8174 27.3702C53.8096 27.3709 53.8018 27.3694 53.795 27.3658C53.7882 27.3622 53.7825 27.3566 53.7787 27.3498L53.6482 27.1156C53.6449 27.1097 53.6402 27.1047 53.6345 27.1011C53.6289 27.0976 53.6223 27.0955 53.6156 27.0951L53.3479 27.0801C53.3401 27.0796 53.3327 27.077 53.3265 27.0724C53.3202 27.0678 53.3155 27.0615 53.3127 27.0541C53.3099 27.0468 53.3092 27.0387 53.3107 27.0308C53.3123 27.0229 53.3159 27.0155 53.3212 27.0094L53.5045 26.8012C53.5092 26.7959 53.5125 26.7896 53.5143 26.7828C53.5161 26.7761 53.5163 26.769 53.5148 26.7623L53.4566 26.4972C53.4549 26.4895 53.4554 26.4813 53.458 26.4737C53.4606 26.466 53.4652 26.4592 53.4713 26.4539C53.4774 26.4487 53.4848 26.4452 53.4925 26.4439C53.5003 26.4426 53.5082 26.4436 53.5153 26.4467L53.7591 26.5522C53.7652 26.5548 53.772 26.5559 53.7788 26.5553C53.7856 26.5547 53.7922 26.5524 53.7981 26.5486L54.0298 26.3997C54.0365 26.3954 54.0443 26.393 54.0521 26.3928C54.0599 26.3927 54.0676 26.3948 54.0741 26.3989C54.0807 26.403 54.0859 26.409 54.0892 26.4161C54.0925 26.4232 54.0937 26.4312 54.0928 26.4392Z" fill="#FFCF2D"/>
</g>
<g clip-path="url(#clip12_2902_40969)">
<path d="M34.3411 16.7071C34.3319 16.7071 34.323 16.7035 34.3162 16.6972C34.3095 16.6909 34.3054 16.6822 34.3048 16.673C34.3042 16.6638 34.3071 16.6547 34.3129 16.6475C34.3187 16.6404 34.3271 16.6357 34.3363 16.6344L38.1326 16.1119C38.1422 16.1106 38.152 16.1132 38.1597 16.119C38.1674 16.1249 38.1725 16.1335 38.1738 16.1431C38.1752 16.1527 38.1726 16.1625 38.1668 16.1702C38.1609 16.1779 38.1522 16.183 38.1426 16.1843L34.3462 16.7068C34.3445 16.707 34.3428 16.7071 34.3411 16.7071ZM43.0759 17.6839C43.069 17.6839 43.0622 17.6819 43.0563 17.6782C43.0505 17.6745 43.0458 17.6692 43.0428 17.6629C43.0399 17.6567 43.0388 17.6497 43.0397 17.6428C43.0405 17.6359 43.0433 17.6294 43.0478 17.6241L48.5435 10.9993C48.5465 10.9955 48.5503 10.9924 48.5546 10.9901C48.5588 10.9878 48.5635 10.9864 48.5683 10.9859C48.5731 10.9854 48.578 10.9859 48.5826 10.9873C48.5872 10.9887 48.5915 10.991 48.5952 10.9941C48.599 10.9972 48.602 11.001 48.6043 11.0053C48.6065 11.0096 48.6079 11.0143 48.6083 11.0191C48.6087 11.0239 48.6082 11.0287 48.6067 11.0333C48.6053 11.0379 48.6029 11.0422 48.5998 11.0459L43.104 17.6706C43.1006 17.6748 43.0963 17.6781 43.0914 17.6804C43.0866 17.6827 43.0813 17.6839 43.0759 17.6839ZM38.284 16.1367C38.2778 16.1367 38.2716 16.1351 38.2662 16.132C38.2607 16.1289 38.2562 16.1245 38.2529 16.1192C38.2496 16.1139 38.2478 16.1078 38.2475 16.1016C38.2473 16.0953 38.2487 16.0891 38.2515 16.0836L42.8612 7.04731C42.8634 7.04295 42.8663 7.03906 42.87 7.03586C42.8736 7.03267 42.8779 7.03022 42.8825 7.02868C42.8871 7.02714 42.892 7.02654 42.8968 7.02689C42.9016 7.02725 42.9064 7.02857 42.9107 7.03077C42.915 7.03297 42.9188 7.03601 42.922 7.03971C42.9251 7.04341 42.9275 7.0477 42.929 7.05232C42.9304 7.05695 42.9309 7.06181 42.9305 7.06664C42.93 7.07147 42.9286 7.07616 42.9264 7.08045L38.3166 16.1167C38.3136 16.1227 38.3089 16.1277 38.3032 16.1313C38.2974 16.1348 38.2908 16.1367 38.284 16.1367Z" fill="#66B0F0"/>
<path d="M43.0754 17.6839C43.0718 17.6839 43.0683 17.6834 43.0649 17.6824L38.0973 16.1927C38.0926 16.1914 38.0882 16.1891 38.0844 16.1861C38.0806 16.1831 38.0775 16.1794 38.0751 16.1751C38.0728 16.1709 38.0713 16.1662 38.0708 16.1614C38.0703 16.1565 38.0707 16.1517 38.0721 16.147C38.0735 16.1424 38.0758 16.1381 38.0789 16.1343C38.082 16.1306 38.0858 16.1275 38.0901 16.1252C38.0944 16.123 38.0991 16.1216 38.1039 16.1211C38.1088 16.1207 38.1136 16.1213 38.1183 16.1227L43.0859 17.6125C43.0943 17.615 43.1015 17.6204 43.1062 17.6278C43.1109 17.6352 43.1128 17.6441 43.1115 17.6527C43.1102 17.6614 43.1059 17.6693 43.0992 17.675C43.0926 17.6808 43.0842 17.6839 43.0754 17.6839ZM48.4037 10.9939C48.3957 10.9939 48.3878 10.9913 48.3815 10.9864L43.1722 6.99419C43.1646 6.9883 43.1595 6.97959 43.1583 6.96999C43.157 6.96039 43.1596 6.95067 43.1655 6.94299C43.1714 6.9353 43.1801 6.93027 43.1897 6.929C43.1993 6.92774 43.209 6.93033 43.2167 6.93623L48.426 10.9284C48.432 10.933 48.4365 10.9395 48.4387 10.9468C48.4409 10.9541 48.4408 10.9619 48.4384 10.9691C48.4359 10.9764 48.4312 10.9827 48.425 10.9871C48.4188 10.9915 48.4113 10.9939 48.4037 10.9939ZM32.9863 19.6693C32.9821 19.6693 32.9779 19.6686 32.9739 19.6672C32.9648 19.6639 32.9574 19.6571 32.9533 19.6483C32.9492 19.6396 32.9487 19.6295 32.952 19.6204L34.0158 16.6692C34.0193 16.6603 34.0261 16.653 34.0348 16.6491C34.0434 16.6451 34.0533 16.6447 34.0623 16.6479C34.0713 16.6511 34.0787 16.6578 34.0829 16.6664C34.087 16.675 34.0877 16.6849 34.0846 16.6939L33.0207 19.6452C33.0182 19.6523 33.0135 19.6584 33.0073 19.6627C33.0012 19.667 32.9938 19.6693 32.9863 19.6693ZM27.4116 21.6092C27.4028 21.6092 27.3943 21.6061 27.3877 21.6003C27.381 21.5946 27.3767 21.5867 27.3754 21.578C27.3741 21.5694 27.376 21.5605 27.3807 21.5531C27.3854 21.5457 27.3926 21.5403 27.401 21.5377L32.8815 19.8802C32.8907 19.8776 32.9006 19.8787 32.9091 19.8833C32.9175 19.8878 32.9238 19.8956 32.9265 19.9047C32.9293 19.9139 32.9284 19.9238 32.9239 19.9323C32.9194 19.9408 32.9118 19.9472 32.9027 19.9501L27.4222 21.6076C27.4187 21.6087 27.4152 21.6092 27.4116 21.6092Z" fill="#66B0F0"/>
<path d="M38.2444 15.5003L38.3758 15.8271C38.3791 15.8354 38.3844 15.8427 38.3912 15.8485C38.398 15.8543 38.4061 15.8583 38.4148 15.8603L38.7587 15.9373C38.7688 15.9396 38.778 15.9446 38.7853 15.9518C38.7926 15.959 38.7978 15.9681 38.8002 15.978C38.8026 15.988 38.8022 15.9985 38.799 16.0082C38.7958 16.0179 38.7899 16.0266 38.782 16.0332L38.5115 16.259C38.5047 16.2647 38.4993 16.272 38.4959 16.2803C38.4925 16.2885 38.4912 16.2975 38.492 16.3063L38.5249 16.6569C38.5259 16.6671 38.524 16.6774 38.5194 16.6866C38.5148 16.6957 38.5077 16.7034 38.499 16.7088C38.4902 16.7142 38.4802 16.717 38.4699 16.717C38.4596 16.7169 38.4496 16.714 38.4409 16.7086L38.1424 16.5216C38.1348 16.5168 38.1262 16.514 38.1173 16.5133C38.1084 16.5126 38.0994 16.5141 38.0912 16.5177L37.7676 16.6573C37.7581 16.6614 37.7478 16.6627 37.7376 16.6612C37.7275 16.6597 37.7179 16.6554 37.7101 16.6487C37.7023 16.6421 37.6965 16.6334 37.6934 16.6236C37.6902 16.6138 37.6899 16.6034 37.6924 16.5935L37.7783 16.2519C37.7805 16.2432 37.7805 16.2342 37.7784 16.2255C37.7763 16.2169 37.7721 16.2088 37.7661 16.2022L37.5332 15.9378C37.5264 15.9301 37.5219 15.9207 37.5203 15.9106C37.5186 15.9004 37.5197 15.8901 37.5236 15.8806C37.5276 15.8711 37.534 15.8629 37.5424 15.8569C37.5507 15.8509 37.5605 15.8474 37.5708 15.8467L37.9225 15.8227C37.9314 15.8221 37.94 15.8194 37.9476 15.8147C37.9552 15.8101 37.9615 15.8036 37.9661 15.796L38.1457 15.4929C38.1509 15.484 38.1585 15.4768 38.1677 15.472C38.1768 15.4672 38.1871 15.4651 38.1974 15.4659C38.2076 15.4666 38.2175 15.4703 38.2258 15.4764C38.2341 15.4825 38.2405 15.4908 38.2444 15.5003ZM42.37 6.13215L42.8124 6.23571C42.8236 6.23833 42.8353 6.23819 42.8464 6.2353C42.8575 6.23241 42.8678 6.22686 42.8763 6.21913L43.2125 5.9137C43.2223 5.90481 43.2344 5.89883 43.2474 5.89644C43.2604 5.89405 43.2739 5.89535 43.2862 5.90018C43.2985 5.90502 43.3092 5.91321 43.3171 5.92381C43.325 5.93442 43.3298 5.94702 43.3309 5.9602L43.3691 6.4126C43.37 6.42404 43.3738 6.43508 43.38 6.44476C43.3861 6.45444 43.3946 6.46248 43.4046 6.46818L43.7993 6.69327C43.8108 6.69982 43.8202 6.70946 43.8265 6.72109C43.8328 6.73272 43.8358 6.74587 43.835 6.75907C43.8342 6.77227 43.8297 6.78498 43.822 6.79577C43.8144 6.80656 43.8039 6.815 43.7917 6.82012L43.3728 6.99616C43.3622 7.00062 43.3528 7.00758 43.3455 7.01646C43.3382 7.02533 43.3332 7.03584 43.3308 7.04709L43.2385 7.49162C43.2359 7.50458 43.2296 7.51653 43.2205 7.52612C43.2113 7.53571 43.1997 7.54255 43.1869 7.54587C43.174 7.54919 43.1605 7.54886 43.1479 7.54491C43.1353 7.54097 43.124 7.53356 43.1153 7.52354L42.8183 7.17994C42.8107 7.17125 42.8012 7.16451 42.7905 7.16031C42.7798 7.15611 42.7683 7.15456 42.7568 7.15581L42.3051 7.20548C42.292 7.20692 42.2787 7.20466 42.2668 7.19895C42.2548 7.19324 42.2447 7.18431 42.2376 7.17317C42.2305 7.16202 42.2266 7.14911 42.2265 7.13589C42.2263 7.12267 42.2298 7.10967 42.2367 7.09836L42.472 6.70994C42.478 6.70012 42.4814 6.68901 42.4821 6.67757C42.4828 6.66612 42.4807 6.65467 42.476 6.64421L42.2892 6.23035C42.2837 6.2183 42.2817 6.20496 42.2835 6.19184C42.2852 6.17872 42.2906 6.16635 42.299 6.15613C42.3074 6.14591 42.3185 6.13825 42.3311 6.13401C42.3436 6.12977 42.3571 6.12912 42.37 6.13215ZM49.0881 10.6315L48.9696 10.9632C48.9666 10.9716 48.9657 10.9806 48.967 10.9894C48.9683 10.9982 48.9717 11.0066 48.9769 11.0138L49.1833 11.2994C49.1893 11.3077 49.1929 11.3175 49.1936 11.3278C49.1943 11.338 49.1921 11.3482 49.1873 11.3573C49.1825 11.3664 49.1752 11.3739 49.1664 11.3791C49.1575 11.3842 49.1474 11.3868 49.1371 11.3865L48.7847 11.3764C48.7758 11.3762 48.767 11.3781 48.759 11.382C48.751 11.3859 48.744 11.3918 48.7388 11.399L48.5307 11.6832C48.5246 11.6915 48.5164 11.6979 48.5068 11.7018C48.4973 11.7056 48.4869 11.7067 48.4768 11.7049C48.4667 11.7031 48.4573 11.6986 48.4496 11.6917C48.4419 11.6849 48.4364 11.6761 48.4335 11.6662L48.3342 11.3283C48.3317 11.3197 48.3271 11.3119 48.3209 11.3055C48.3147 11.2991 48.307 11.2943 48.2985 11.2915L47.9636 11.1817C47.9539 11.1785 47.9452 11.1726 47.9386 11.1648C47.932 11.1569 47.9277 11.1474 47.9263 11.1372C47.9249 11.1271 47.9263 11.1167 47.9304 11.1073C47.9345 11.0979 47.9412 11.0899 47.9497 11.0841L48.2407 10.8853C48.2481 10.8803 48.2541 10.8736 48.2583 10.8657C48.2624 10.8578 48.2646 10.849 48.2647 10.8401L48.2657 10.4879C48.2658 10.4777 48.2687 10.4677 48.2741 10.459C48.2796 10.4504 48.2873 10.4434 48.2965 10.4389C48.3057 10.4344 48.316 10.4325 48.3262 10.4335C48.3364 10.4346 48.3461 10.4384 48.3542 10.4446L48.6334 10.6597C48.6404 10.6651 48.6487 10.6688 48.6575 10.6703C48.6663 10.6718 48.6753 10.6712 48.6838 10.6685L49.0194 10.5607C49.0292 10.5575 49.0397 10.5572 49.0496 10.5597C49.0596 10.5621 49.0687 10.5674 49.0758 10.5747C49.083 10.5821 49.0879 10.5913 49.0901 10.6014C49.0922 10.6114 49.0916 10.6218 49.0881 10.6315ZM33.9538 16.3227L34.1459 16.4611C34.1507 16.4646 34.1564 16.4669 34.1623 16.4677C34.1683 16.4686 34.1743 16.468 34.18 16.466L34.403 16.3863C34.4095 16.384 34.4165 16.3836 34.4233 16.385C34.43 16.3865 34.4362 16.3898 34.4411 16.3946C34.4461 16.3994 34.4496 16.4054 34.4513 16.4121C34.453 16.4188 34.4527 16.4258 34.4506 16.4324L34.3782 16.6577C34.3764 16.6634 34.376 16.6695 34.377 16.6754C34.3781 16.6813 34.3805 16.6868 34.3842 16.6916L34.5289 16.8789C34.5331 16.8843 34.5357 16.8909 34.5364 16.8977C34.5371 16.9046 34.5359 16.9115 34.5328 16.9177C34.5298 16.9239 34.5251 16.9291 34.5192 16.9328C34.5133 16.9364 34.5066 16.9384 34.4997 16.9384L34.2628 16.9392C34.2568 16.9392 34.2509 16.9407 34.2456 16.9435C34.2403 16.9463 34.2358 16.9504 34.2324 16.9553L34.0988 17.1507C34.0949 17.1564 34.0895 17.1609 34.0832 17.1637C34.0769 17.1664 34.0699 17.1674 34.0631 17.1664C34.0563 17.1655 34.0499 17.1626 34.0446 17.1582C34.0393 17.1538 34.0353 17.148 34.0332 17.1414L33.9592 16.9166C33.9573 16.9109 33.9541 16.9058 33.9498 16.9016C33.9455 16.8975 33.9402 16.8944 33.9345 16.8927L33.7072 16.8262C33.7006 16.8242 33.6946 16.8205 33.69 16.8153C33.6854 16.8102 33.6824 16.8039 33.6812 16.7971C33.68 16.7903 33.6807 16.7833 33.6833 16.7769C33.6859 16.7705 33.6902 16.765 33.6958 16.7609L33.8869 16.6212C33.8917 16.6176 33.8956 16.613 33.8983 16.6076C33.9009 16.6022 33.9022 16.5963 33.902 16.5903L33.8951 16.3538C33.8949 16.3469 33.8966 16.34 33.9001 16.334C33.9036 16.3281 33.9086 16.3232 33.9147 16.3199C33.9209 16.3167 33.9277 16.3152 33.9346 16.3157C33.9415 16.3162 33.9482 16.3186 33.9538 16.3227ZM43.4773 17.5999L43.2707 17.7066C43.2655 17.7093 43.261 17.7133 43.2576 17.7181C43.2543 17.7229 43.2521 17.7285 43.2514 17.7343L43.2223 17.9648C43.2214 17.9715 43.2187 17.9779 43.2145 17.9831C43.2102 17.9884 43.2045 17.9924 43.1981 17.9946C43.1917 17.9968 43.1849 17.9972 43.1782 17.9957C43.1716 17.9942 43.1656 17.9909 43.1608 17.9861L42.9953 17.8228C42.9911 17.8187 42.986 17.8157 42.9804 17.814C42.9747 17.8123 42.9688 17.812 42.963 17.8131L42.7346 17.8566C42.7279 17.8579 42.721 17.8573 42.7147 17.8549C42.7084 17.8524 42.7029 17.8483 42.6988 17.8429C42.6947 17.8375 42.6922 17.8311 42.6916 17.8243C42.691 17.8176 42.6923 17.8108 42.6953 17.8047L42.7996 17.5971C42.8023 17.5918 42.8036 17.586 42.8035 17.5801C42.8034 17.5743 42.8018 17.5685 42.799 17.5633L42.6869 17.3598C42.6836 17.3538 42.6821 17.3471 42.6825 17.3404C42.6828 17.3336 42.6851 17.3271 42.6889 17.3215C42.6928 17.316 42.6982 17.3116 42.7044 17.309C42.7106 17.3063 42.7175 17.3054 42.7242 17.3064L42.9541 17.3414C42.9599 17.3423 42.9658 17.3417 42.9714 17.3398C42.977 17.3379 42.982 17.3346 42.986 17.3303L43.1452 17.161C43.1498 17.156 43.1557 17.1525 43.1623 17.1507C43.1688 17.149 43.1757 17.1491 43.1822 17.1511C43.1887 17.153 43.1945 17.1568 43.1989 17.1619C43.2034 17.167 43.2063 17.1732 43.2074 17.1799L43.2452 17.4091C43.2462 17.4149 43.2485 17.4204 43.2521 17.4251C43.2556 17.4298 43.2603 17.4336 43.2656 17.4361L43.476 17.535C43.4822 17.5378 43.4873 17.5424 43.491 17.548C43.4947 17.5537 43.4967 17.5603 43.4968 17.567C43.497 17.5738 43.4952 17.5805 43.4918 17.5863C43.4883 17.5921 43.4833 17.5968 43.4773 17.5999ZM32.8325 19.3838L33.0059 19.5449C33.0103 19.549 33.0156 19.5519 33.0214 19.5535C33.0272 19.5551 33.0333 19.5552 33.0391 19.5539L33.2703 19.5025C33.277 19.501 33.2841 19.5014 33.2906 19.5037C33.2971 19.506 33.3028 19.51 33.3072 19.5154C33.3115 19.5207 33.3142 19.5272 33.315 19.5341C33.3159 19.5409 33.3148 19.5478 33.3119 19.5541L33.2121 19.7687C33.2096 19.7741 33.2084 19.7801 33.2087 19.7861C33.209 19.7921 33.2108 19.7979 33.2138 19.803L33.3342 20.0068C33.3377 20.0127 33.3395 20.0195 33.3393 20.0264C33.3392 20.0333 33.3371 20.04 33.3333 20.0458C33.3295 20.0516 33.3242 20.0562 33.318 20.0591C33.3117 20.062 33.3048 20.0631 33.2979 20.0622L33.0628 20.0338C33.0569 20.0331 33.0508 20.0338 33.0452 20.0359C33.0396 20.038 33.0346 20.0415 33.0307 20.046L32.8739 20.2233C32.8693 20.2285 32.8634 20.2323 32.8568 20.2343C32.8502 20.2362 32.8431 20.2363 32.8365 20.2345C32.8298 20.2327 32.8238 20.2291 32.8191 20.224C32.8144 20.219 32.8112 20.2127 32.8099 20.206L32.7643 19.9738C32.7632 19.9679 32.7606 19.9624 32.7569 19.9577C32.7531 19.9531 32.7483 19.9494 32.7428 19.947L32.5255 19.8528C32.5191 19.8501 32.5137 19.8456 32.5098 19.84C32.5058 19.8343 32.5036 19.8277 32.5032 19.8208C32.5029 19.8139 32.5045 19.807 32.5079 19.801C32.5112 19.795 32.5162 19.79 32.5222 19.7867L32.7292 19.6716C32.7344 19.6687 32.7389 19.6646 32.7421 19.6596C32.7454 19.6546 32.7474 19.6488 32.748 19.6429L32.7705 19.4073C32.7712 19.4004 32.7737 19.3939 32.7779 19.3884C32.7821 19.383 32.7877 19.3788 32.7942 19.3763C32.8006 19.3739 32.8076 19.3733 32.8144 19.3746C32.8211 19.3759 32.8274 19.3791 32.8325 19.3838ZM27.1146 21.3077L27.279 21.4021C27.2832 21.4045 27.2878 21.4058 27.2926 21.406C27.2974 21.4062 27.3022 21.4052 27.3065 21.4031L27.4775 21.3213C27.4825 21.319 27.488 21.318 27.4935 21.3186C27.499 21.3192 27.5042 21.3214 27.5085 21.3248C27.5128 21.3281 27.5161 21.3327 27.518 21.3378C27.5199 21.343 27.5204 21.3486 27.5193 21.354L27.4803 21.5394C27.4793 21.544 27.4795 21.5489 27.4808 21.5535C27.4821 21.5581 27.4845 21.5623 27.4878 21.5658L27.6185 21.703C27.6223 21.707 27.6249 21.712 27.626 21.7174C27.6272 21.7228 27.6267 21.7284 27.6248 21.7336C27.6229 21.7388 27.6196 21.7433 27.6153 21.7467C27.6109 21.7501 27.6057 21.7522 27.6002 21.7528L27.4117 21.773C27.4069 21.7735 27.4024 21.7752 27.3984 21.7778C27.3944 21.7805 27.3911 21.7841 27.3888 21.7883L27.2987 21.9549C27.296 21.9598 27.2921 21.9638 27.2873 21.9665C27.2825 21.9693 27.277 21.9706 27.2715 21.9704C27.266 21.9702 27.2607 21.9684 27.2561 21.9654C27.2515 21.9623 27.2479 21.958 27.2456 21.9529L27.1682 21.7801C27.1662 21.7757 27.1632 21.7719 27.1594 21.7689C27.1557 21.7659 27.1512 21.7639 27.1465 21.7631L26.96 21.7289C26.9545 21.7279 26.9495 21.7255 26.9453 21.7217C26.9412 21.718 26.9382 21.7132 26.9367 21.7079C26.9352 21.7026 26.9352 21.6969 26.9367 21.6916C26.9382 21.6863 26.9413 21.6815 26.9454 21.6778L27.086 21.5507C27.0896 21.5475 27.0923 21.5435 27.094 21.539C27.0956 21.5345 27.0962 21.5296 27.0955 21.5249L27.0705 21.3372C27.0698 21.3317 27.0706 21.3262 27.0729 21.3212C27.0752 21.3162 27.0788 21.3119 27.0834 21.3088C27.088 21.3058 27.0933 21.304 27.0989 21.3038C27.1044 21.3036 27.1098 21.305 27.1146 21.3077Z" fill="#FFCF2D"/>
</g>
</g>
<defs>
<clipPath id="clip0_2902_40969">
<rect width="60" height="52.25" fill="white" transform="translate(0 4)"/>
</clipPath>
<clipPath id="clip1_2902_40969">
<rect width="3.27957" height="0.860215" fill="white" transform="translate(5.85938 52.7769)"/>
</clipPath>
<clipPath id="clip2_2902_40969">
<rect width="54.1398" height="8.22581" fill="white" transform="translate(1.93555 48.0995)"/>
</clipPath>
<clipPath id="clip3_2902_40969">
<rect width="31.0753" height="29.1935" fill="white" transform="translate(5.64453 24.3898)"/>
</clipPath>
<clipPath id="clip4_2902_40969">
<rect width="23.2796" height="36.129" fill="white" transform="translate(31.2363 17.4005)"/>
</clipPath>
<clipPath id="clip5_2902_40969">
<rect width="2.58065" height="3.06452" fill="white" transform="translate(31.5586 26.9704)"/>
</clipPath>
<clipPath id="clip6_2902_40969">
<rect width="7.15053" height="10.5376" fill="white" transform="matrix(-0.979143 0.20317 0.20317 0.979143 12.623 13.9166)"/>
</clipPath>
<clipPath id="clip7_2902_40969">
<rect width="5.26882" height="5.05376" fill="white" transform="translate(25.6445 5.35753)"/>
</clipPath>
<clipPath id="clip8_2902_40969">
<rect width="1.29032" height="1.23656" fill="white" transform="translate(16.1641 18.2158) rotate(-21.3731)"/>
</clipPath>
<clipPath id="clip9_2902_40969">
<rect width="1.02151" height="1.02151" fill="white" transform="translate(4.58789 7.9444) rotate(40.0139)"/>
</clipPath>
<clipPath id="clip10_2902_40969">
<rect width="1.23656" height="1.1828" fill="white" transform="translate(6.35938 31.8802) rotate(-26.6347)"/>
</clipPath>
<clipPath id="clip11_2902_40969">
<rect width="0.967742" height="0.967742" fill="white" transform="translate(53.6641 26.1423) rotate(32.0482)"/>
</clipPath>
<clipPath id="clip12_2902_40969">
<rect width="22.2581" height="16.0753" fill="white" transform="translate(26.9355 5.89516)"/>
</clipPath>
</defs>
</svg>
