<svg width="26" height="24" viewBox="0 0 26 24" fill="none" xmlns="http://www.w3.org/2000/svg">
<path d="M14.3333 5.33331H25M5 5.33331H5.01333M14.3333 18.6666H25M9 5.33331C9 7.54245 7.20914 9.33331 5 9.33331C2.79086 9.33331 1 7.54245 1 5.33331C1 3.12417 2.79086 1.33331 5 1.33331C7.20914 1.33331 9 3.12417 9 5.33331ZM9 18.6666C9 20.8758 7.20914 22.6666 5 22.6666C2.79086 22.6666 1 20.8758 1 18.6666C1 16.4575 2.79086 14.6666 5 14.6666C7.20914 14.6666 9 16.4575 9 18.6666Z" stroke="#4C60E5" stroke-width="2" stroke-linecap="round" stroke-linejoin="round"/>
</svg>
