<svg width="120" height="120" viewBox="0 0 120 120" fill="none" xmlns="http://www.w3.org/2000/svg">
<path d="M79.619 69.7697C79.6979 69.5726 79.7176 69.3556 79.7373 69.1387C79.7571 69.0204 79.7768 68.8824 79.7965 68.7641C79.8359 68.3106 79.8162 67.7585 79.619 67.3444C79.481 67.0683 79.2641 66.8514 78.9486 66.7923C78.6331 66.7331 78.3373 66.8908 78.1599 67.1275L78.1204 67.1866C78.0416 67.2655 77.9824 67.3641 77.9232 67.4627C77.8049 67.6993 77.7655 67.9951 77.7655 68.2514C77.7655 68.4683 77.7852 68.7049 77.8049 68.9218C77.8049 69.0796 77.8049 69.2373 77.8049 69.3754C77.8247 69.612 77.8838 69.8486 78.0218 70.0458C78.219 70.3021 78.5542 70.4402 78.8895 70.381C79.2247 70.3021 79.481 70.0852 79.619 69.7697Z" fill="#1E2146"/>
<path d="M91.9234 69.3951C91.9431 69.6318 92.0022 69.8684 92.1403 70.0656C92.3374 70.3219 92.6726 70.4599 93.0079 70.4008C93.3431 70.3219 93.5994 70.105 93.7374 69.7895C93.8163 69.5923 93.836 69.3754 93.8558 69.1585C93.8755 69.0402 93.8952 68.9022 93.9149 68.7839C93.9544 68.3304 93.9346 67.7782 93.7374 67.3641C93.5994 67.0881 93.3825 66.8712 93.067 66.812C92.7515 66.7529 92.4557 66.9106 92.2783 67.1473L92.2389 67.2064C92.16 67.2853 92.1008 67.3839 92.0417 67.4825C91.9234 67.7191 91.8839 68.0149 91.8839 68.2712C91.8839 68.4881 91.9036 68.7247 91.9234 68.9416C91.9036 69.0797 91.9036 69.2374 91.9234 69.3951Z" fill="#1E2146"/>
<path d="M83.681 74.0487C84.2923 74.3839 85.0021 74.5219 85.6923 74.5022C86.2838 74.4825 86.8754 74.3247 87.388 74.0487C87.9402 73.7529 88.5317 73.2994 88.7881 72.7078C89.0641 72.0768 88.1965 71.643 87.7824 72.136C87.4866 72.4712 87.25 72.7867 86.8556 73.0036C86.4416 73.2205 85.988 73.3388 85.5345 73.3585C85.0416 73.3783 84.5486 73.2599 84.0556 73.1416C83.7993 73.0825 83.543 72.9839 83.3063 72.8656C83.05 72.7473 82.8331 72.6092 82.5373 72.6092C82.419 72.6092 82.3007 72.6881 82.3401 72.8261C82.4584 73.3783 83.1683 73.7726 83.681 74.0487Z" fill="#1E2146"/>
<path d="M117.242 93.3728C114.659 92.9982 112.115 94.9503 111.031 97.1391L111.011 97.1588C109.118 96.3306 107.678 94.2996 106.397 92.8207C105.588 91.894 104.799 90.9475 104.03 89.9813C103.616 89.4686 103.202 88.9362 102.788 88.4038C102.63 88.2066 102.414 87.9897 102.295 87.7531C102.276 87.7137 102.276 87.6545 102.256 87.6151C104.228 86.8066 106.022 85.7221 107.58 84.4404C111.267 81.384 113.594 77.1051 113.594 72.353C113.594 67.6009 111.267 63.322 107.58 60.2656C103.892 57.2092 98.8445 55.3557 93.2839 55.3557C87.7233 55.3557 82.6754 57.2092 78.9881 60.2656C75.3007 63.322 72.974 67.6009 72.974 72.353C72.974 75.2122 73.8218 77.9136 75.3204 80.2798C74.4528 79.1756 73.6444 77.9925 72.8162 76.8291C71.9289 75.5868 70.9232 74.4629 69.8585 73.3784C68.9317 72.4319 67.9852 71.3671 66.7627 70.8347C64.5345 69.8882 62.3852 71.7812 62.8584 74.1079C63.5091 77.3615 67.4725 77.3418 69.9965 76.9671C70.2528 76.9277 70.4303 76.8094 70.5486 76.6516C71.0021 77.2037 71.4556 77.7558 71.8697 78.3474C73.5458 80.6742 75.1824 82.9024 77.45 84.6967C79.4613 86.2939 81.7092 87.4573 84.174 88.108C83.2867 89.5475 82.6754 91.1841 82.1825 92.7616C81.5515 94.694 81.0388 96.7053 80.7825 98.7165C80.5655 100.314 80.5458 102.088 81.2557 103.587C82.0642 105.283 83.5825 106.012 85.3374 106.426C85.8501 106.545 86.3628 106.663 86.8952 106.742C86.7374 107.176 86.5994 107.61 86.4811 108.083C86.2839 108.911 86.1064 109.739 85.929 110.567C85.7515 111.474 85.574 112.381 85.3966 113.308C83.267 113.131 81.0388 113.21 78.9486 113.742C77.9233 113.998 76.9374 114.472 76.3655 115.398C75.8726 116.227 75.7345 117.39 76.4641 118.139C77.174 118.869 78.574 118.691 79.5008 118.632C80.5655 118.573 81.5909 118.396 82.6163 118.1C83.6416 117.804 84.6078 117.429 85.5543 116.917C86.0078 116.66 86.6191 116.443 86.7769 115.891C86.9543 115.319 86.8755 114.649 86.974 114.057C87.1712 112.736 87.3881 111.395 87.6445 110.074C87.7628 109.404 87.9008 108.714 88.0388 108.043C88.098 107.669 88.1374 107.314 88.1769 106.939C91.3712 107.353 94.6445 107.235 97.7797 106.584C98.1741 106.505 98.5882 106.407 98.9826 106.308C99.0417 106.9 99.0614 107.472 99.1797 108.043C99.2981 108.714 99.4361 109.404 99.5741 110.074C99.8305 111.395 100.047 112.717 100.245 114.057C100.323 114.649 100.264 115.319 100.442 115.891C100.599 116.424 101.191 116.66 101.664 116.917C102.591 117.429 103.577 117.804 104.602 118.1C105.628 118.396 106.653 118.573 107.718 118.632C108.645 118.672 110.025 118.849 110.754 118.139C111.484 117.41 111.346 116.227 110.853 115.398C110.281 114.472 109.295 113.998 108.27 113.742C106.2 113.21 103.971 113.131 101.822 113.308C101.645 112.401 101.467 111.494 101.29 110.567C101.112 109.739 100.954 108.911 100.738 108.083C100.56 107.353 100.304 106.702 100.047 106.012C101.25 105.657 102.433 105.243 103.577 104.75C104.366 104.395 105.332 104.06 105.825 103.331C106.377 102.502 106.278 101.3 106.259 100.353C106.2 98.0067 105.647 95.7588 104.859 93.5897C105.647 94.5165 106.456 95.4236 107.264 96.2912C108.112 97.1982 109 98.1053 110.143 98.6574C111.366 99.2489 112.746 99.3672 114.067 99.3475C115.329 99.3278 116.631 99.2095 117.695 98.4799C118.642 97.8489 119.332 96.7841 119.293 95.6405C119.194 94.4968 118.405 93.5503 117.242 93.3728ZM65.4612 74.9756C64.6725 74.4826 63.9232 72.8262 65.1852 72.353C66.4472 71.8798 68.0246 73.9502 68.7542 74.6798C68.9711 74.8967 69.1683 75.1136 69.3655 75.3305C68.0641 75.5277 66.6246 75.7051 65.4612 74.9756ZM85.0416 115.083C83.9177 115.714 82.6754 116.207 81.4134 116.463C80.7233 116.621 80.0134 116.7 79.3036 116.759C78.9881 116.779 78.6529 116.798 78.3374 116.779C78.1796 116.779 78.0022 116.739 77.8247 116.759L77.7655 116.739C77.9627 115.477 79.7965 115.339 80.7825 115.181C82.2022 114.965 83.6219 114.925 85.0416 115.024V115.083ZM106.338 115.201C107.343 115.359 109.157 115.497 109.354 116.759L109.295 116.779C109.138 116.759 108.96 116.798 108.783 116.798C108.467 116.798 108.132 116.798 107.816 116.779C107.107 116.719 106.397 116.641 105.707 116.483C104.445 116.207 103.202 115.734 102.078 115.103V115.063C103.518 114.945 104.938 114.984 106.338 115.201ZM80.3092 61.8628C83.6022 59.1219 88.1966 57.4064 93.3037 57.4064C98.4107 57.4064 103.005 59.1219 106.298 61.8628C109.591 64.6037 111.583 68.3107 111.583 72.3924C111.583 76.4741 109.591 80.1812 106.298 82.9221C104.661 84.2826 102.709 85.3869 100.54 86.1559C100.304 86.1756 100.087 86.2348 99.9093 86.3728C97.8586 87.0235 95.6304 87.3784 93.3037 87.3784C88.1966 87.3784 83.6022 85.6629 80.3092 82.9221C77.0162 80.1812 75.0247 76.4741 75.0247 72.3924C75.0247 68.3107 77.0162 64.6037 80.3092 61.8628ZM104.366 101.714C104.307 102.404 104.09 102.502 103.478 102.798C101.842 103.587 100.107 104.198 98.3319 104.632C94.8614 105.48 91.2332 105.657 87.6839 105.125C86.1853 104.888 84.0754 104.711 83.1092 103.37C82.3008 102.266 82.2811 100.708 82.3994 99.4067C82.5768 97.3757 83.0698 95.3447 83.6613 93.3926C84.2135 91.5982 84.9825 89.8827 85.5543 88.108C87.9402 88.9362 90.5628 89.3897 93.3037 89.3897C95.6699 89.3897 97.9375 89.0545 100.047 88.4235C101.645 91.4207 103.222 94.5165 103.971 97.8292C104.169 98.6968 104.307 99.5644 104.346 100.452C104.385 100.886 104.385 101.3 104.366 101.714ZM115.309 97.5334C114.481 97.6715 113.554 97.6912 112.667 97.5926C113.14 96.7447 113.831 96.0348 114.698 95.5813C115.309 95.2658 117.242 94.4968 117.498 95.5419C117.774 96.725 116.216 97.3757 115.309 97.5334Z" fill="#1E2146"/>
<path d="M82.7543 73.2008C82.7543 73.2008 86.0867 79.4712 88.2952 72.55" stroke="#1E2146" stroke-width="5" stroke-miterlimit="10" stroke-linecap="round" stroke-linejoin="round"/>
<path d="M36.9288 40.4879C36.9485 40.8034 36.9682 41.0991 37.0865 41.3949C37.2837 41.8485 37.6584 42.1639 38.1316 42.2625C38.5851 42.3611 39.0781 42.1639 39.3541 41.7893C39.5513 41.5132 39.6499 41.178 39.6696 40.8428C39.6894 40.6259 39.6894 40.409 39.6894 40.1921C39.7485 39.8766 39.7682 39.5611 39.7485 39.2259C39.7288 38.8512 39.6894 38.4372 39.5119 38.1019C39.4527 37.9639 39.3541 37.8259 39.2358 37.7076L39.1767 37.609C38.9203 37.2541 38.4865 37.0371 38.033 37.116C37.5795 37.1949 37.264 37.5104 37.0668 37.9048C36.771 38.4963 36.7316 39.2851 36.7907 39.9358C36.8696 40.1329 36.8893 40.3104 36.9288 40.4879Z" fill="#1E2146"/>
<path d="M19.0637 37.7271L19.0046 37.6285C18.7482 37.2736 18.3144 37.0567 17.8609 37.1356C17.4074 37.2144 17.0919 37.5299 16.8947 37.9243C16.5989 38.5158 16.5595 39.3046 16.6186 39.9553C16.6383 40.1328 16.6581 40.3102 16.6975 40.4877C16.7172 40.8032 16.7369 41.099 16.8553 41.3947C17.0524 41.8483 17.4271 42.1638 17.9003 42.2623C18.3539 42.3609 18.8468 42.1638 19.1229 41.7891C19.3201 41.513 19.4187 41.1778 19.4384 40.8426C19.4581 40.6257 19.4581 40.4088 19.4581 40.1919C19.5172 39.8764 19.537 39.5609 19.5172 39.2257C19.4975 38.8511 19.4581 38.437 19.2806 38.1018C19.2806 37.9637 19.182 37.8257 19.0637 37.7271Z" fill="#1E2146"/>
<path d="M31.1512 51.9243C31.447 51.9046 31.7822 51.8849 32.0779 51.7469C32.5118 51.53 32.7287 51.0962 32.6695 50.6032C32.6301 50.2483 32.5512 49.8933 32.4723 49.5384C32.4132 49.2032 32.3737 48.8483 32.2751 48.513C32.6892 48.3553 33.1033 48.1778 33.5174 47.9609C34.0498 47.6849 34.8385 47.3891 34.8582 46.7187C34.8582 46.4623 34.7597 46.2257 34.5033 46.1271C33.9118 45.8905 33.5174 46.3046 33.0244 46.5609C32.5118 46.837 31.9596 47.0736 31.4075 47.2905C30.3033 47.7046 29.1202 47.9215 27.9371 47.9806C26.7934 48.0398 25.63 47.9215 24.5061 47.7046C23.9145 47.5863 23.3427 47.4088 22.7709 47.2313C22.1596 47.0539 21.568 46.9553 20.9765 46.6792C20.6215 46.5215 20.3258 47.0342 20.6413 47.2708C21.1539 47.6454 21.6272 48.0792 22.1793 48.375C22.5737 48.5919 23.0075 48.7497 23.4216 48.868C23.323 49.1046 23.2244 49.3412 23.1455 49.5581C23.0469 49.8342 22.968 50.1102 22.9089 50.3863C22.8892 50.4455 22.8694 50.5046 22.8694 50.5835L22.83 50.7018L22.8103 50.7412C22.7906 50.8004 22.7709 50.8793 22.7511 50.9384C22.7314 51.0173 22.7314 51.0764 22.7117 51.1553C22.6525 51.53 22.968 51.8849 23.3032 51.9243C23.8554 52.0032 24.4272 52.0229 24.9793 52.0624C25.2554 52.0821 25.5512 52.1018 25.8272 52.1215C26.1427 52.1412 26.4582 52.1412 26.754 52.0229C27.3061 51.7863 27.6019 51.2342 27.6019 50.6624C27.6019 50.3863 27.5624 50.1497 27.5033 49.8736C27.4836 49.7356 27.4441 49.5976 27.4244 49.4792V49.4595C27.5821 49.4595 27.7399 49.4595 27.8779 49.4595H27.9765C27.8779 49.8145 27.8385 50.1694 27.9371 50.544C28.0159 50.8398 28.1145 51.1159 28.3117 51.3525C28.3709 51.4314 28.4498 51.4905 28.5286 51.5694L28.5483 51.5891C28.6864 51.7666 28.8836 51.8652 29.0807 51.9243C29.7709 52.1215 30.5005 51.9835 31.1512 51.9243ZM26.2216 50.5835L26.2019 50.6821H26.1427H26.0638C25.9455 50.6821 25.8469 50.6624 25.7286 50.6624C25.4723 50.6426 25.2159 50.6426 24.9793 50.6229C24.7033 50.6032 24.4469 50.6032 24.1709 50.5835V50.5638C24.2103 50.3271 24.2497 50.0708 24.2892 49.8342C24.3286 49.5976 24.4075 49.3609 24.4666 49.1243C24.999 49.2426 25.5511 49.3412 26.1033 49.3807C26.0835 49.7356 26.2019 50.13 26.2413 50.4652L26.2216 50.5835ZM29.6723 50.6229L29.554 50.6032H29.5343L29.3962 50.544H29.3568L29.3174 50.4849L29.2779 50.4257L29.2188 50.2877L29.1991 50.2088C29.1793 50.0905 29.1399 49.8933 29.1399 49.8145C29.1399 49.7159 29.1399 49.4792 29.1399 49.3609V49.3412C29.7512 49.2623 30.3427 49.144 30.9343 48.9863C30.9737 49.2229 31.0132 49.4398 31.0526 49.6764C31.092 49.9525 31.1512 50.2088 31.1906 50.4849C30.8751 50.5243 30.5596 50.544 30.2244 50.5835C30.0667 50.6032 29.9286 50.6229 29.7709 50.6229H29.6723Z" fill="#1E2146"/>
<path d="M58.7373 56.5189C56.9034 55.2767 54.3401 55.3753 52.4471 56.4203C50.2189 57.6429 48.878 59.9302 47.9316 62.2176C46.8865 64.8007 46.1569 67.5218 45.7428 70.2824C43.8696 67.9951 42.371 65.4908 40.9315 62.888C40.9512 62.6711 40.9512 62.4345 40.9512 62.2176C40.9512 62.0993 40.9512 61.9809 40.9118 61.8823C50.9485 58.1556 57.9682 49.7555 57.9682 40.0146C57.9682 33.8625 55.1682 28.2427 50.5738 23.9835C51.2837 22.5835 51.8161 21.0455 52.3879 19.606C53.0583 17.8511 53.6499 16.037 54.1429 14.2032C54.5964 12.5666 54.9316 10.8905 55.1485 9.19471C55.3457 7.5778 55.5231 5.84258 55.1485 4.24538C54.4584 1.38621 51.6781 -0.230701 48.9964 1.28762C47.7541 1.99748 46.9062 3.18059 46.2555 4.42285C45.4273 5.94117 44.7569 7.55808 44.1456 9.17499C43.002 12.1328 42.1146 15.1891 41.247 18.2455C37.6188 16.8652 33.5963 16.0764 29.3568 16.0764C24.5455 16.0764 20.0103 17.0821 16.0271 18.837C15.1004 15.5835 14.1736 12.3299 12.9511 9.17499C12.3398 7.55808 11.6497 5.94117 10.8412 4.42285C10.1708 3.18059 9.3426 1.99748 8.10034 1.28762C5.41864 -0.230701 2.63834 1.38621 1.94819 4.24538C1.57354 5.84258 1.75101 7.59752 1.94819 9.19471C2.1651 10.8905 2.50031 12.5666 2.95383 14.2032C3.4468 16.0173 4.01863 17.8314 4.70877 19.606C5.39892 21.4201 6.04963 23.3525 7.07498 25.0089C3.09186 29.1103 0.705933 34.3357 0.705933 40.0146C0.705933 49.7161 7.66654 58.0964 17.6441 61.8429C17.23 65.0767 16.3229 68.1528 15.2976 71.2289C14.3511 74.0881 13.3454 76.9669 12.9511 79.9641C12.3004 84.9332 13.2074 90.7501 17.5849 93.8459C18.0976 94.2008 18.63 94.5163 19.1821 94.7727C19.0243 95.2262 18.9652 95.7192 18.8863 96.2318C18.7483 97.1389 18.63 98.0459 18.5117 98.953C18.275 100.767 18.0187 102.581 17.7821 104.395C17.5455 106.209 17.3286 108.023 17.0919 109.838L16.7962 112.223C16.6976 113.032 16.5201 113.919 16.8159 114.708C17.2891 115.95 18.5708 116.404 19.7934 116.601C21.3511 116.838 22.9878 116.838 24.5258 116.542C25.7681 116.325 27.2469 115.97 28.0948 114.945C28.923 113.939 28.8047 112.598 27.9371 111.671C26.8526 110.508 25.0582 110.015 23.5793 109.68C22.0807 109.345 20.5427 109.266 19.0244 109.404C19.2215 107.747 19.4187 106.091 19.5962 104.435C19.7934 102.68 19.9708 100.905 20.168 99.1502C20.2666 98.2431 20.3652 97.3361 20.4441 96.429C20.4835 96.0741 20.523 95.6995 20.523 95.3445C22.2187 95.9558 24.0525 96.2318 25.8666 96.3502C29.2188 96.5671 32.6301 96.3699 35.9428 95.8572C35.6667 98.7558 35.9428 101.773 36.0611 104.632C36.2188 108.004 36.416 111.395 36.7118 114.767C36.7512 115.181 37.1259 115.497 37.5202 115.556C39.6498 115.891 41.8583 115.694 43.8893 114.945C45.5259 114.333 48.109 113.15 48.2273 111.119C48.3456 109.029 45.9992 108.516 44.402 108.516C43.2583 108.516 42.1343 108.615 41.0301 108.852C40.0836 109.049 38.9991 109.266 38.1315 109.759C37.9935 108.023 37.8554 106.288 37.7371 104.553C37.5597 101.615 37.6188 98.5783 37.185 95.6403C39.5907 95.2262 42.2132 94.5755 43.6329 92.5051C45.2499 90.1783 44.7372 87.2402 44.0076 84.6768C43.002 81.1275 41.9569 77.6374 41.4442 73.9697C41.0893 71.4261 40.9118 68.8627 40.8921 66.2993C42.1541 68.7444 43.8498 71.012 45.7034 73.0035C46.2161 73.5557 47.2414 73.3979 47.34 72.55C47.6752 69.5331 48.3259 66.5359 49.371 63.6767C49.6865 62.8486 50.0414 61.9612 50.495 61.133C50.5738 61.2316 50.6921 61.3302 50.8499 61.3894C52.1907 62.0007 53.6302 62.395 55.0893 62.5331C56.3316 62.6514 57.8302 62.6908 58.9936 62.1387C61.419 60.9556 60.6499 57.8204 58.7373 56.5189ZM23.3032 111.592C24.092 111.79 24.8807 112.046 25.6103 112.401C25.9652 112.578 26.6751 112.894 26.7145 113.367C26.8131 114.452 23.9342 114.669 23.3032 114.747C22.4554 114.846 21.6272 114.846 20.7793 114.787C20.2075 114.728 19.4582 114.728 18.9455 114.412C18.2751 114.018 18.5708 113.131 18.6497 112.48C18.6891 112.125 18.7286 111.75 18.768 111.395C20.2666 111.178 21.8046 111.238 23.3032 111.592ZM40.616 110.843C41.4245 110.646 42.2724 110.508 43.1005 110.429C43.5738 110.39 46.8076 110.133 46.1569 111.316C45.8217 111.908 44.9541 112.322 44.3822 112.598C43.6921 112.953 42.9822 113.229 42.2329 113.426C40.9907 113.762 39.709 113.86 38.447 113.762C38.3681 113.012 38.309 112.263 38.2301 111.514C39.0583 111.435 39.8273 111.04 40.616 110.843ZM45.5851 9.8257C46.0977 8.46513 46.6696 7.12427 47.3006 5.82286C47.8921 4.60031 48.602 3.27918 49.8442 2.60875C51.0865 1.93833 52.4471 2.27354 53.1767 3.49608C53.9062 4.69891 53.8274 6.21723 53.7288 7.55808C53.5119 10.575 52.802 13.5328 51.8555 16.4117C51.402 17.7919 50.909 19.1525 50.3964 20.5131C50.0809 21.3413 49.7457 22.1694 49.4302 22.9976C49.1147 22.7215 48.7794 22.4652 48.4442 22.2089C48.5428 21.9328 48.6217 21.6568 48.7203 21.3807C48.878 20.9272 49.0358 20.4736 49.1738 20.0004C49.4302 19.1525 49.6471 18.3046 49.8048 17.437C50.1203 15.7018 50.2386 13.8877 50.0809 12.113C50.0217 11.5609 49.8837 10.9299 49.4499 10.5356C48.9175 10.0623 48.2076 10.1609 47.6752 10.5553C47.0442 11.0285 46.5907 11.7778 46.1569 12.4285C45.7034 13.1187 45.2893 13.8285 44.9344 14.5581C44.2048 16.037 43.7118 17.5948 43.4752 19.2117C43.2386 19.0934 43.002 18.975 42.7456 18.8765C43.5738 15.8201 44.4611 12.7835 45.5851 9.8257ZM47.6555 20.73C47.5569 20.9666 47.4386 21.2032 47.3203 21.4201C46.3344 20.7497 45.2893 20.1384 44.1851 19.5666C44.5991 18.0286 45.1315 16.4905 45.8414 15.0708C46.2161 14.3018 46.6499 13.5722 47.1428 12.8821C47.3794 12.5468 48.3851 10.9102 48.7597 11.5412C48.9175 11.7975 48.9175 12.1919 48.9372 12.4877C48.9766 12.9806 48.9766 13.4933 48.9569 13.9863C48.9372 14.8933 48.8583 15.7807 48.7203 16.668C48.5823 17.575 48.3851 18.4821 48.109 19.3497C48.0104 19.8229 47.8527 20.2765 47.6555 20.73ZM5.22145 16.4117C4.27497 13.5328 3.56511 10.575 3.3482 7.55808C3.24961 6.21723 3.17074 4.69891 3.90032 3.49608C4.6299 2.27354 5.99047 1.95804 7.23273 2.60875C8.47499 3.27918 9.18486 4.60031 9.77641 5.82286C10.4074 7.12427 10.9792 8.46513 11.4919 9.8257C12.6947 13.0004 13.6215 16.2736 14.5483 19.5469C14.3905 19.6258 14.2328 19.7243 14.075 19.8032C13.444 18.0877 12.7342 16.3919 11.9257 14.7553C11.5116 13.9074 11.0778 13.099 10.6243 12.2905C10.2694 11.6792 9.93416 10.9694 9.26373 10.6144C7.844 9.84542 6.48343 11.2257 6.26653 12.5863C6.1285 13.4736 6.32568 14.3609 6.48343 15.2285C6.64118 16.1159 6.79893 16.9835 6.99611 17.8511C7.4102 19.6455 7.96231 21.6173 9.1257 23.0765C8.73133 23.4117 8.35668 23.7469 7.98203 24.0821C7.64682 22.8596 7.11442 21.6962 6.68062 20.5131C6.16794 19.1525 5.67498 17.7722 5.22145 16.4117ZM9.75669 22.5835C9.18486 20.9469 8.55386 19.3694 8.13978 17.6736C7.92288 16.7666 7.74541 15.8595 7.58766 14.9328C7.42992 14.0257 7.07498 12.7835 7.56795 11.9356C7.76513 11.6004 8.19893 11.2257 8.63274 11.3243C9.08626 11.4229 9.3426 11.9947 9.55951 12.3497C10.0327 13.1975 10.4666 14.0652 10.9004 14.9328C11.7483 16.668 12.4975 18.4624 13.1483 20.2962C11.9454 20.9863 10.8215 21.7554 9.75669 22.5835ZM2.73693 40.0343C2.73693 27.9864 14.6666 18.1666 29.3371 18.1666C44.0076 18.1666 55.9372 27.9667 55.9372 40.0343C55.9372 52.0823 44.0076 61.9021 29.3371 61.9021C14.6666 61.9021 2.73693 52.0823 2.73693 40.0343ZM33.5371 65.3134C34.3259 65.6091 34.8385 66.4176 34.6216 67.2458C34.0695 69.2965 31.4864 68.9021 30.816 67.2063L30.7371 67.0486C30.9343 66.7725 31.1512 66.4965 31.3681 66.2401C31.9005 65.55 32.6301 64.9781 33.5371 65.3134ZM29.3371 63.9528C30.0667 63.9528 30.7765 63.9133 31.4864 63.8739C31.4667 63.8739 31.4667 63.8739 31.447 63.8936C30.5005 64.4063 29.8498 65.2936 29.2385 66.1612C28.4892 67.226 27.7596 68.3303 27.0695 69.4345C25.8666 71.3866 24.7624 73.4176 23.7765 75.4881C22.9483 73.4965 22.199 71.4852 21.4694 69.4542C20.6413 67.1077 19.9511 64.7218 19.1229 62.3753C22.2976 63.4007 25.7483 63.9528 29.3371 63.9528ZM42.6273 88.7586C42.6273 89.9614 42.2921 91.1248 41.385 91.9529C40.4583 92.7811 39.1766 93.1361 37.9935 93.3924C34.8188 94.0825 31.5456 94.4178 28.3117 94.4178C25.5906 94.4178 22.7314 94.2403 20.2075 93.0966C15.5342 90.967 14.3314 85.6431 14.7652 80.9501C15.2384 75.7444 17.7427 70.9331 18.6891 65.8457C19.0638 67.226 19.5173 68.5866 19.9511 69.9472C20.8384 72.6486 21.8638 75.3303 22.968 77.9529C23.2638 78.643 24.2497 78.6036 24.5455 77.9332C25.5117 75.8036 26.5765 73.7331 27.7596 71.7021C28.3314 70.6965 28.9427 69.6908 29.5737 68.7049C30.5202 70.0458 32.2357 70.7951 33.8723 70.2627C35.7061 69.6711 36.909 67.5021 36.1794 65.6683C35.7653 64.6626 34.8977 63.9331 33.9118 63.6373C35.647 63.4007 37.323 63.0457 38.9202 62.5725C38.5653 68.7049 39.1569 74.8768 40.7146 80.812C41.385 83.3951 42.6273 86.0571 42.6273 88.7586ZM55.7401 60.719C54.2612 60.6401 52.8612 60.2654 51.5203 59.6542L51.4414 59.6344C51.9936 58.9443 52.664 58.3527 53.4527 57.9387C55.0302 57.1499 58.2246 57.1302 58.6584 59.3978C58.9739 60.8964 56.6668 60.7781 55.7401 60.719Z" fill="#1E2146"/>
<path d="M25.9257 43.6232C26.1032 43.6823 26.261 43.702 26.4384 43.702C26.6356 43.702 26.8328 43.6823 27.03 43.6626C27.3455 43.6232 27.661 43.5837 27.9765 43.564C28.2722 43.5443 28.5877 43.5246 28.8835 43.5246H28.9427C29.0413 43.5246 29.1201 43.5246 29.2187 43.5246C29.2779 43.5246 29.3567 43.5246 29.4159 43.5246C29.692 43.5246 29.8694 43.4654 30.0863 43.3274C30.5399 43.0119 30.461 42.3415 30.0863 42.026C29.7117 41.7302 29.1004 41.8091 28.6666 41.8288C28.3511 41.8485 28.0356 41.8682 27.7398 41.9274C27.03 42.0457 26.2018 42.2034 25.6891 42.7555C25.4722 43.0119 25.5905 43.5246 25.9257 43.6232Z" fill="#1E2146"/>
</svg>
