<svg width="120" height="120" viewBox="0 0 120 120" fill="none" xmlns="http://www.w3.org/2000/svg">
<g clip-path="url(#clip0_3810_58240)">
<g opacity="0.21">
<path d="M58.5881 75.8825C58.3105 76.0367 58.3105 76.4378 58.5881 76.6075L87.4026 93.9281C87.7882 94.1595 88.2664 94.1595 88.6521 93.9281L93.5423 91.1051C93.82 90.9508 93.82 90.5497 93.5423 90.38L60.1242 70.9226C59.7385 70.7067 60.0326 72.8275 59.647 73.0589L58.5881 75.8825Z" fill="#3B3D40"/>
</g>
<path d="M43.0588 28.954L43.1471 55.8005C43.1471 55.9657 43.2463 56.1435 43.4449 56.2706C43.8419 56.5374 44.4816 56.5374 44.8787 56.2706C45.0772 56.1435 45.1765 55.9657 45.1765 55.7878L45.0772 28.9413C45.0772 29.1192 44.978 29.2843 44.7794 29.4241C44.3824 29.6909 43.7427 29.6909 43.3456 29.4241C43.1581 29.297 43.0588 29.1192 43.0588 28.954Z" fill="black"/>
<path d="M43.0669 28.3809C42.5116 28.7049 42.5116 29.2139 43.0669 29.5379C43.6223 29.8618 44.517 29.8618 45.0723 29.5379C45.6277 29.2139 45.6277 28.7049 45.0723 28.3809C44.517 28.057 43.6223 28.057 43.0669 28.3809Z" fill="black"/>
<path d="M84.6721 91.583V93.8507C84.6721 94.9151 85.3663 95.9641 86.7547 96.7663C89.5469 98.3861 94.0977 98.3861 96.9207 96.7663C98.34 95.9487 99.0496 94.8689 99.0496 93.8044V91.5367C99.0496 92.6012 98.34 93.681 96.9207 94.4986C94.1131 96.1184 89.5469 96.1184 86.7547 94.4986C85.3663 93.6964 84.6721 92.6474 84.6721 91.583Z" fill="#B0B5B7"/>
<path d="M86.7857 88.6211C83.9626 90.2408 83.9472 92.8788 86.7548 94.514C89.547 96.1337 94.0978 96.1337 96.9208 94.514C99.7439 92.8788 99.7593 90.2563 96.9517 88.6211C94.1595 86.9859 89.6087 86.9859 86.7857 88.6211Z" fill="#6A7072"/>
<path d="M86.9246 89.377V90.9814C86.9246 91.7219 87.4182 92.4778 88.4055 93.0485C90.3801 94.1901 93.5888 94.1901 95.5788 93.0485C96.5815 92.4778 97.0752 91.7064 97.0752 90.9505V89.3462C97.0752 90.1021 96.5815 90.858 95.5788 91.4442C93.5888 92.5857 90.3801 92.6012 88.4055 91.4442C87.4182 90.858 86.9246 90.1175 86.9246 89.377Z" fill="#B0B5B7"/>
<path d="M88.4209 87.2791C86.4309 88.4207 86.4155 90.2873 88.4055 91.4443C90.3801 92.6012 93.5888 92.5858 95.5788 91.4443C97.5688 90.3027 97.5842 88.4361 95.5942 87.2791C93.635 86.1221 90.4109 86.1221 88.4209 87.2791Z" fill="#8F9496"/>
<path d="M90.5806 58.9253L90.6886 89.2229C90.6886 89.4235 90.8274 89.6394 91.1051 89.7937C91.6604 90.1176 92.5552 90.1176 93.1105 89.7937C93.3882 89.6394 93.527 89.4234 93.527 89.2075L93.4036 58.9099C93.4036 59.1259 93.2648 59.3264 92.9871 59.4961C92.4317 59.8201 91.537 59.8201 90.9817 59.4961C90.7194 59.3419 90.5806 59.1259 90.5806 58.9253Z" fill="#B0B5B7"/>
<path d="M90.9971 58.3392C90.4417 58.6631 90.4417 59.1722 90.9971 59.4961C91.5524 59.8201 92.4472 59.8201 93.0025 59.4961C93.5579 59.1722 93.5579 58.6631 93.0025 58.3392C92.4472 58.0152 91.5524 58.0152 90.9971 58.3392Z" fill="#989C9E"/>
<path d="M38.1768 29.8928L40.8456 34.5516L38.1614 32.9935L38.1768 29.8928Z" fill="#F44747"/>
<path d="M38.1922 21.2078L38.4236 21.3312L48.6513 39.0408L40.8455 34.5517L38.1768 29.8929L38.1922 21.2078Z" fill="white"/>
<path d="M38.1924 21.2077L40.892 19.6342L41.1234 19.7576L38.4238 21.3311L38.1924 21.2077Z" fill="#E2E2E2"/>
<path d="M46.8464 26.2058L57.0742 43.9154L48.6513 39.0406L38.4236 21.3311L46.8464 26.2058Z" fill="#F44747"/>
<path d="M38.4236 21.3311L41.1232 19.7576L49.5461 24.6323L46.8464 26.2058L38.4236 21.3311Z" fill="#D13D3D"/>
<path d="M46.8464 26.2059L54.6677 30.7259L64.8954 48.4355L57.0742 43.9155L46.8464 26.2059Z" fill="white"/>
<path d="M46.8464 26.2058L49.5461 24.6323L57.3827 29.1523L54.6677 30.7258L46.8464 26.2058Z" fill="#E5E5E5"/>
<path d="M63.106 35.585L73.3337 53.2946L64.8955 48.4353L54.6677 30.7257L63.106 35.585Z" fill="#F44747"/>
<path d="M54.6677 30.7258L57.3828 29.1523L65.8056 34.0117L63.106 35.5852L54.6677 30.7258Z" fill="#D13D3D"/>
<path d="M63.106 35.5851L70.9272 40.105L81.1549 57.8146L73.3337 53.2947L63.106 35.5851Z" fill="white"/>
<path d="M63.106 35.5851L65.8056 34.0116L73.6268 38.5316L70.9272 40.105L63.106 35.5851Z" fill="#E5E5E5"/>
<path d="M79.3655 44.9799L89.5778 62.674L81.155 57.8147L70.9272 40.1051L79.3655 44.9799Z" fill="#F44747"/>
<path d="M70.9272 40.1051L73.6269 38.5316L82.0652 43.4064L79.3655 44.9799L70.9272 40.1051Z" fill="#D13D3D"/>
<path d="M79.3655 44.98L87.1867 49.4845L97.4144 67.1941L89.5778 62.6741L79.3655 44.98Z" fill="white"/>
<path d="M79.3655 44.98L82.0651 43.4065L89.8863 47.911L87.1867 49.4845L79.3655 44.98Z" fill="#E5E5E5"/>
<path d="M97.723 57.9998L100.423 56.4263L100.392 65.7901L97.6921 67.3636L97.723 57.9998Z" fill="#D13D3D"/>
<path d="M87.1868 49.4844L89.8864 47.9109L98.3092 52.7857L95.6096 54.3592L87.1868 49.4844Z" fill="#D13D3D"/>
<path d="M95.6096 54.3591L97.723 57.9998L97.6922 67.3636L97.4145 67.194L87.1868 49.4844L95.6096 54.3591Z" fill="#F44747"/>
<path d="M95.6096 54.3591L97.723 55.5778V57.9998L95.6096 54.3591Z" fill="white"/>
<path d="M98.3092 52.7856L95.6096 54.3591L97.723 55.5778V57.9998L100.423 56.4263V54.0043L98.3092 52.7856Z" fill="#E5E5E5"/>
<path d="M0.705811 14.96C0.705811 7.10791 8.35734 0.705933 17.7829 0.705933C27.0696 0.705933 34.644 6.9228 34.8446 14.636C35.7702 10.764 39.2565 7.87924 43.4063 7.87924C48.2656 7.87924 52.2148 11.8284 52.2148 16.7032C52.2148 21.5625 48.2656 25.5117 43.4063 25.5117C42.9743 25.5117 42.5578 25.4654 42.1413 25.4191C42.1721 25.6968 42.0796 25.9745 42.0179 26.2367L41.8482 26.9772C41.7402 27.4708 41.6322 27.9645 41.5088 28.4581C41.4008 28.9209 41.3391 29.43 41.046 29.8157C41.4779 29.9236 41.8945 30.0471 42.3264 30.1705C42.7738 30.2939 43.2211 30.4019 43.6068 30.6487C44.3473 31.1269 44.5324 32.0371 44.0696 32.793C43.5914 33.5951 42.6041 33.842 41.7402 33.9808C41.1386 34.0734 40.5061 34.0888 39.889 33.9962C39.9199 34.0579 39.9507 34.1042 39.9662 34.1659C40.0741 34.5362 39.9507 34.891 39.6885 35.1686C39.5034 35.3538 39.2874 35.4463 39.056 35.4926C38.9326 35.5543 38.7783 35.5697 38.6549 35.5389C38.5778 35.5235 38.5161 35.4926 38.4698 35.4463C38.223 35.3692 37.9916 35.2149 37.8064 35.0144C37.683 34.891 37.6522 34.6441 37.7293 34.4899C37.8527 34.2585 37.9607 34.0425 38.0687 33.8111C38.1304 33.6723 38.2075 33.5489 38.2847 33.41C37.1123 32.6387 36.3718 31.1886 36.7729 29.8157L36.6495 29.7848C34.7829 29.3529 32.9008 28.9364 31.0034 28.5815C30.0624 28.3964 29.1059 28.2576 28.1649 28.057C27.4244 27.9028 26.684 27.7177 25.9435 27.548C25.9898 27.6097 26.0361 27.6714 26.0669 27.7639C27.5016 31.7902 28.566 36.0017 29.3065 40.1977C29.5841 41.7403 29.6304 43.4372 28.4889 44.6713C27.517 45.7049 26.1286 46.1677 24.7711 46.4454C24.7094 46.4608 24.6323 46.4608 24.5705 46.4762C24.7865 47.5561 24.6631 48.7285 24.6323 49.8238C24.6014 51.0116 24.5705 52.1995 24.5397 53.3719C24.5088 54.606 24.4626 55.8401 24.4317 57.0742C25.5116 56.9817 26.6068 57.0896 27.6558 57.3673C28.6277 57.6296 29.939 58.1849 29.8001 59.4036C29.6767 60.576 28.3655 61.0697 27.3782 61.2856C26.0978 61.5633 24.7711 61.4553 23.5215 61.0388C23.2593 60.9617 23.1513 60.6686 23.1667 60.4218C23.1976 59.5733 23.2284 58.7094 23.2593 57.861C23.2439 57.753 23.2439 57.645 23.2747 57.537C23.321 56.1023 23.3673 54.6523 23.429 53.2176C23.4753 51.9989 23.5215 50.7802 23.5678 49.5615C23.6141 48.5742 23.5987 47.5561 23.8147 46.5842C22.3029 46.831 20.7756 46.9545 19.2484 47.0007C18.8319 47.0162 18.4154 47.0162 17.9989 47.0162C18.0606 49.4381 17.8138 51.8755 17.6595 54.282L17.4435 57.537C17.3818 58.4626 17.4589 59.527 17.1504 60.4063C16.8265 61.3011 15.9626 61.5016 15.0987 61.5633C14.1577 61.625 13.1395 61.6404 12.214 61.4708C11.3655 61.3165 10.5325 60.8846 10.2394 60.0052C9.99254 59.2493 10.2856 58.4472 10.9644 58.0461C11.6432 57.645 12.4608 57.6913 13.2167 57.7067C14.204 57.7221 15.1913 57.753 16.194 57.7684C16.2094 57.3827 16.2248 57.0125 16.2557 56.6577C16.3328 55.5779 16.4099 54.4826 16.5025 53.4027C16.6722 51.2739 16.7802 49.0987 17.135 46.9853C16.1477 46.9699 15.1758 46.8928 14.2194 46.6614C12.8773 46.3528 11.5815 45.6895 10.9798 44.3937C10.625 43.6378 10.5942 42.7893 10.625 41.9717C10.6559 41.0461 10.7484 40.1051 10.8256 39.1641C10.9953 37.2358 11.2112 35.3229 11.4735 33.41C11.5969 32.4536 11.7666 31.4971 11.9363 30.5407C11.9826 30.3093 12.0134 30.0779 12.0597 29.8465C11.5198 31.0652 10.9336 32.2685 10.3628 33.4717C9.28292 35.8011 8.2185 38.1614 7.30834 40.5833C7.40089 40.5988 7.49345 40.6296 7.58601 40.6913C9.20579 41.8329 10.0697 44.224 9.12866 46.0597C8.72757 46.8465 7.97167 47.5715 7.06151 47.6641C6.13593 47.7566 5.33375 47.1704 4.97894 46.3374C4.547 45.2884 4.87095 44.1931 5.19491 43.1596C5.54972 42.0643 5.95081 40.969 6.36732 39.8891C7.21578 37.6986 8.17222 35.5389 9.19036 33.4255C10.0234 31.6823 10.8873 29.9545 11.8746 28.2884C5.39545 26.3447 0.705811 21.0997 0.705811 14.96ZM29.5996 27.3166C30.9108 27.5325 32.2066 27.7639 33.5179 28.0262C35.4308 28.4119 37.3437 28.8438 39.2411 29.3374C39.4725 28.5661 39.7193 27.8102 39.9507 27.0389C40.0587 26.6687 40.1976 26.2984 40.3364 25.9436C40.4444 25.6659 40.5369 25.3574 40.6758 25.0797C37.3282 23.9845 34.86 20.9454 34.6132 17.2894C33.7956 21.3774 30.8954 24.8946 26.8382 27.0235C27.7638 27.1006 28.674 27.1777 29.5996 27.3166Z" fill="#EAF3FC"/>
<path d="M26.1594 15.6388L26.1285 15.5771C25.9743 15.3611 25.712 15.2377 25.4498 15.284C25.1875 15.3302 24.987 15.5154 24.879 15.7622C24.7093 16.117 24.6784 16.5798 24.7247 16.9654C24.7402 17.0734 24.7556 17.1814 24.771 17.2894C24.7864 17.4745 24.8019 17.6596 24.8636 17.8293C24.987 18.0916 25.2029 18.2921 25.4806 18.3538C25.7583 18.4155 26.0514 18.2921 26.2211 18.0762C26.3445 17.9219 26.4062 17.7059 26.4062 17.5054C26.4062 17.382 26.4216 17.2431 26.4062 17.1197C26.4371 16.9346 26.4525 16.7341 26.4525 16.5489C26.4525 16.333 26.4062 16.0861 26.3136 15.8702C26.2828 15.7776 26.2365 15.7005 26.1594 15.6388Z" fill="#1E2146"/>
<path d="M14.1269 15.6388L14.0961 15.5771C13.9418 15.3611 13.6795 15.2377 13.4173 15.284C13.155 15.3302 12.9545 15.5154 12.8465 15.7622C12.6768 16.117 12.646 16.5798 12.6923 16.9654C12.7077 17.0734 12.7231 17.1814 12.7385 17.2894C12.754 17.4745 12.7694 17.6596 12.8311 17.8293C12.9545 18.0916 13.1705 18.2921 13.4482 18.3538C13.7258 18.4155 14.0189 18.2921 14.1886 18.0762C14.312 17.9219 14.3737 17.7059 14.3737 17.5054C14.3737 17.382 14.3892 17.2431 14.3737 17.1197C14.4046 16.9346 14.42 16.7341 14.42 16.5489C14.42 16.333 14.3737 16.0861 14.2812 15.8702C14.2503 15.7776 14.1886 15.7005 14.1269 15.6388Z" fill="#1E2146"/>
<path d="M11.9517 43.2675C11.9054 43.2367 11.8746 43.1904 11.8437 43.1441L11.9517 43.2675ZM11.9517 43.2675C11.9054 43.2367 11.8746 43.1904 11.8437 43.1441L11.9517 43.2675ZM0.705811 14.96C0.705811 7.10791 8.35734 0.705933 17.7829 0.705933C27.0696 0.705933 34.644 6.9228 34.8446 14.636C35.7702 10.764 39.2565 7.87924 43.4063 7.87924C48.2656 7.87924 52.2148 11.8284 52.2148 16.7032C52.2148 21.5625 48.2656 25.5117 43.4063 25.5117C42.9743 25.5117 42.5578 25.4654 42.1413 25.4191C42.1721 25.6968 42.0796 25.9745 42.0179 26.2367L41.8482 26.9772C41.7402 27.4708 41.6322 27.9645 41.5088 28.4581C41.4008 28.9209 41.3391 29.43 41.046 29.8157C41.4779 29.9236 41.8945 30.0471 42.3264 30.1705C42.7738 30.2939 43.2211 30.4019 43.6068 30.6487C44.3473 31.1269 44.5324 32.0371 44.0696 32.793C43.5914 33.5951 42.6041 33.842 41.7402 33.9808C41.1386 34.0734 40.5061 34.0888 39.889 33.9962C39.9199 34.0579 39.9507 34.1042 39.9662 34.1659C40.0741 34.5362 39.9507 34.891 39.6885 35.1686C39.5034 35.3538 39.2874 35.4463 39.056 35.4926C38.9326 35.5543 38.7783 35.5697 38.6549 35.5389C38.5778 35.5235 38.5161 35.4926 38.4698 35.4463C38.223 35.3692 37.9916 35.2149 37.8064 35.0144C37.683 34.891 37.6522 34.6441 37.7293 34.4899C37.8527 34.2585 37.9607 34.0425 38.0687 33.8111C38.1304 33.6723 38.2075 33.5489 38.2847 33.41C37.1123 32.6387 36.3718 31.1886 36.7729 29.8157L36.6495 29.7848C34.7829 29.3529 32.9008 28.9364 31.0034 28.5815C30.0624 28.3964 29.1059 28.2576 28.1649 28.057C27.4244 27.9028 26.684 27.7177 25.9435 27.548C25.9898 27.6097 26.0361 27.6714 26.0669 27.7639C27.5016 31.7902 28.566 36.0017 29.3065 40.1977C29.5841 41.7403 29.6304 43.4372 28.4889 44.6713C27.517 45.7049 26.1286 46.1677 24.7711 46.4454C24.7094 46.4608 24.6323 46.4608 24.5705 46.4762C24.7865 47.5561 24.6631 48.7285 24.6323 49.8238C24.6014 51.0116 24.5705 52.1995 24.5397 53.3719C24.5088 54.606 24.4626 55.8401 24.4317 57.0742C25.5116 56.9817 26.6068 57.0896 27.6558 57.3673C28.6277 57.6296 29.939 58.1849 29.8001 59.4036C29.6767 60.576 28.3655 61.0697 27.3782 61.2856C26.0978 61.5633 24.7711 61.4553 23.5215 61.0388C23.2593 60.9617 23.1513 60.6686 23.1667 60.4218C23.1976 59.5733 23.2284 58.7094 23.2593 57.861C23.2439 57.753 23.2439 57.645 23.2747 57.537C23.321 56.1023 23.3673 54.6523 23.429 53.2176C23.4753 51.9989 23.5215 50.7802 23.5678 49.5615C23.6141 48.5742 23.5987 47.5561 23.8147 46.5842C22.3029 46.831 20.7756 46.9545 19.2484 47.0007C18.8319 47.0162 18.4154 47.0162 17.9989 47.0162C18.0606 49.4381 17.8138 51.8755 17.6595 54.282L17.4435 57.537C17.3818 58.4626 17.4589 59.527 17.1504 60.4063C16.8265 61.3011 15.9626 61.5016 15.0987 61.5633C14.1577 61.625 13.1395 61.6404 12.214 61.4708C11.3655 61.3165 10.5325 60.8846 10.2394 60.0052C9.99254 59.2493 10.2856 58.4472 10.9644 58.0461C11.6432 57.645 12.4608 57.6913 13.2167 57.7067C14.204 57.7221 15.1913 57.753 16.194 57.7684C16.2094 57.3827 16.2248 57.0125 16.2557 56.6577C16.3328 55.5779 16.4099 54.4826 16.5025 53.4027C16.6722 51.2739 16.7802 49.0987 17.135 46.9853C16.1477 46.9699 15.1758 46.8928 14.2194 46.6614C12.8773 46.3528 11.5815 45.6895 10.9798 44.3937C10.625 43.6378 10.5942 42.7893 10.625 41.9717C10.6559 41.0461 10.7484 40.1051 10.8256 39.1641C10.9953 37.2358 11.2112 35.3229 11.4735 33.41C11.5969 32.4536 11.7666 31.4971 11.9363 30.5407C11.9826 30.3093 12.0134 30.0779 12.0597 29.8465C11.5198 31.0652 10.9336 32.2685 10.3628 33.4717C9.28292 35.8011 8.2185 38.1614 7.30834 40.5833C7.40089 40.5988 7.49345 40.6296 7.58601 40.6913C9.20579 41.8329 10.0697 44.224 9.12866 46.0597C8.72757 46.8465 7.97167 47.5715 7.06151 47.6641C6.13593 47.7566 5.33375 47.1704 4.97894 46.3374C4.547 45.2884 4.87095 44.1931 5.19491 43.1596C5.54972 42.0643 5.95081 40.969 6.36732 39.8891C7.21578 37.6986 8.17222 35.5389 9.19036 33.4255C10.0234 31.6823 10.8873 29.9545 11.8746 28.2884C5.39545 26.3447 0.705811 21.0997 0.705811 14.96ZM13.1395 58.8945C12.7539 58.8945 11.1958 58.8174 11.4581 59.5579C11.7357 60.3446 13.0778 60.2984 13.7257 60.3292C14.2348 60.3601 14.7439 60.3446 15.2375 60.2984C15.6541 60.2675 15.9472 60.2366 16.0551 59.7738C16.1168 59.4807 16.1477 59.1876 16.1786 58.8945C15.1604 58.8945 14.1423 58.8945 13.1395 58.8945ZM6.95353 41.7866C6.67585 42.6042 6.4136 43.4064 6.19763 44.2394C6.01251 44.9027 5.8274 46.0597 6.59872 46.4454C7.26206 46.7848 7.92539 45.998 8.15679 45.4581C8.69672 44.1623 8.03338 42.5888 6.95353 41.7866ZM43.4063 24.2776C47.5868 24.2776 50.9961 20.8683 50.9961 16.6877C50.9961 12.5072 47.5868 9.09793 43.4063 9.09793C39.2257 9.09793 35.8164 12.5072 35.8164 16.6877C35.8164 20.8683 39.2257 24.2776 43.4063 24.2776ZM38.3927 31.9908C38.9326 32.6387 39.7965 32.9164 40.6141 32.9781C41.3391 33.0244 42.2956 32.9627 42.9126 32.5461C43.1903 32.361 43.4525 31.9754 43.2057 31.6668C43.0206 31.4354 42.6041 31.3429 42.3264 31.2658C40.8763 30.8338 39.4108 30.4636 37.9299 30.0933C37.7447 30.7412 37.9453 31.4509 38.3927 31.9908ZM29.5996 27.3166C30.9108 27.5325 32.2066 27.7639 33.5179 28.0262C35.4308 28.4119 37.3437 28.8438 39.2411 29.3374C39.4725 28.5661 39.7193 27.8102 39.9507 27.0389C40.0587 26.6687 40.1976 26.2984 40.3364 25.9436C40.4444 25.6659 40.5369 25.3574 40.6758 25.0797C37.3282 23.9845 34.86 20.9454 34.6132 17.2894C33.7956 21.3774 30.8954 24.8946 26.8382 27.0235C27.7638 27.1006 28.674 27.1777 29.5996 27.3166ZM26.7303 60.2366C27.1776 60.1749 28.674 59.959 28.7048 59.2802C28.7357 58.6014 27.1159 58.3855 26.6994 58.3238C25.9435 58.2003 25.203 58.2004 24.4471 58.2775C24.4317 58.8791 24.4163 59.4962 24.3854 60.0978C25.1568 60.2829 25.9435 60.3446 26.7303 60.2366ZM11.9671 39.5652C11.9054 40.4291 11.8283 41.2929 11.8129 42.1723C11.8129 42.3265 11.8129 42.4808 11.8129 42.6351C11.8129 42.8973 11.8591 43.1441 11.8591 43.1441C11.9208 43.5606 12.0443 43.9617 12.2911 44.3011C12.9853 45.3038 14.3582 45.5815 15.4998 45.7049C17.1504 45.89 18.8628 45.8746 20.5134 45.7666C22.0869 45.6586 23.7067 45.5044 25.2339 45.1187C26.4063 44.8256 27.7175 44.2548 28.1649 43.0207C28.3655 42.4499 28.3655 41.8483 28.3037 41.2467L28.1803 40.4445C28.0569 39.7195 27.9027 38.9944 27.7484 38.2694C27.3627 36.5107 26.9154 34.7676 26.4372 33.0398L26.1132 31.9599C25.743 30.7258 25.3727 29.4917 24.9716 28.2576C24.9254 28.1188 24.9254 27.9953 24.9562 27.8719C24.8482 27.9182 24.7557 27.9491 24.6477 27.9953L23.9843 28.2267C23.3673 28.4273 22.7194 28.597 22.0715 28.7512C22.0715 28.7512 21.5007 28.8747 21.3464 28.8901H21.331C20.282 29.0752 19.1867 29.1678 18.076 29.1832H17.5669C16.7031 29.1678 15.8392 29.106 15.0061 28.9981L13.9726 28.8284C13.7257 28.7821 13.4789 28.7358 13.2321 28.6741C13.2012 29.3992 13.0778 30.1088 12.9853 30.8338C12.8464 31.8211 12.723 32.8084 12.5842 33.8111C12.5688 33.8728 12.5688 33.95 12.5533 34.0117L12.3682 35.6777C12.1985 36.9735 12.0751 38.2694 11.9671 39.5652ZM12.6305 27.2703C12.7539 27.1777 12.939 27.2549 13.0161 27.3783C14.5279 27.7639 16.1168 27.9799 17.7829 27.9799C26.5143 27.9799 33.6259 22.1333 33.6259 14.96C33.6259 7.78668 26.5143 1.94005 17.7829 1.94005C9.05153 1.94005 1.93993 7.78668 1.93993 14.96C1.93993 20.6523 6.4136 25.5117 12.6305 27.2703ZM11.8591 43.1441L11.9671 43.2675C11.9208 43.2367 11.89 43.1904 11.8591 43.1441ZM11.9517 43.2675C11.9054 43.2367 11.8746 43.1904 11.8437 43.1441L11.9517 43.2675ZM11.9517 43.2675C11.9054 43.2367 11.8746 43.1904 11.8437 43.1441L11.9517 43.2675Z" fill="#1E2146"/>
<path d="M39.5652 15.253C39.4109 15.1913 39.2721 15.145 39.1024 15.1295C39.0252 15.1141 38.9635 15.1141 38.8864 15.0987L38.8093 15.0833H38.7476V15.0678V15.0524L38.763 15.0061L38.7784 14.9599L38.8247 14.8673C38.8864 14.7747 39.0407 14.6205 39.1332 14.5588C39.2104 14.4971 39.3646 14.4045 39.4418 14.3737L39.5343 14.3582H39.596H39.6115L39.7194 14.3891H39.7349L39.8429 14.4354L39.8737 14.4508L39.9663 14.5279C40.2131 14.7285 40.5833 14.5896 40.5833 14.2502C40.5833 13.88 40.2748 13.6023 39.9508 13.4943C39.6577 13.3864 39.3183 13.4018 39.0252 13.5098C38.4082 13.7566 37.7449 14.3891 37.7449 15.0987C37.7449 15.4689 37.9608 15.8237 38.3002 15.9934C38.4545 16.0706 38.5933 16.1014 38.763 16.1168C38.8401 16.1323 38.9018 16.1323 38.979 16.1477L39.0561 16.1631L39.1024 16.1785L39.1487 16.2094L39.1641 16.2248L39.2104 16.2711L39.2258 16.302L39.2566 16.3637L39.2721 16.3945L39.2875 16.4562V16.5179L39.2721 16.5796V16.5951L39.2258 16.6722C39.2721 16.6105 39.1949 16.6876 39.1641 16.7339L39.1332 16.7493L39.0561 16.7802L39.0098 16.7956H38.9944H38.979H38.9173L38.8556 16.7802L38.763 16.7339L38.7476 16.7185L38.6859 16.6568L38.655 16.6105L38.6242 16.5642L38.6087 16.4871C38.6396 16.5796 38.5933 16.4254 38.5933 16.4099C38.5316 16.086 38.2539 15.8392 37.9145 15.9471C37.7449 15.9934 37.5752 16.1477 37.5597 16.3328C37.4826 17.027 37.9917 17.7212 38.6859 17.8446C39.3955 17.968 40.1051 17.5206 40.3056 16.8419C40.5216 16.2865 40.1668 15.5306 39.5652 15.253Z" fill="#1E2146"/>
<path d="M43.7611 15.1759C43.9154 15.0679 43.9925 14.9291 43.9925 14.744C43.9925 14.5897 43.8845 14.4046 43.7457 14.3275C43.36 14.1423 42.9743 13.9572 42.5733 13.8184C42.3881 13.7567 42.2184 13.695 42.0333 13.6487C41.8174 13.6024 41.6168 13.6024 41.4163 13.5716C41.2774 13.5561 41.1386 13.6024 41.0923 13.7413C41.046 13.8801 41.0923 14.0189 41.2157 14.0806C41.3854 14.1732 41.5243 14.2966 41.694 14.3892C41.7402 14.42 41.7711 14.4354 41.8174 14.4509C41.7711 14.5434 41.7402 14.636 41.694 14.7285C41.5551 15.0525 41.4471 15.3919 41.3391 15.7158C41.2312 16.0244 41.1232 16.3483 41.0152 16.6569C40.9072 16.9654 40.6758 17.4127 40.7992 17.7367C40.9072 18.0144 41.2466 18.1841 41.5088 17.999C41.7248 17.8601 41.7865 17.675 41.8482 17.4436C41.8945 17.2893 41.9408 17.1196 41.9871 16.9654C42.0796 16.6414 42.1722 16.3329 42.2647 16.0089C42.3573 15.7004 42.4653 15.3765 42.527 15.0525C42.5424 14.9908 42.5578 14.9137 42.5733 14.8365C42.8047 14.9445 43.036 15.0525 43.2674 15.1759C43.4217 15.2685 43.6223 15.2685 43.7611 15.1759Z" fill="#1E2146"/>
<path d="M43.1593 16.3022C43.329 15.9628 43.5296 15.6234 43.7918 15.3612C44.0541 15.0989 44.4706 14.8675 44.8408 14.9909C44.918 15.0218 44.9797 15.0681 45.0105 15.1452C45.2728 15.176 45.5196 15.2532 45.7201 15.392C46.0904 15.6234 46.3989 15.9936 46.5069 16.4256C46.7383 17.2895 46.3372 18.2459 45.6739 18.8167C44.9951 19.4183 43.8998 19.696 43.221 18.9401C42.5423 18.1688 42.7428 17.1352 43.1593 16.3022ZM43.8227 17.7214V17.7523V17.7677L43.8381 17.8448L43.8844 17.9837C43.9152 18.0454 43.9461 18.0916 43.9769 18.1379L43.9924 18.1688L44.0541 18.2305L44.0695 18.2459L44.1466 18.2922H44.1621L44.2392 18.3076H44.378H44.4089L44.4706 18.2922C44.6866 18.2305 44.8871 18.0762 45.0722 17.8911C45.1031 17.8603 45.1339 17.814 45.1648 17.7831L45.1956 17.7523C45.2419 17.6906 45.2728 17.6289 45.3036 17.5671C45.3345 17.5054 45.3653 17.4437 45.3962 17.3975L45.427 17.3358L45.4425 17.3049C45.4733 17.2278 45.4887 17.1352 45.5042 17.0581V16.9347V16.8267V16.8113V16.7958C45.4887 16.7495 45.4887 16.7033 45.4733 16.6724C45.4733 16.6724 45.427 16.5799 45.4116 16.549L45.3807 16.5027L45.3499 16.4719C45.319 16.441 45.2882 16.4102 45.2573 16.3793C45.2573 16.3793 45.1802 16.3176 45.1494 16.3176L45.1031 16.2868L45.0568 16.2713L44.9488 16.2559H44.8254C44.7637 16.2559 44.7174 16.2713 44.6557 16.2713C44.5169 16.2713 44.4089 16.225 44.3318 16.1633C44.1929 16.3947 44.0849 16.657 43.9924 16.9038C43.869 17.1506 43.8072 17.4283 43.8227 17.7214Z" fill="#1E2146"/>
<path d="M46.7847 18.0299C47.0006 17.4745 47.2166 16.7958 47.6948 16.4101C48.2502 15.9936 48.9598 16.2713 49.2837 16.8112C49.6077 17.3665 49.5768 18.1379 49.2375 18.6778C48.8981 19.2486 48.2965 19.5571 47.6485 19.6188C47.556 19.6188 47.4634 19.6034 47.3863 19.5571C47.2783 19.8965 47.1549 20.2513 47.0469 20.5907C46.9543 20.8529 46.723 21.0535 46.4144 20.9763C46.1367 20.9146 45.9671 20.6215 46.0288 20.3439C46.1985 19.5725 46.4916 18.8012 46.7847 18.0299ZM48.6667 17.891C48.7284 17.6596 48.6975 17.382 48.5433 17.1969C48.4353 17.0734 48.3273 17.0117 48.2039 17.1043C48.1422 17.1506 48.0959 17.2277 48.0496 17.3203C48.0188 17.49 47.9879 17.6596 47.9416 17.8293C47.8799 18.0916 47.8028 18.3538 47.7102 18.6161C48.1422 18.6161 48.5587 18.3538 48.6667 17.891Z" fill="#1E2146"/>
<path d="M14.497 14.1268C14.0188 13.9417 13.5406 13.772 13.0778 13.5869C12.8464 13.4943 12.615 13.4172 12.399 13.3092C12.2139 13.2321 11.8282 13.0624 11.9362 12.8002C12.0442 12.5379 12.4453 12.7076 12.6304 12.7693C12.8618 12.8619 13.0778 12.9699 13.3092 13.0624C13.772 13.2784 14.2193 13.4943 14.6821 13.7103C14.929 13.8492 14.7593 14.2348 14.497 14.1268Z" fill="#1E2146"/>
<path d="M25.5733 14.0036C25.3265 14.235 25.0642 14.451 24.8174 14.6824C24.7094 14.775 24.5089 14.7441 24.4318 14.6361C24.3392 14.4973 24.3701 14.3584 24.478 14.2505C24.7249 14.0191 24.9717 13.8031 25.2185 13.5717C25.3419 13.4637 25.4499 13.3557 25.5733 13.2477C25.7122 13.1243 25.8818 13.0009 26.067 12.9855C26.1904 12.9701 26.2984 13.078 26.2829 13.2015C26.2521 13.402 26.1132 13.5563 25.9744 13.6951C25.8356 13.7722 25.7122 13.8956 25.5733 14.0036Z" fill="#1E2146"/>
<path d="M20.6677 21.7322C20.2666 21.7939 19.8501 21.8248 19.4335 21.8094C19.0016 21.8094 18.5697 21.7785 18.1377 21.7168C17.7058 21.6551 17.1813 21.5934 16.919 21.2077C16.7648 20.9763 16.8419 20.6678 17.1041 20.5444C17.4898 20.3747 17.9217 20.5444 18.3074 20.6061C18.6776 20.6832 19.0633 20.7295 19.449 20.7449C19.8192 20.7604 20.174 20.7604 20.5442 20.7449C20.9145 20.7295 21.3464 20.6215 21.7012 20.7295C21.9789 20.8066 22.0869 21.1306 21.8555 21.3157C21.547 21.6088 21.0687 21.6705 20.6677 21.7322Z" fill="#1E2146"/>
<path d="M57.3518 68.7057C57.6141 68.6594 57.8763 68.7982 58.0306 69.0142L58.0614 69.0759C58.1231 69.153 58.1848 69.2302 58.2157 69.3227C58.3083 69.5233 58.3391 69.7855 58.3391 70.0015C58.3391 70.1866 58.3237 70.3872 58.2774 70.5723C58.2774 70.7111 58.2774 70.8345 58.262 70.9734C58.2465 71.1739 58.1848 71.3744 58.0614 71.5441C57.8917 71.7601 57.5832 71.8835 57.321 71.8064C57.0433 71.7293 56.8119 71.5441 56.7039 71.2665C56.6268 71.0968 56.6268 70.9117 56.6113 70.7265C56.5959 70.6186 56.5805 70.5106 56.5805 70.4026C56.5496 70.0169 56.5805 69.5387 56.7656 69.1993C56.889 68.9371 57.0896 68.752 57.3518 68.7057Z" fill="#1E2146"/>
<path d="M45.2573 68.3973C45.5196 68.351 45.7818 68.4899 45.9361 68.7059L45.9669 68.7676C46.0287 68.8447 46.0904 68.9218 46.1212 69.0144C46.2138 69.2149 46.2446 69.4772 46.2446 69.6931C46.2446 69.8783 46.2292 70.0788 46.1829 70.2639C46.1829 70.4028 46.1829 70.5262 46.1675 70.665C46.1521 70.8656 46.0904 71.0661 45.9669 71.2358C45.7973 71.4518 45.4887 71.5752 45.2265 71.498C44.9488 71.4209 44.7174 71.2358 44.6094 70.9581C44.5323 70.7884 44.5323 70.6033 44.5169 70.4182C44.5014 70.3102 44.486 70.2022 44.486 70.0942C44.4552 69.7086 44.486 69.2304 44.6711 68.891C44.7945 68.6133 44.9951 68.4282 45.2573 68.3973Z" fill="#1E2146"/>
<path d="M49.6693 73.0561C49.9161 73.3492 50.1013 73.6269 50.4561 73.8274C50.7954 74.028 51.1811 74.136 51.5822 74.1514C52.0141 74.1668 52.4306 74.0897 52.8472 73.9971C53.0786 73.9509 53.2945 73.8737 53.4951 73.7657C53.711 73.6578 53.9116 73.5652 54.1584 73.5652C54.251 73.5652 54.359 73.6423 54.3281 73.7503C54.2047 74.2748 53.5722 74.5833 53.1403 74.8147C52.6158 75.0924 51.9987 75.185 51.4125 75.1541C50.9189 75.1233 50.4098 74.969 49.9778 74.7222C49.515 74.4445 49.0214 74.0434 48.8054 73.5343C48.574 72.979 49.3145 72.6396 49.6693 73.0561Z" fill="#1E2146"/>
<path d="M3.4517 96.3809C3.86821 95.8101 4.33101 95.2548 4.96349 94.9C5.56512 94.5606 6.30559 94.4063 6.98436 94.6377C7.63227 94.8537 8.04878 95.3936 8.40359 95.949C9.40631 97.4762 10.3936 99.0343 11.3809 100.577C12.723 100.238 14.0651 99.9136 15.4072 99.5742C16.1322 99.3891 16.8419 99.2194 17.5669 99.0497C17.9834 98.9571 18.3999 98.8337 18.8319 98.7566C18.6776 98.4943 18.5542 98.2167 18.4925 97.9081C18.2611 96.8746 18.7085 95.9027 19.1867 95.008C20.1277 93.2648 21.1613 91.5679 22.3028 89.9481C24.7402 86.4617 27.6404 83.3147 30.8954 80.5842C30.4172 80.5379 29.9235 80.4454 29.4916 80.3837C28.6585 80.2603 27.8101 80.1214 26.9771 79.998C26.144 79.8746 25.2956 79.7358 24.4625 79.6124C23.7838 79.5044 23.0742 79.3347 22.38 79.3964C21.9172 79.4427 21.6241 79.7049 21.439 80.0597C23.0433 80.7231 24.0614 82.3428 23.7529 84.1323C23.5987 85.027 23.0896 85.9526 22.2411 86.3537C21.4852 86.7085 20.5134 86.5543 20.0351 85.8446C19.5106 85.0887 19.742 84.0706 19.8346 83.2221C19.9426 82.2194 19.9734 81.1241 20.2511 80.1523C20.4825 79.3038 20.9916 78.733 21.8555 78.5171C22.7348 78.2857 23.6758 78.5171 24.5551 78.6559C25.7892 78.8719 27.0388 79.0724 28.2729 79.2884C28.8899 79.3964 29.507 79.4889 30.1241 79.6124C30.3246 79.6586 30.5406 79.6895 30.7565 79.7358C27.9643 77.1287 26.2829 73.6423 26.3908 69.8474C26.4988 65.8674 28.5351 62.3347 31.713 59.851C34.8908 57.3674 39.1794 55.9019 43.8845 56.0253C48.5741 56.1487 52.8009 57.8302 55.8245 60.4835C58.8635 63.1369 60.7147 66.7775 60.6067 70.7421C60.4988 74.7222 58.4625 78.2548 55.2846 80.7385C52.1068 83.2221 47.8182 84.6877 43.1131 84.5642C42.7275 84.5488 42.3572 84.5334 41.987 84.5025C42.2184 86.0452 42.1104 87.6187 41.7865 89.1613C42.0333 89.5161 42.2801 89.8709 42.5269 90.2258C43.4679 91.5833 44.3318 93.0179 45.3191 94.36C46.7229 93.5579 48.065 92.7094 49.33 91.7221C48.2193 90.6114 47.5714 88.9762 48.065 87.4181C48.5278 85.9526 49.9625 84.7956 51.536 84.9653C53.0941 85.1196 54.4362 86.6931 54.1122 88.282C53.9271 89.1768 53.3254 89.9018 52.7084 90.5343C52.0605 91.213 51.3663 91.8455 50.6412 92.4472C49.0523 93.7893 47.2783 94.9925 45.3654 95.8564C45.134 95.9644 44.7175 95.8718 44.5941 95.625C43.6839 93.9744 42.5424 92.4317 41.5396 90.8428C41.4934 90.7811 41.4625 90.704 41.4162 90.6423C40.9226 92.2621 40.213 93.8355 39.4262 95.2548C38.3772 97.1368 37.1585 98.9263 35.909 100.7C34.9834 102.012 33.9807 103.369 32.438 103.816C32.7003 104.017 32.9625 104.218 33.2248 104.418C33.7801 104.835 34.3355 105.267 34.8908 105.683C36.0632 106.593 37.2511 107.488 38.4235 108.398C39.565 109.293 40.722 110.188 41.8636 111.082C42.4344 111.53 43.0051 111.977 43.5914 112.424C43.8382 112.625 44.1004 112.841 44.3472 113.057C45.134 111.653 45.8745 110.203 46.7229 108.83C47.0315 108.336 47.4788 107.812 48.0959 107.75C48.6358 107.689 49.1449 108.028 49.3454 108.537C49.8082 109.694 49.0215 111.021 48.4044 111.962C47.6639 113.103 46.6304 114.183 45.4117 114.816C45.1957 114.924 44.9335 114.8 44.7946 114.63C44.301 114.06 43.5605 113.628 42.9743 113.18C42.4189 112.748 41.879 112.332 41.3237 111.9C40.1513 110.99 38.9788 110.064 37.8064 109.154C36.6649 108.259 35.5233 107.349 34.3818 106.454C33.811 106.007 33.2402 105.56 32.6694 105.097C32.222 104.742 31.7438 104.387 31.3427 103.986C30.3863 103.986 29.4607 103.724 28.566 103.415C27.517 103.061 26.4834 102.675 25.4498 102.289C24.4008 101.888 23.3518 101.487 22.3183 101.071C21.4852 100.731 20.6522 100.392 19.9117 99.8827C19.7266 99.7593 19.5569 99.605 19.3872 99.4508C18.8782 99.6667 18.3228 99.7902 17.7983 99.9444C17.0887 100.145 16.3945 100.33 15.6849 100.531C14.2348 100.916 12.8001 101.302 11.35 101.688C11.1341 101.749 10.8873 101.703 10.7484 101.502C9.8691 100.16 8.97437 98.8029 8.11049 97.4608C7.95622 97.2294 7.81738 96.9671 7.64769 96.6894C7.03063 97.7847 6.19761 98.8337 5.16403 99.5125C4.60868 99.8827 3.89907 100.114 3.28201 99.7439C2.77293 99.4354 2.54154 98.8183 2.58782 98.2321C2.61867 97.507 3.05061 96.9208 3.4517 96.3809ZM20.9916 82.8982C20.9453 83.2838 20.9145 83.6849 20.8682 84.0706C20.8373 84.3637 20.7756 84.7339 20.8836 85.0116C21.1304 85.6595 21.8709 85.2122 22.1331 84.8419C23.0124 83.6232 22.4262 81.8955 21.1458 81.2784C21.0996 81.8183 21.0533 82.3583 20.9916 82.8982ZM50.2402 90.9662C50.7184 90.5497 51.1812 90.1332 51.6131 89.6704C52.4153 88.8374 53.3717 87.6495 52.2456 86.6622C51.3046 85.8292 50.0242 86.2766 49.4226 87.2793C48.6667 88.5288 49.2374 90.0561 50.2402 90.9662ZM45.134 113.659C45.8745 113.072 46.5841 112.502 47.1703 111.73C47.6948 111.051 48.4044 110.11 48.4353 109.216C48.4507 108.83 48.2501 108.491 47.8491 108.815C47.4017 109.169 47.1703 109.802 46.908 110.28C46.291 111.391 45.7048 112.517 45.1031 113.643L45.134 113.659ZM54.5441 79.8592C57.4906 77.5452 59.3263 74.3365 59.4189 70.7421C59.5115 67.1478 57.8454 63.8465 55.0378 61.3783C52.2147 58.91 48.2501 57.3211 43.8227 57.1977C39.3799 57.0743 35.3382 58.4627 32.3917 60.7766C29.4453 63.0906 27.6095 66.2993 27.517 69.8937C27.4244 73.488 29.0905 76.7893 31.8981 79.2575C34.32 81.371 37.5905 82.8519 41.2928 83.2993C41.4008 83.1604 41.663 83.145 41.7247 83.3455C42.1875 83.3918 42.6503 83.4227 43.1286 83.4381C47.556 83.5615 51.5977 82.1731 54.5441 79.8592ZM19.9734 98.1858C20.3745 98.7412 21.0224 99.096 21.6395 99.3736C22.5342 99.7902 23.4598 100.13 24.37 100.5C25.3264 100.87 26.2829 101.24 27.2547 101.595C28.1649 101.934 29.0751 102.305 30.0315 102.521C30.9108 102.737 31.8672 102.829 32.7003 102.382C33.4253 101.996 33.9498 101.302 34.428 100.654C35.585 99.0805 36.7266 97.4916 37.7756 95.841C38.9171 94.0052 39.9661 92.0615 40.5986 89.9944C40.6449 89.8555 40.6757 89.7013 40.722 89.5624C40.4906 89.1922 40.2438 88.8065 40.0124 88.4363C39.5342 87.6495 39.1022 86.8474 38.6703 86.0452C38.5006 85.7212 38.9943 85.5053 39.2102 85.7521C39.8119 86.4926 40.3981 87.2176 40.938 88.0043C40.9689 88.0506 40.9997 88.0969 41.046 88.1432C41.262 86.9245 41.3545 85.6904 41.3082 84.4563C37.899 84.0706 34.8137 82.8519 32.33 81.047C32.2992 81.0933 32.2529 81.1396 32.2066 81.1858C29.399 83.4998 26.8536 86.1223 24.6322 89.0071C23.537 90.4263 22.5188 91.9072 21.5932 93.4345C21.115 94.2212 20.6522 95.0388 20.2203 95.8564C19.8037 96.5969 19.4489 97.4453 19.9734 98.1858ZM4.22302 98.7566C4.82465 98.5252 5.34915 97.9081 5.75024 97.4299C6.18218 96.9208 6.55242 96.3655 6.84552 95.7638C6.25931 95.3782 5.53427 95.7022 5.07148 96.1187C4.60868 96.5352 4.19217 97.0905 3.86821 97.6305C3.63681 98.0315 3.40542 99.0805 4.22302 98.7566Z" fill="#1E2146"/>
<path d="M48.0032 67.9961C47.0931 68.0578 45.1339 67.5333 44.594 66.8237C44.486 66.6849 44.5169 66.4843 44.6557 66.3763C44.7945 66.2683 44.9951 66.2992 45.1031 66.438C45.4887 66.9317 47.3245 67.4562 48.0341 67.3482C48.2038 67.3328 48.3735 67.4408 48.3889 67.6105C48.4198 67.7801 48.2963 67.9498 48.1266 67.9653C48.0804 67.9807 48.0341 67.9961 48.0032 67.9961Z" fill="#1C1C1B"/>
<path d="M55.1766 68.1968C55.1457 68.1968 55.0994 68.1968 55.0686 68.1968C54.8989 68.1968 54.7446 68.058 54.7446 67.8883C54.7446 67.7186 54.8835 67.5797 55.0532 67.5643C55.7628 67.5643 57.506 66.7775 57.8145 66.2222C57.8916 66.0679 58.0922 66.0062 58.2464 66.0988C58.4007 66.1759 58.4624 66.3765 58.3698 66.5307C57.9533 67.3329 56.0867 68.1351 55.1766 68.1968Z" fill="#1C1C1B"/>
<path d="M118.811 99.0497C117.87 100.577 115.324 100.747 114.615 98.9109C113.813 96.8592 115.679 95.2857 115.911 93.3728C115.648 93.1414 115.401 92.9408 115.155 92.7403C113.766 91.5987 112.208 90.6731 110.558 89.9635C109.956 89.7013 109.339 89.4853 108.706 89.2848C110.82 91.1205 112.1 93.9436 112.146 96.7357C112.193 99.3274 111.19 101.826 109.601 103.847C110.11 105.544 110.234 107.411 110.48 109.154C110.588 109.895 110.696 110.635 110.804 111.36H110.882C112.069 111.591 113.242 111.869 114.383 112.224C115.263 112.486 116.342 112.733 117.083 113.335C118.518 114.507 117.654 116.512 116.034 116.914C115.17 117.13 114.244 116.852 113.458 116.482C112.671 116.111 111.853 115.695 111.19 115.155C110.48 114.584 110.033 113.859 109.817 112.964C109.601 112.008 109.555 110.974 109.431 110.003C109.308 108.938 109.185 107.874 109.046 106.809C108.969 106.13 108.876 105.436 108.83 104.742C108.29 105.328 107.688 105.853 107.056 106.331C103.616 108.907 99.1728 109.663 94.9768 109.216C92.1075 108.907 88.9297 108.09 86.6311 106.238C86.4306 106.562 86.1066 106.871 85.9061 107.071C85.3199 107.673 84.7645 108.244 84.5794 109.092C84.1475 111.005 85.2427 112.779 86.23 114.322C86.3534 114.337 86.4769 114.399 86.554 114.538C87.495 116.096 85.8598 117.268 84.6565 117.963C83.5613 118.595 81.8489 119.474 80.5531 118.95C79.936 118.703 79.5504 118.086 79.6584 117.407C79.7818 116.605 80.4914 116.05 81.1239 115.649C82.25 114.924 83.5304 114.461 84.8417 114.276C83.9623 112.733 83.2219 111.021 83.5304 109.216C83.7001 108.275 84.1475 107.519 84.8108 106.84C85.1193 106.532 85.4587 106.238 85.7364 105.884C85.7981 105.791 85.8598 105.699 85.9215 105.621C85.3044 105.004 84.7799 104.295 84.3634 103.462C83.9469 102.598 83.7155 101.657 83.7001 100.7C83.6847 99.5434 84.0086 98.4172 84.3172 97.3065C84.7645 95.6867 85.1965 93.635 84.0549 92.2158C83.3761 92.4009 82.6974 92.586 82.0495 92.8791C81.3244 93.2031 80.6457 93.6196 80.0286 94.0978C79.3807 94.5915 78.7945 95.1777 78.2854 95.8256C80.0749 97.1831 81.8489 99.3737 80.9542 101.765C80.3063 103.493 78.1003 104.356 76.6193 103.091C75.015 101.718 75.339 99.4045 76.064 97.6459C76.7582 95.9644 77.9306 94.4835 79.3653 93.3728C80.4143 92.5706 81.7255 91.8301 83.0676 91.5216C81.6484 90.8583 80.3526 90.0407 79.211 89.0842C75.956 86.3846 73.9043 82.6205 73.9043 78.44C73.9043 74.2594 75.956 70.4953 79.211 67.7957C82.466 65.0961 86.9551 63.4454 91.8761 63.4454C96.8126 63.4454 101.286 65.0961 104.541 67.7957C107.796 70.4953 109.848 74.2594 109.848 78.44C109.848 81.9572 108.398 85.1813 105.991 87.7113C106.161 87.773 106.331 87.8347 106.5 87.9118C107.364 87.9889 108.228 88.2512 109.061 88.498C110.203 88.8374 111.298 89.3002 112.362 89.8401C114.275 90.8274 116.034 92.1387 117.515 93.6967C118.857 95.0697 119.952 97.1985 118.811 99.0497Z" fill="#EAF3FC"/>
<path d="M94.3905 79.1186L94.3597 79.0569C94.19 78.841 93.9123 78.7021 93.6501 78.7484C93.3724 78.7947 93.1718 78.9952 93.0484 79.2421C92.8633 79.6123 92.8479 80.1059 92.8787 80.5224C92.8942 80.6304 92.9096 80.7538 92.925 80.8618C92.9404 81.0624 92.9559 81.2475 93.033 81.4326C93.1564 81.7103 93.3878 81.9108 93.6963 81.988C93.9894 82.0497 94.298 81.9263 94.4677 81.6949C94.5911 81.5252 94.6528 81.3092 94.6682 81.0932C94.6836 80.9544 94.6836 80.8155 94.6682 80.6767C94.6991 80.4762 94.7145 80.2756 94.7145 80.0751C94.6991 79.8437 94.6682 79.5814 94.5757 79.3655C94.5139 79.2729 94.4522 79.1803 94.3905 79.1186Z" fill="#1E2146"/>
<path d="M81.6791 79.1186L81.6483 79.0569C81.4786 78.841 81.2009 78.7021 80.9386 78.7484C80.661 78.7947 80.4604 78.9952 80.337 79.2421C80.1519 79.6123 80.1365 80.1059 80.1673 80.5224C80.1827 80.6304 80.1982 80.7538 80.2136 80.8618C80.229 81.0624 80.2445 81.2475 80.3216 81.4326C80.445 81.7103 80.6764 81.9108 80.9849 81.988C81.278 82.0497 81.5865 81.9263 81.7562 81.6949C81.8797 81.5252 81.9414 81.3092 81.9568 81.0932C81.9722 80.9544 81.9722 80.8155 81.9568 80.6767C81.9876 80.4762 82.0031 80.2756 82.0031 80.0751C81.9876 79.8437 81.9568 79.5814 81.8642 79.3655C81.8025 79.2729 81.7408 79.1803 81.6791 79.1186Z" fill="#1E2146"/>
<path d="M89.5314 83.4381C89.1303 83.253 88.6829 83.4227 88.2819 83.5152C87.8962 83.5924 87.4951 83.6387 87.1095 83.6695C86.7392 83.6849 86.3536 83.6849 85.9833 83.6695C85.5977 83.6541 85.1657 83.5461 84.7801 83.6541C84.5024 83.7312 84.379 84.0552 84.6258 84.2711C84.9497 84.5488 85.4434 84.6105 85.8599 84.6722C86.2764 84.7339 86.7084 84.7648 87.1249 84.7648C87.5722 84.7648 88.0196 84.7339 88.467 84.6722C88.9143 84.6105 89.4697 84.5488 89.7319 84.1477C89.8862 83.8855 89.8091 83.5615 89.5314 83.4381Z" fill="#1E2146"/>
<path d="M92.2 77.1595C92.6937 76.9744 93.1873 76.7893 93.6656 76.6041C93.897 76.5116 94.1438 76.4344 94.3752 76.3265C94.5603 76.2339 94.9614 76.0642 94.8534 75.802C94.73 75.5243 94.3289 75.694 94.1438 75.7711C93.9124 75.8637 93.681 75.9717 93.4496 76.0796C92.9714 76.2956 92.4931 76.527 92.0304 76.743C91.7527 76.8664 91.9378 77.2675 92.2 77.1595Z" fill="#1E2146"/>
<path d="M80.7381 77.0362C81.0004 77.2676 81.2626 77.499 81.5249 77.7304C81.6329 77.8383 81.8488 77.7921 81.926 77.6686C82.0185 77.5298 81.9877 77.3755 81.8643 77.2676C81.6174 77.0362 81.3552 76.7893 81.1084 76.5579C80.985 76.4499 80.8616 76.3265 80.7381 76.2186C80.5993 76.0951 80.4142 75.9717 80.2291 75.9563C80.1057 75.9409 79.9822 76.0489 80.0131 76.1723C80.0439 76.3728 80.1828 76.5425 80.337 76.6814C80.4759 76.8048 80.6147 76.9127 80.7381 77.0362Z" fill="#1E2146"/>
<path d="M117.53 93.6658C116.049 92.1078 114.291 90.7965 112.378 89.8092C111.329 89.2693 110.218 88.8065 109.077 88.4671C108.259 88.2203 107.395 87.9735 106.516 87.8809C106.346 87.8038 106.176 87.7421 106.007 87.6804C108.413 85.135 109.863 81.9109 109.863 78.4091C109.863 74.2285 107.812 70.4644 104.557 67.7648C101.302 65.0652 96.8125 63.4146 91.8915 63.4146C86.955 63.4146 82.4814 65.0652 79.2264 67.7648C75.9714 70.4644 73.9197 74.2285 73.9197 78.4091C73.9197 82.5896 75.9714 86.3537 79.2264 89.0533C80.3679 90.0098 81.6792 90.8274 83.083 91.4907C81.7409 91.7992 80.4296 92.5397 79.3806 93.3419C77.946 94.4526 76.7736 95.9335 76.0794 97.615C75.3543 99.3736 75.0304 101.672 76.6347 103.061C78.1157 104.326 80.3217 103.462 80.9696 101.734C81.8643 99.3428 80.0748 97.1522 78.3008 95.7947C78.8099 95.1468 79.3961 94.5606 80.044 94.0669C80.6765 93.5887 81.3552 93.1722 82.0648 92.8482C82.7128 92.5551 83.3915 92.37 84.0703 92.1849C85.2273 93.6041 84.7953 95.6559 84.3325 97.2756C84.024 98.3863 83.7001 99.497 83.7155 100.669C83.7309 101.626 83.9623 102.567 84.3788 103.431C84.7799 104.248 85.3198 104.958 85.9369 105.59C85.8752 105.668 85.8135 105.76 85.7518 105.853C85.4741 106.208 85.1347 106.501 84.8262 106.809C84.1628 107.473 83.7001 108.244 83.5458 109.185C83.2218 110.99 83.9777 112.687 84.857 114.245C83.5304 114.43 82.2654 114.908 81.1393 115.618C80.5068 116.019 79.7972 116.574 79.6737 117.376C79.5812 118.04 79.9514 118.657 80.5685 118.919C81.8643 119.443 83.5766 118.564 84.6719 117.932C85.8752 117.237 87.5104 116.08 86.5694 114.507C86.4922 114.368 86.3688 114.306 86.2454 114.291C85.2581 112.748 84.1628 110.974 84.5948 109.061C84.7799 108.213 85.3353 107.642 85.9215 107.041C86.122 106.84 86.446 106.532 86.6465 106.208C88.9296 108.059 92.1229 108.876 94.9922 109.185C99.1882 109.632 103.631 108.876 107.071 106.3C107.704 105.822 108.29 105.297 108.845 104.711C108.891 105.405 108.969 106.1 109.061 106.778C109.185 107.843 109.308 108.907 109.447 109.972C109.555 110.943 109.601 111.977 109.832 112.933C110.033 113.828 110.496 114.553 111.205 115.124C111.884 115.679 112.702 116.096 113.473 116.451C114.26 116.821 115.185 117.099 116.049 116.883C117.685 116.466 118.548 114.461 117.098 113.304C116.358 112.702 115.293 112.471 114.399 112.193C113.242 111.838 112.069 111.561 110.897 111.329H110.82C110.712 110.589 110.604 109.848 110.496 109.123C110.234 107.38 110.11 105.513 109.617 103.816C111.205 101.796 112.208 99.3119 112.162 96.7049C112.116 93.8972 110.835 91.0896 108.722 89.2539C109.354 89.4544 109.971 89.6704 110.573 89.9326C112.224 90.6423 113.766 91.5833 115.17 92.7094C115.417 92.9099 115.679 93.1259 115.926 93.3419C115.695 95.2548 113.828 96.8283 114.63 98.88C115.355 100.716 117.885 100.546 118.826 99.0188C119.952 97.1985 118.857 95.0696 117.53 93.6658ZM80.1057 100.762C79.936 102.274 78.1157 103.307 77.0358 101.95C76.0023 100.654 76.6347 98.7257 77.2826 97.399C77.4061 97.1522 77.5449 96.9208 77.6837 96.674C78.9333 97.6767 80.2908 99.0188 80.1057 100.762ZM83.7463 117.083C83.2681 117.315 82.759 117.531 82.25 117.685C81.9106 117.793 81.4324 117.947 81.0621 117.808C80.1982 117.484 82.3425 116.296 82.6202 116.158C83.5921 115.695 84.6256 115.433 85.6901 115.34C85.798 116.142 84.3017 116.821 83.7463 117.083ZM115.494 113.89C115.895 114.044 116.666 114.337 116.558 114.893C116.45 115.479 115.741 115.71 115.232 115.679C114.507 115.618 113.828 115.217 113.18 114.893C112.609 114.6 111.992 114.26 111.56 113.767C111.283 113.443 111.128 113.072 111.02 112.687C112.548 112.964 114.059 113.35 115.494 113.89ZM79.9823 88.1277C76.9433 85.6132 75.1075 82.1731 75.1075 78.4091C75.1075 74.645 76.9433 71.2049 79.9823 68.6904C83.0059 66.1759 87.2327 64.6024 91.8915 64.6024C96.5503 64.6024 100.777 66.1759 103.801 68.6904C106.824 71.2049 108.675 74.645 108.675 78.4091C108.675 82.1731 106.824 85.6132 103.801 88.1277C100.777 90.6422 96.5503 92.2157 91.8915 92.2157C87.2173 92.2157 83.0059 90.6422 79.9823 88.1277ZM110.881 96.0878C111.221 99.5279 109.37 102.86 106.778 105.004C103.662 107.581 99.5122 108.429 95.5476 108.105C91.8144 107.796 87.1093 106.624 85.3507 102.937C84.8879 101.95 84.7182 100.916 84.857 99.8364C85.0113 98.6486 85.4278 97.507 85.6746 96.3346C85.9369 95.0851 85.9677 93.5424 85.3353 92.3854C87.3716 93.0488 89.5775 93.419 91.8761 93.419C96.8125 93.419 101.286 91.7684 104.541 89.0688C104.695 88.9453 104.85 88.8065 105.004 88.6677C105.066 88.7139 105.127 88.7448 105.205 88.7756C108.429 89.7321 110.558 92.8174 110.881 96.0878ZM117.422 99.0651C116.805 99.4045 115.957 99.3428 115.602 98.6794C115.185 97.9235 115.54 96.9362 115.88 96.2112C116.204 95.5324 116.558 94.8845 116.774 94.1749C117.546 94.9771 118.194 95.9181 118.302 96.9825C118.394 97.7847 118.147 98.6794 117.422 99.0651Z" fill="#1E2146"/>
</g>
<defs>
<clipPath id="clip0_3810_58240">
<rect width="120" height="120" fill="white"/>
</clipPath>
</defs>
</svg>
